<ttFont>
<head>
    <!-- Most of this table will be recalculated by the compiler -->
    <tableVersion value="1.0"/>
    <fontRevision value="2.00499"/>
    <checkSumAdjustment value="0xb6619a29"/>
    <magicNumber value="0x5f0f3cf5"/>
    <flags value="00100000 00001111"/>
    <unitsPerEm value="2048"/>
    <created value="Tue Feb 28 10:54:35 2023"/>
    <modified value="Tue Feb 28 10:55:36 2023"/>
    <xMin value="-286"/>
    <yMin value="-607"/>
    <xMax value="1436"/>
    <yMax value="2021"/>
    <macStyle value="00000000 00000010"/>
    <lowestRecPPEM value="7"/>
    <fontDirectionHint value="2"/>
    <indexToLocFormat value="0"/>
    <glyphDataFormat value="0"/>
  </head>
    <TTGlyph name=".notdef" xMin="-16" yMin="-303" xMax="1105" yMax="1513">
      <contour>
        <pt x="348" y="1513" on="1"/>
        <pt x="1105" y="1513" on="1"/>
        <pt x="741" y="-303" on="1"/>
        <pt x="-16" y="-303" on="1"/>
      </contour>
      <contour>
        <pt x="620" y="-151" on="1"/>
        <pt x="923" y="1362" on="1"/>
        <pt x="470" y="1362" on="1"/>
        <pt x="167" y="-151" on="1"/>
      </contour>
    </TTGlyph>
    <TTGlyph name="A" xMin="-37" yMin="0" xMax="880" yMax="1362">
      <contour>
        <pt x="619" y="1362" on="1"/>
        <pt x="776" y="1362" on="1"/>
        <pt x="880" y="0" on="1"/>
        <pt x="714" y="0" on="1"/>
        <pt x="692" y="386" on="1"/>
        <pt x="299" y="386" on="1"/>
        <pt x="116" y="0" on="1"/>
        <pt x="-37" y="0" on="1"/>
      </contour>
      <contour>
        <pt x="684" y="522" on="1"/>
        <pt x="651" y="1129" on="1"/>
        <pt x="363" y="522" on="1"/>
      </contour>
    </TTGlyph>
    <TTGlyph name="A.hex" xMin="-37" yMin="0" xMax="880" yMax="1210">
      <contour>
        <pt x="589" y="1210" on="1"/>
        <pt x="746" y="1210" on="1"/>
        <pt x="880" y="0" on="1"/>
        <pt x="714" y="0" on="1"/>
        <pt x="686" y="310" on="1"/>
        <pt x="275" y="310" on="1"/>
        <pt x="117" y="0" on="1"/>
        <pt x="-37" y="0" on="1"/>
      </contour>
      <contour>
        <pt x="673" y="446" on="1"/>
        <pt x="624" y="990" on="1"/>
        <pt x="344" y="446" on="1"/>
      </contour>
    </TTGlyph>
    <TTGlyph name="Aacute" xMin="-143" yMin="0" xMax="1006" yMax="1870">
      <component glyphName="A" x="-106" y="0" flags="0x400"/>
      <component glyphName="acutecomb.case" x="-106" y="0" flags="0x0"/>
    </TTGlyph>
    <TTGlyph name="Abreve" xMin="-143" yMin="0" xMax="972" yMax="1820">
      <component glyphName="A" x="-106" y="0" flags="0x400"/>
      <component glyphName="uni0306.case" x="-106" y="0" flags="0x0"/>
    </TTGlyph>
    <TTGlyph name="Acircumflex" xMin="-143" yMin="0" xMax="926" yMax="1870">
      <component glyphName="A" x="-106" y="0" flags="0x400"/>
      <component glyphName="uni0302.case" x="-106" y="0" flags="0x0"/>
    </TTGlyph>
    <TTGlyph name="Adieresis" xMin="-143" yMin="0" xMax="957" yMax="1751">
      <component glyphName="A" x="-106" y="0" flags="0x400"/>
      <component glyphName="uni0308.case" x="-106" y="0" flags="0x0"/>
    </TTGlyph>
    <TTGlyph name="Agrave" xMin="-143" yMin="0" xMax="774" yMax="1870">
      <component glyphName="A" x="-106" y="0" flags="0x400"/>
      <component glyphName="gravecomb.case" x="-106" y="0" flags="0x0"/>
    </TTGlyph>
    <TTGlyph name="Amacron" xMin="-143" yMin="0" xMax="953" yMax="1710">
      <component glyphName="A" x="-106" y="0" flags="0x400"/>
      <component glyphName="uni0304.case" x="-106" y="0" flags="0x0"/>
    </TTGlyph>
    <TTGlyph name="Aogonek" xMin="-37" yMin="-303" xMax="886" yMax="1362">
      <contour>
        <pt x="647" y="-303" on="0"/>
        <pt x="557" y="-239" on="0"/>
        <pt x="557" y="-180" on="1"/>
        <pt x="557" y="-171" on="0"/>
        <pt x="561" y="-147" on="1"/>
        <pt x="578" y="-56" on="0"/>
        <pt x="710" y="4" on="1"/>
        <pt x="692" y="386" on="1"/>
        <pt x="299" y="386" on="1"/>
        <pt x="116" y="0" on="1"/>
        <pt x="-37" y="0" on="1"/>
        <pt x="619" y="1362" on="1"/>
        <pt x="776" y="1362" on="1"/>
        <pt x="886" y="-2" on="1"/>
        <pt x="814" y="-20" on="0"/>
        <pt x="729" y="-91" on="0"/>
        <pt x="721" y="-129" on="1"/>
        <pt x="720" y="-132" on="0"/>
        <pt x="720" y="-139" on="1"/>
        <pt x="720" y="-153" on="0"/>
        <pt x="744" y="-166" on="0"/>
        <pt x="771" y="-166" on="1"/>
        <pt x="808" y="-166" on="0"/>
        <pt x="850" y="-156" on="1"/>
        <pt x="855" y="-284" on="1"/>
        <pt x="789" y="-303" on="0"/>
        <pt x="727" y="-303" on="1"/>
      </contour>
      <contour>
        <pt x="684" y="522" on="1"/>
        <pt x="651" y="1129" on="1"/>
        <pt x="363" y="522" on="1"/>
      </contour>
    </TTGlyph>
    <TTGlyph name="Aring" xMin="-143" yMin="0" xMax="898" yMax="1902">
      <component glyphName="A" x="-106" y="0" flags="0x400"/>
      <component glyphName="uni030A.case" x="-106" y="0" flags="0x0"/>
    </TTGlyph>
    <TTGlyph name="Atilde" xMin="-143" yMin="0" xMax="999" yMax="1791">
      <component glyphName="A" x="-106" y="0" flags="0x400"/>
      <component glyphName="tildecomb.case" x="-106" y="0" flags="0x0"/>
    </TTGlyph>
    <TTGlyph name="B" xMin="45" yMin="0" xMax="999" yMax="1362">
      <contour>
        <pt x="318" y="1362" on="1"/>
        <pt x="615" y="1362" on="1"/>
        <pt x="805" y="1362" on="0"/>
        <pt x="999" y="1215" on="0"/>
        <pt x="999" y="1083" on="1"/>
        <pt x="999" y="1044" on="0"/>
        <pt x="990" y="1000" on="1"/>
        <pt x="969" y="895" on="0"/>
        <pt x="831" y="736" on="0"/>
        <pt x="721" y="692" on="1"/>
        <pt x="804" y="661" on="0"/>
        <pt x="895" y="526" on="0"/>
        <pt x="895" y="431" on="1"/>
        <pt x="895" y="390" on="0"/>
        <pt x="886" y="345" on="1"/>
        <pt x="854" y="181" on="0"/>
        <pt x="598" y="0" on="0"/>
        <pt x="379" y="0" on="1"/>
        <pt x="45" y="0" on="1"/>
      </contour>
      <contour>
        <pt x="540" y="132" on="0"/>
        <pt x="712" y="271" on="0"/>
        <pt x="736" y="392" on="1"/>
        <pt x="743" y="431" on="0"/>
        <pt x="743" y="453" on="1"/>
        <pt x="743" y="536" on="0"/>
        <pt x="628" y="620" on="0"/>
        <pt x="517" y="620" on="1"/>
        <pt x="321" y="620" on="1"/>
        <pt x="223" y="132" on="1"/>
        <pt x="399" y="132" on="1"/>
      </contour>
      <contour>
        <pt x="638" y="756" on="0"/>
        <pt x="809" y="884" on="0"/>
        <pt x="833" y="1007" on="1"/>
        <pt x="839" y="1039" on="0"/>
        <pt x="839" y="1066" on="1"/>
        <pt x="839" y="1229" on="0"/>
        <pt x="603" y="1229" on="1"/>
        <pt x="443" y="1229" on="1"/>
        <pt x="348" y="756" on="1"/>
        <pt x="505" y="756" on="1"/>
      </contour>
    </TTGlyph>
    <TTGlyph name="B.hex" xMin="45" yMin="0" xMax="974" yMax="1210">
      <contour>
        <pt x="287" y="1210" on="1"/>
        <pt x="585" y="1210" on="1"/>
        <pt x="777" y="1210" on="0"/>
        <pt x="974" y="1076" on="0"/>
        <pt x="974" y="955" on="1"/>
        <pt x="974" y="920" on="0"/>
        <pt x="967" y="886" on="1"/>
        <pt x="950" y="796" on="0"/>
        <pt x="821" y="657" on="0"/>
        <pt x="716" y="617" on="1"/>
        <pt x="797" y="587" on="0"/>
        <pt x="886" y="464" on="0"/>
        <pt x="886" y="378" on="1"/>
        <pt x="886" y="342" on="0"/>
        <pt x="879" y="308" on="1"/>
        <pt x="850" y="161" on="0"/>
        <pt x="598" y="0" on="0"/>
        <pt x="379" y="0" on="1"/>
        <pt x="45" y="0" on="1"/>
      </contour>
      <contour>
        <pt x="540" y="132" on="0"/>
        <pt x="708" y="250" on="0"/>
        <pt x="729" y="354" on="1"/>
        <pt x="734" y="381" on="0"/>
        <pt x="734" y="398" on="1"/>
        <pt x="734" y="472" on="0"/>
        <pt x="616" y="545" on="0"/>
        <pt x="502" y="545" on="1"/>
        <pt x="306" y="545" on="1"/>
        <pt x="223" y="132" on="1"/>
        <pt x="399" y="132" on="1"/>
      </contour>
      <contour>
        <pt x="623" y="681" on="0"/>
        <pt x="790" y="788" on="0"/>
        <pt x="811" y="893" on="1"/>
        <pt x="815" y="913" on="0"/>
        <pt x="815" y="935" on="1"/>
        <pt x="815" y="1078" on="0"/>
        <pt x="573" y="1078" on="1"/>
        <pt x="413" y="1078" on="1"/>
        <pt x="333" y="681" on="1"/>
        <pt x="490" y="681" on="1"/>
      </contour>
    </TTGlyph>
    <TTGlyph name="C" xMin="128" yMin="-21" xMax="1046" yMax="1382">
      <contour>
        <pt x="298" y="-21" on="0"/>
        <pt x="128" y="186" on="0"/>
        <pt x="128" y="395" on="1"/>
        <pt x="128" y="526" on="0"/>
        <pt x="162" y="693" on="1"/>
        <pt x="231" y="1039" on="0"/>
        <pt x="526" y="1382" on="0"/>
        <pt x="742" y="1382" on="1"/>
        <pt x="832" y="1382" on="0"/>
        <pt x="977" y="1319" on="0"/>
        <pt x="1046" y="1264" on="1"/>
        <pt x="969" y="1162" on="1"/>
        <pt x="915" y="1200" on="0"/>
        <pt x="801" y="1246" on="0"/>
        <pt x="729" y="1246" on="1"/>
        <pt x="591" y="1246" on="0"/>
        <pt x="376" y="988" on="0"/>
        <pt x="312" y="669" on="1"/>
        <pt x="279" y="506" on="0"/>
        <pt x="279" y="393" on="1"/>
        <pt x="279" y="250" on="0"/>
        <pt x="383" y="115" on="0"/>
        <pt x="489" y="115" on="1"/>
        <pt x="559" y="115" on="0"/>
        <pt x="683" y="163" on="0"/>
        <pt x="770" y="211" on="1"/>
        <pt x="819" y="101" on="1"/>
        <pt x="746" y="58" on="0"/>
        <pt x="647" y="10" on="0"/>
        <pt x="528" y="-21" on="0"/>
        <pt x="456" y="-21" on="1"/>
      </contour>
    </TTGlyph>
    <TTGlyph name="C.hex" xMin="119" yMin="-21" xMax="1016" yMax="1231">
      <contour>
        <pt x="293" y="-21" on="0"/>
        <pt x="119" y="175" on="0"/>
        <pt x="119" y="373" on="1"/>
        <pt x="119" y="479" on="0"/>
        <pt x="146" y="617" on="1"/>
        <pt x="208" y="925" on="0"/>
        <pt x="496" y="1231" on="0"/>
        <pt x="712" y="1231" on="1"/>
        <pt x="802" y="1231" on="0"/>
        <pt x="947" y="1168" on="0"/>
        <pt x="1016" y="1113" on="1"/>
        <pt x="939" y="1011" on="1"/>
        <pt x="886" y="1048" on="0"/>
        <pt x="770" y="1095" on="0"/>
        <pt x="699" y="1095" on="1"/>
        <pt x="561" y="1095" on="0"/>
        <pt x="353" y="870" on="0"/>
        <pt x="297" y="593" on="1"/>
        <pt x="272" y="468" on="0"/>
        <pt x="272" y="374" on="1"/>
        <pt x="272" y="241" on="0"/>
        <pt x="380" y="115" on="0"/>
        <pt x="489" y="115" on="1"/>
        <pt x="559" y="115" on="0"/>
        <pt x="683" y="163" on="0"/>
        <pt x="770" y="211" on="1"/>
        <pt x="819" y="101" on="1"/>
        <pt x="746" y="58" on="0"/>
        <pt x="647" y="10" on="0"/>
        <pt x="528" y="-21" on="0"/>
        <pt x="456" y="-21" on="1"/>
      </contour>
    </TTGlyph>
    <TTGlyph name="Cacute" xMin="22" yMin="-21" xMax="1050" yMax="1870">
      <component glyphName="C" x="-106" y="0" flags="0x400"/>
      <component glyphName="acutecomb.case" x="-62" y="0" flags="0x0"/>
    </TTGlyph>
    <TTGlyph name="Ccaron" xMin="22" yMin="-21" xMax="1053" yMax="1870">
      <component glyphName="C" x="-106" y="0" flags="0x400"/>
      <component glyphName="uni030C.case" x="-62" y="0" flags="0x0"/>
    </TTGlyph>
    <TTGlyph name="Ccedilla" xMin="128" yMin="-303" xMax="1046" yMax="1382">
      <contour>
        <pt x="298" y="-21" on="0"/>
        <pt x="128" y="186" on="0"/>
        <pt x="128" y="395" on="1"/>
        <pt x="128" y="526" on="0"/>
        <pt x="162" y="693" on="1"/>
        <pt x="231" y="1039" on="0"/>
        <pt x="526" y="1382" on="0"/>
        <pt x="742" y="1382" on="1"/>
        <pt x="832" y="1382" on="0"/>
        <pt x="977" y="1319" on="0"/>
        <pt x="1046" y="1264" on="1"/>
        <pt x="969" y="1162" on="1"/>
        <pt x="915" y="1200" on="0"/>
        <pt x="801" y="1246" on="0"/>
        <pt x="729" y="1246" on="1"/>
        <pt x="591" y="1246" on="0"/>
        <pt x="376" y="988" on="0"/>
        <pt x="312" y="669" on="1"/>
        <pt x="279" y="506" on="0"/>
        <pt x="279" y="393" on="1"/>
        <pt x="279" y="250" on="0"/>
        <pt x="383" y="115" on="0"/>
        <pt x="489" y="115" on="1"/>
        <pt x="559" y="115" on="0"/>
        <pt x="683" y="163" on="0"/>
        <pt x="770" y="211" on="1"/>
        <pt x="819" y="101" on="1"/>
        <pt x="753" y="63" on="0"/>
        <pt x="669" y="17" on="0"/>
        <pt x="621" y="-2" on="1"/>
        <pt x="615" y="-41" on="1"/>
        <pt x="611" y="-77" on="0"/>
        <pt x="607" y="-95" on="1"/>
        <pt x="586" y="-199" on="0"/>
        <pt x="439" y="-303" on="0"/>
        <pt x="338" y="-303" on="1"/>
        <pt x="276" y="-303" on="0"/>
        <pt x="211" y="-285" on="1"/>
        <pt x="241" y="-162" on="1"/>
        <pt x="268" y="-166" on="0"/>
        <pt x="313" y="-166" on="1"/>
        <pt x="385" y="-166" on="0"/>
        <pt x="465" y="-103" on="0"/>
        <pt x="478" y="-39" on="1"/>
        <pt x="479" y="-38" on="0"/>
        <pt x="481" y="-23" on="0"/>
        <pt x="485" y="-15" on="1"/>
        <pt x="475" y="-21" on="0"/>
        <pt x="456" y="-21" on="1"/>
      </contour>
    </TTGlyph>
    <TTGlyph name="Ccircumflex" xMin="22" yMin="-21" xMax="970" yMax="1870">
      <component glyphName="C" x="-106" y="0" flags="0x400"/>
      <component glyphName="uni0302.case" x="-62" y="0" flags="0x0"/>
    </TTGlyph>
    <TTGlyph name="Cdotaccent" xMin="22" yMin="-21" xMax="940" yMax="1842">
      <component glyphName="C" x="-106" y="0" flags="0x400"/>
      <component glyphName="uni0307" x="-1" y="303" flags="0x4"/>
    </TTGlyph>
    <TTGlyph name="D" xMin="45" yMin="0" xMax="1012" yMax="1362">
      <contour>
        <pt x="1012" y="1362" on="0"/>
        <pt x="1012" y="941" on="1"/>
        <pt x="1012" y="822" on="0"/>
        <pt x="982" y="673" on="1"/>
        <pt x="938" y="453" on="0"/>
        <pt x="762" y="151" on="0"/>
        <pt x="522" y="0" on="0"/>
        <pt x="379" y="0" on="1"/>
        <pt x="45" y="0" on="1"/>
        <pt x="318" y="1362" on="1"/>
        <pt x="630" y="1362" on="1"/>
      </contour>
      <contour>
        <pt x="442" y="1225" on="1"/>
        <pt x="224" y="136" on="1"/>
        <pt x="404" y="136" on="1"/>
        <pt x="554" y="136" on="0"/>
        <pt x="767" y="395" on="0"/>
        <pt x="826" y="691" on="1"/>
        <pt x="857" y="843" on="0"/>
        <pt x="857" y="950" on="1"/>
        <pt x="857" y="1096" on="0"/>
        <pt x="740" y="1225" on="0"/>
        <pt x="621" y="1225" on="1"/>
      </contour>
    </TTGlyph>
    <TTGlyph name="D.hex" xMin="45" yMin="0" xMax="991" yMax="1210">
      <contour>
        <pt x="991" y="1210" on="0"/>
        <pt x="991" y="817" on="1"/>
        <pt x="991" y="719" on="0"/>
        <pt x="967" y="597" on="1"/>
        <pt x="928" y="401" on="0"/>
        <pt x="759" y="134" on="0"/>
        <pt x="522" y="0" on="0"/>
        <pt x="379" y="0" on="1"/>
        <pt x="45" y="0" on="1"/>
        <pt x="287" y="1210" on="1"/>
        <pt x="600" y="1210" on="1"/>
      </contour>
      <contour>
        <pt x="412" y="1074" on="1"/>
        <pt x="224" y="136" on="1"/>
        <pt x="404" y="136" on="1"/>
        <pt x="554" y="136" on="0"/>
        <pt x="760" y="360" on="0"/>
        <pt x="811" y="615" on="1"/>
        <pt x="835" y="735" on="0"/>
        <pt x="835" y="819" on="1"/>
        <pt x="835" y="954" on="0"/>
        <pt x="714" y="1074" on="0"/>
        <pt x="591" y="1074" on="1"/>
      </contour>
    </TTGlyph>
    <TTGlyph name="Dcaron" xMin="-61" yMin="0" xMax="994" yMax="1870">
      <component glyphName="D" x="-106" y="0" flags="0x400"/>
      <component glyphName="uni030C.case" x="-121" y="0" flags="0x0"/>
    </TTGlyph>
    <TTGlyph name="Dcroat" xMin="-88" yMin="0" xMax="906" yMax="1362">
      <component glyphName="Eth" x="-106" y="0" flags="0x400"/>
    </TTGlyph>
    <TTGlyph name="E" xMin="68" yMin="0" xMax="1050" yMax="1362">
      <contour>
        <pt x="341" y="1362" on="1"/>
        <pt x="1050" y="1362" on="1"/>
        <pt x="1022" y="1225" on="1"/>
        <pt x="464" y="1225" on="1"/>
        <pt x="370" y="753" on="1"/>
        <pt x="860" y="753" on="1"/>
        <pt x="832" y="616" on="1"/>
        <pt x="342" y="616" on="1"/>
        <pt x="246" y="136" on="1"/>
        <pt x="812" y="136" on="1"/>
        <pt x="785" y="0" on="1"/>
        <pt x="68" y="0" on="1"/>
      </contour>
    </TTGlyph>
    <TTGlyph name="E.hex" xMin="68" yMin="0" xMax="1019" yMax="1210">
      <contour>
        <pt x="310" y="1210" on="1"/>
        <pt x="1019" y="1210" on="1"/>
        <pt x="992" y="1074" on="1"/>
        <pt x="434" y="1074" on="1"/>
        <pt x="355" y="677" on="1"/>
        <pt x="845" y="677" on="1"/>
        <pt x="817" y="541" on="1"/>
        <pt x="327" y="541" on="1"/>
        <pt x="246" y="136" on="1"/>
        <pt x="812" y="136" on="1"/>
        <pt x="785" y="0" on="1"/>
        <pt x="68" y="0" on="1"/>
      </contour>
    </TTGlyph>
    <TTGlyph name="Eacute" xMin="-38" yMin="0" xMax="1016" yMax="1870">
      <component glyphName="E" x="-106" y="0" flags="0x400"/>
      <component glyphName="acutecomb.case" x="-96" y="0" flags="0x0"/>
    </TTGlyph>
    <TTGlyph name="Ebreve" xMin="-38" yMin="0" xMax="982" yMax="1820">
      <component glyphName="E" x="-106" y="0" flags="0x400"/>
      <component glyphName="uni0306.case" x="-96" y="0" flags="0x0"/>
    </TTGlyph>
    <TTGlyph name="Ecaron" xMin="-38" yMin="0" xMax="1019" yMax="1870">
      <component glyphName="E" x="-106" y="0" flags="0x400"/>
      <component glyphName="uni030C.case" x="-96" y="0" flags="0x0"/>
    </TTGlyph>
    <TTGlyph name="Ecircumflex" xMin="-38" yMin="0" xMax="944" yMax="1870">
      <component glyphName="E" x="-106" y="0" flags="0x400"/>
      <component glyphName="uni0302.case" x="-96" y="0" flags="0x0"/>
    </TTGlyph>
    <TTGlyph name="Edieresis" xMin="-38" yMin="0" xMax="967" yMax="1751">
      <component glyphName="E" x="-106" y="0" flags="0x400"/>
      <component glyphName="uni0308.case" x="-96" y="0" flags="0x0"/>
    </TTGlyph>
    <TTGlyph name="Edotaccent" xMin="-38" yMin="0" xMax="944" yMax="1842">
      <component glyphName="E" x="-106" y="0" flags="0x400"/>
      <component glyphName="uni0307" x="-35" y="303" flags="0x4"/>
    </TTGlyph>
    <TTGlyph name="Egrave" xMin="-38" yMin="0" xMax="944" yMax="1870">
      <component glyphName="E" x="-106" y="0" flags="0x400"/>
      <component glyphName="gravecomb.case" x="-96" y="0" flags="0x0"/>
    </TTGlyph>
    <TTGlyph name="Emacron" xMin="-38" yMin="0" xMax="963" yMax="1710">
      <component glyphName="E" x="-106" y="0" flags="0x400"/>
      <component glyphName="uni0304.case" x="-96" y="0" flags="0x0"/>
    </TTGlyph>
    <TTGlyph name="Eogonek" xMin="68" yMin="-303" xMax="1050" yMax="1362">
      <contour>
        <pt x="341" y="1362" on="1"/>
        <pt x="1050" y="1362" on="1"/>
        <pt x="1022" y="1225" on="1"/>
        <pt x="464" y="1225" on="1"/>
        <pt x="370" y="753" on="1"/>
        <pt x="860" y="753" on="1"/>
        <pt x="832" y="616" on="1"/>
        <pt x="342" y="616" on="1"/>
        <pt x="246" y="136" on="1"/>
        <pt x="812" y="136" on="1"/>
        <pt x="790" y="-2" on="1"/>
        <pt x="718" y="-20" on="0"/>
        <pt x="633" y="-91" on="0"/>
        <pt x="625" y="-129" on="1"/>
        <pt x="624" y="-132" on="0"/>
        <pt x="624" y="-139" on="1"/>
        <pt x="624" y="-153" on="0"/>
        <pt x="648" y="-166" on="0"/>
        <pt x="675" y="-166" on="1"/>
        <pt x="712" y="-166" on="0"/>
        <pt x="754" y="-156" on="1"/>
        <pt x="759" y="-284" on="1"/>
        <pt x="693" y="-303" on="0"/>
        <pt x="631" y="-303" on="1"/>
        <pt x="551" y="-303" on="0"/>
        <pt x="461" y="-239" on="0"/>
        <pt x="461" y="-180" on="1"/>
        <pt x="461" y="-171" on="0"/>
        <pt x="465" y="-147" on="1"/>
        <pt x="482" y="-58" on="0"/>
        <pt x="610" y="3" on="1"/>
        <pt x="68" y="0" on="1"/>
      </contour>
    </TTGlyph>
    <TTGlyph name="Eth" xMin="18" yMin="0" xMax="1012" yMax="1362">
      <contour>
        <pt x="45" y="756" on="1"/>
        <pt x="196" y="756" on="1"/>
        <pt x="318" y="1362" on="1"/>
        <pt x="630" y="1362" on="1"/>
        <pt x="1012" y="1362" on="0"/>
        <pt x="1012" y="941" on="1"/>
        <pt x="1012" y="822" on="0"/>
        <pt x="982" y="673" on="1"/>
        <pt x="938" y="453" on="0"/>
        <pt x="762" y="151" on="0"/>
        <pt x="522" y="0" on="0"/>
        <pt x="379" y="0" on="1"/>
        <pt x="45" y="0" on="1"/>
        <pt x="169" y="620" on="1"/>
        <pt x="18" y="620" on="1"/>
      </contour>
      <contour>
        <pt x="442" y="1225" on="1"/>
        <pt x="348" y="756" on="1"/>
        <pt x="609" y="756" on="1"/>
        <pt x="582" y="620" on="1"/>
        <pt x="321" y="620" on="1"/>
        <pt x="224" y="136" on="1"/>
        <pt x="404" y="136" on="1"/>
        <pt x="554" y="136" on="0"/>
        <pt x="767" y="395" on="0"/>
        <pt x="826" y="691" on="1"/>
        <pt x="857" y="843" on="0"/>
        <pt x="857" y="950" on="1"/>
        <pt x="857" y="1096" on="0"/>
        <pt x="740" y="1225" on="0"/>
        <pt x="621" y="1225" on="1"/>
      </contour>
    </TTGlyph>
    <TTGlyph name="F" xMin="83" yMin="0" xMax="1075" yMax="1362">
      <contour>
        <pt x="356" y="1362" on="1"/>
        <pt x="1075" y="1362" on="1"/>
        <pt x="1047" y="1225" on="1"/>
        <pt x="479" y="1225" on="1"/>
        <pt x="380" y="730" on="1"/>
        <pt x="796" y="730" on="1"/>
        <pt x="769" y="594" on="1"/>
        <pt x="353" y="594" on="1"/>
        <pt x="234" y="0" on="1"/>
        <pt x="83" y="0" on="1"/>
      </contour>
    </TTGlyph>
    <TTGlyph name="F.hex" xMin="83" yMin="0" xMax="1044" yMax="1210">
      <contour>
        <pt x="325" y="1210" on="1"/>
        <pt x="1044" y="1210" on="1"/>
        <pt x="1017" y="1074" on="1"/>
        <pt x="449" y="1074" on="1"/>
        <pt x="365" y="654" on="1"/>
        <pt x="781" y="654" on="1"/>
        <pt x="754" y="518" on="1"/>
        <pt x="338" y="518" on="1"/>
        <pt x="234" y="0" on="1"/>
        <pt x="83" y="0" on="1"/>
      </contour>
    </TTGlyph>
    <TTGlyph name="G" xMin="129" yMin="-21" xMax="1046" yMax="1382">
      <contour>
        <pt x="309" y="-21" on="0"/>
        <pt x="129" y="187" on="0"/>
        <pt x="129" y="399" on="1"/>
        <pt x="129" y="532" on="0"/>
        <pt x="162" y="693" on="1"/>
        <pt x="231" y="1039" on="0"/>
        <pt x="528" y="1382" on="0"/>
        <pt x="750" y="1382" on="1"/>
        <pt x="834" y="1382" on="0"/>
        <pt x="978" y="1336" on="0"/>
        <pt x="1046" y="1294" on="1"/>
        <pt x="978" y="1181" on="1"/>
        <pt x="922" y="1211" on="0"/>
        <pt x="808" y="1246" on="0"/>
        <pt x="744" y="1246" on="1"/>
        <pt x="596" y="1246" on="0"/>
        <pt x="376" y="990" on="0"/>
        <pt x="312" y="669" on="1"/>
        <pt x="280" y="512" on="0"/>
        <pt x="280" y="396" on="1"/>
        <pt x="280" y="251" on="0"/>
        <pt x="390" y="115" on="0"/>
        <pt x="503" y="115" on="1"/>
        <pt x="581" y="115" on="0"/>
        <pt x="673" y="140" on="1"/>
        <pt x="744" y="469" on="1"/>
        <pt x="506" y="469" on="1"/>
        <pt x="533" y="605" on="1"/>
        <pt x="923" y="605" on="1"/>
        <pt x="816" y="45" on="1"/>
        <pt x="645" y="-21" on="0"/>
        <pt x="482" y="-21" on="1"/>
      </contour>
    </TTGlyph>
    <TTGlyph name="Gbreve" xMin="23" yMin="-21" xMax="1032" yMax="1896">
      <component glyphName="G" x="-106" y="0" flags="0x400"/>
      <component glyphName="uni0306" x="-1" y="303" flags="0x4"/>
    </TTGlyph>
    <TTGlyph name="Gcaron" xMin="23" yMin="-21" xMax="1053" yMax="1870">
      <component glyphName="G" x="-106" y="0" flags="0x400"/>
      <component glyphName="uni030C.case" x="-62" y="0" flags="0x0"/>
    </TTGlyph>
    <TTGlyph name="Gcircumflex" xMin="23" yMin="-21" xMax="970" yMax="1870">
      <component glyphName="G" x="-106" y="0" flags="0x400"/>
      <component glyphName="uni0302.case" x="-62" y="0" flags="0x0"/>
    </TTGlyph>
    <TTGlyph name="Gdotaccent" xMin="23" yMin="-21" xMax="940" yMax="1842">
      <component glyphName="G" x="-106" y="0" flags="0x400"/>
      <component glyphName="uni0307" x="-1" y="303" flags="0x4"/>
    </TTGlyph>
    <TTGlyph name="H" xMin="45" yMin="0" xMax="1075" yMax="1362">
      <contour>
        <pt x="318" y="1362" on="1"/>
        <pt x="470" y="1362" on="1"/>
        <pt x="348" y="756" on="1"/>
        <pt x="801" y="756" on="1"/>
        <pt x="923" y="1362" on="1"/>
        <pt x="1075" y="1362" on="1"/>
        <pt x="802" y="0" on="1"/>
        <pt x="650" y="0" on="1"/>
        <pt x="774" y="620" on="1"/>
        <pt x="321" y="620" on="1"/>
        <pt x="197" y="0" on="1"/>
        <pt x="45" y="0" on="1"/>
      </contour>
    </TTGlyph>
    <TTGlyph name="Hbar" xMin="45" yMin="0" xMax="1195" yMax="1362">
      <contour>
        <pt x="260" y="1074" on="1"/>
        <pt x="109" y="1074" on="1"/>
        <pt x="136" y="1210" on="1"/>
        <pt x="287" y="1210" on="1"/>
        <pt x="318" y="1362" on="1"/>
        <pt x="470" y="1362" on="1"/>
        <pt x="439" y="1210" on="1"/>
        <pt x="892" y="1210" on="1"/>
        <pt x="923" y="1362" on="1"/>
        <pt x="1075" y="1362" on="1"/>
        <pt x="1044" y="1210" on="1"/>
        <pt x="1195" y="1210" on="1"/>
        <pt x="1168" y="1074" on="1"/>
        <pt x="1017" y="1074" on="1"/>
        <pt x="802" y="0" on="1"/>
        <pt x="650" y="0" on="1"/>
        <pt x="774" y="620" on="1"/>
        <pt x="321" y="620" on="1"/>
        <pt x="197" y="0" on="1"/>
        <pt x="45" y="0" on="1"/>
      </contour>
      <contour>
        <pt x="801" y="756" on="1"/>
        <pt x="865" y="1074" on="1"/>
        <pt x="412" y="1074" on="1"/>
        <pt x="348" y="756" on="1"/>
      </contour>
    </TTGlyph>
    <TTGlyph name="Hcircumflex" xMin="-61" yMin="0" xMax="969" yMax="1870">
      <component glyphName="H" x="-106" y="0" flags="0x400"/>
      <component glyphName="uni0302.case" x="-106" y="0" flags="0x0"/>
    </TTGlyph>
    <TTGlyph name="I" xMin="45" yMin="0" xMax="923" yMax="1362">
      <contour>
        <pt x="69" y="121" on="1"/>
        <pt x="299" y="136" on="1"/>
        <pt x="517" y="1225" on="1"/>
        <pt x="293" y="1241" on="1"/>
        <pt x="318" y="1362" on="1"/>
        <pt x="923" y="1362" on="1"/>
        <pt x="898" y="1241" on="1"/>
        <pt x="668" y="1225" on="1"/>
        <pt x="450" y="136" on="1"/>
        <pt x="674" y="121" on="1"/>
        <pt x="650" y="0" on="1"/>
        <pt x="45" y="0" on="1"/>
      </contour>
    </TTGlyph>
    <TTGlyph name="Iacute" xMin="-61" yMin="0" xMax="931" yMax="1870">
      <component glyphName="I" x="-106" y="0" flags="0x400"/>
      <component glyphName="acutecomb.case" x="-181" y="0" flags="0x0"/>
    </TTGlyph>
    <TTGlyph name="Ibreve" xMin="-61" yMin="0" xMax="897" yMax="1820">
      <component glyphName="I" x="-106" y="0" flags="0x400"/>
      <component glyphName="uni0306.case" x="-181" y="0" flags="0x0"/>
    </TTGlyph>
    <TTGlyph name="Icircumflex" xMin="-61" yMin="0" xMax="851" yMax="1870">
      <component glyphName="I" x="-106" y="0" flags="0x400"/>
      <component glyphName="uni0302.case" x="-181" y="0" flags="0x0"/>
    </TTGlyph>
    <TTGlyph name="Idieresis" xMin="-61" yMin="0" xMax="882" yMax="1751">
      <component glyphName="I" x="-106" y="0" flags="0x400"/>
      <component glyphName="uni0308.case" x="-181" y="0" flags="0x0"/>
    </TTGlyph>
    <TTGlyph name="Idotaccent" xMin="-61" yMin="0" xMax="817" yMax="1842">
      <component glyphName="I" x="-106" y="0" flags="0x400"/>
      <component glyphName="uni0307" x="-120" y="303" flags="0x4"/>
    </TTGlyph>
    <TTGlyph name="Igrave" xMin="-61" yMin="0" xMax="817" yMax="1870">
      <component glyphName="I" x="-106" y="0" flags="0x400"/>
      <component glyphName="gravecomb.case" x="-181" y="0" flags="0x0"/>
    </TTGlyph>
    <TTGlyph name="Imacron" xMin="-61" yMin="0" xMax="878" yMax="1710">
      <component glyphName="I" x="-106" y="0" flags="0x400"/>
      <component glyphName="uni0304.case" x="-181" y="0" flags="0x0"/>
    </TTGlyph>
    <TTGlyph name="Iogonek" xMin="45" yMin="-303" xMax="923" yMax="1362">
      <contour>
        <pt x="69" y="121" on="1"/>
        <pt x="299" y="136" on="1"/>
        <pt x="517" y="1225" on="1"/>
        <pt x="293" y="1241" on="1"/>
        <pt x="318" y="1362" on="1"/>
        <pt x="923" y="1362" on="1"/>
        <pt x="898" y="1241" on="1"/>
        <pt x="668" y="1225" on="1"/>
        <pt x="450" y="136" on="1"/>
        <pt x="674" y="121" on="1"/>
        <pt x="655" y="-2" on="1"/>
        <pt x="583" y="-20" on="0"/>
        <pt x="498" y="-91" on="0"/>
        <pt x="490" y="-129" on="1"/>
        <pt x="489" y="-132" on="0"/>
        <pt x="489" y="-139" on="1"/>
        <pt x="489" y="-153" on="0"/>
        <pt x="513" y="-166" on="0"/>
        <pt x="540" y="-166" on="1"/>
        <pt x="577" y="-166" on="0"/>
        <pt x="619" y="-156" on="1"/>
        <pt x="624" y="-284" on="1"/>
        <pt x="558" y="-303" on="0"/>
        <pt x="496" y="-303" on="1"/>
        <pt x="416" y="-303" on="0"/>
        <pt x="326" y="-239" on="0"/>
        <pt x="326" y="-180" on="1"/>
        <pt x="326" y="-171" on="0"/>
        <pt x="330" y="-147" on="1"/>
        <pt x="347" y="-58" on="0"/>
        <pt x="475" y="3" on="1"/>
        <pt x="45" y="0" on="1"/>
      </contour>
    </TTGlyph>
    <TTGlyph name="Itilde" xMin="-61" yMin="0" xMax="924" yMax="1791">
      <component glyphName="I" x="-106" y="0" flags="0x400"/>
      <component glyphName="tildecomb.case" x="-181" y="0" flags="0x0"/>
    </TTGlyph>
    <TTGlyph name="J" xMin="-15" yMin="-23" xMax="939" yMax="1362">
      <contour>
        <pt x="196" y="-23" on="0"/>
        <pt x="44" y="86" on="0"/>
        <pt x="-15" y="194" on="1"/>
        <pt x="99" y="267" on="1"/>
        <pt x="145" y="190" on="0"/>
        <pt x="243" y="113" on="0"/>
        <pt x="313" y="113" on="1"/>
        <pt x="417" y="113" on="0"/>
        <pt x="564" y="251" on="0"/>
        <pt x="590" y="380" on="1"/>
        <pt x="759" y="1225" on="1"/>
        <pt x="336" y="1225" on="1"/>
        <pt x="364" y="1362" on="1"/>
        <pt x="939" y="1362" on="1"/>
        <pt x="742" y="378" on="1"/>
        <pt x="717" y="253" on="0"/>
        <pt x="594" y="72" on="0"/>
        <pt x="417" y="-23" on="0"/>
        <pt x="312" y="-23" on="1"/>
      </contour>
    </TTGlyph>
    <TTGlyph name="Jcircumflex" xMin="-121" yMin="-23" xMax="881" yMax="1870">
      <component glyphName="J" x="-106" y="0" flags="0x400"/>
      <component glyphName="uni0302.case" x="-151" y="0" flags="0x0"/>
    </TTGlyph>
    <TTGlyph name="K" xMin="45" yMin="0" xMax="1063" yMax="1362">
      <contour>
        <pt x="45" y="0" on="1"/>
        <pt x="318" y="1362" on="1"/>
        <pt x="470" y="1362" on="1"/>
        <pt x="344" y="744" on="1"/>
        <pt x="884" y="1362" on="1"/>
        <pt x="1063" y="1362" on="1"/>
        <pt x="473" y="708" on="1"/>
        <pt x="817" y="0" on="1"/>
        <pt x="632" y="0" on="1"/>
        <pt x="329" y="648" on="1"/>
        <pt x="197" y="0" on="1"/>
      </contour>
    </TTGlyph>
    <TTGlyph name="L" xMin="45" yMin="0" xMax="753" yMax="1362">
      <contour>
        <pt x="318" y="1362" on="1"/>
        <pt x="470" y="1362" on="1"/>
        <pt x="224" y="136" on="1"/>
        <pt x="753" y="136" on="1"/>
        <pt x="726" y="0" on="1"/>
        <pt x="45" y="0" on="1"/>
      </contour>
    </TTGlyph>
    <TTGlyph name="Lacute" xMin="-61" yMin="0" xMax="723" yMax="1870">
      <component glyphName="L" x="-106" y="0" flags="0x400"/>
      <component glyphName="acutecomb.case" x="-389" y="0" flags="0x0"/>
    </TTGlyph>
    <TTGlyph name="M" xMin="30" yMin="0" xMax="1297" yMax="1362">
      <contour>
        <pt x="624" y="225" on="1"/>
        <pt x="1083" y="1362" on="1"/>
        <pt x="1297" y="1362" on="1"/>
        <pt x="1119" y="0" on="1"/>
        <pt x="976" y="0" on="1"/>
        <pt x="1123" y="1120" on="1"/>
        <pt x="672" y="0" on="1"/>
        <pt x="479" y="0" on="1"/>
        <pt x="476" y="1119" on="1"/>
        <pt x="174" y="0" on="1"/>
        <pt x="30" y="0" on="1"/>
        <pt x="397" y="1362" on="1"/>
        <pt x="622" y="1362" on="1"/>
      </contour>
    </TTGlyph>
    <TTGlyph name="N" xMin="45" yMin="0" xMax="1075" yMax="1362">
      <contour>
        <pt x="318" y="1362" on="1"/>
        <pt x="485" y="1362" on="1"/>
        <pt x="739" y="393" on="1"/>
        <pt x="935" y="1362" on="1"/>
        <pt x="1075" y="1362" on="1"/>
        <pt x="802" y="0" on="1"/>
        <pt x="679" y="0" on="1"/>
        <pt x="400" y="1063" on="1"/>
        <pt x="185" y="0" on="1"/>
        <pt x="45" y="0" on="1"/>
      </contour>
    </TTGlyph>
    <TTGlyph name="Nacute" xMin="-61" yMin="0" xMax="1006" yMax="1870">
      <component glyphName="N" x="-106" y="0" flags="0x400"/>
      <component glyphName="acutecomb.case" x="-106" y="0" flags="0x0"/>
    </TTGlyph>
    <TTGlyph name="Ncaron" xMin="-61" yMin="0" xMax="1009" yMax="1870">
      <component glyphName="N" x="-106" y="0" flags="0x400"/>
      <component glyphName="uni030C.case" x="-106" y="0" flags="0x0"/>
    </TTGlyph>
    <TTGlyph name="Ntilde" xMin="-61" yMin="0" xMax="999" yMax="1791">
      <component glyphName="N" x="-106" y="0" flags="0x400"/>
      <component glyphName="tildecomb.case" x="-106" y="0" flags="0x0"/>
    </TTGlyph>
    <TTGlyph name="O" xMin="100" yMin="-19" xMax="1021" yMax="1380">
      <contour>
        <pt x="100" y="-19" on="0"/>
        <pt x="100" y="386" on="1"/>
        <pt x="100" y="515" on="0"/>
        <pt x="135" y="693" on="1"/>
        <pt x="202" y="1032" on="0"/>
        <pt x="484" y="1380" on="0"/>
        <pt x="689" y="1380" on="1"/>
        <pt x="859" y="1380" on="0"/>
        <pt x="1021" y="1179" on="0"/>
        <pt x="1021" y="982" on="1"/>
        <pt x="1021" y="846" on="0"/>
        <pt x="985" y="669" on="1"/>
        <pt x="940" y="443" on="0"/>
        <pt x="776" y="135" on="0"/>
        <pt x="557" y="-19" on="0"/>
        <pt x="430" y="-19" on="1"/>
      </contour>
      <contour>
        <pt x="574" y="113" on="0"/>
        <pt x="769" y="384" on="0"/>
        <pt x="831" y="693" on="1"/>
        <pt x="869" y="882" on="0"/>
        <pt x="869" y="1004" on="1"/>
        <pt x="869" y="1133" on="0"/>
        <pt x="778" y="1248" on="0"/>
        <pt x="683" y="1248" on="1"/>
        <pt x="586" y="1248" on="0"/>
        <pt x="442" y="1136" on="0"/>
        <pt x="332" y="882" on="0"/>
        <pt x="289" y="669" on="1"/>
        <pt x="253" y="486" on="0"/>
        <pt x="253" y="371" on="1"/>
        <pt x="253" y="235" on="0"/>
        <pt x="345" y="113" on="0"/>
        <pt x="435" y="113" on="1"/>
      </contour>
    </TTGlyph>
    <TTGlyph name="Oacute" xMin="-6" yMin="-19" xMax="1006" yMax="1870">
      <component glyphName="O" x="-106" y="0" flags="0x400"/>
      <component glyphName="acutecomb.case" x="-106" y="0" flags="0x0"/>
    </TTGlyph>
    <TTGlyph name="Obreve" xMin="-6" yMin="-19" xMax="972" yMax="1820">
      <component glyphName="O" x="-106" y="0" flags="0x400"/>
      <component glyphName="uni0306.case" x="-106" y="0" flags="0x0"/>
    </TTGlyph>
    <TTGlyph name="Ocircumflex" xMin="-6" yMin="-19" xMax="926" yMax="1870">
      <component glyphName="O" x="-106" y="0" flags="0x400"/>
      <component glyphName="uni0302.case" x="-106" y="0" flags="0x0"/>
    </TTGlyph>
    <TTGlyph name="Odieresis" xMin="-6" yMin="-19" xMax="957" yMax="1751">
      <component glyphName="O" x="-106" y="0" flags="0x400"/>
      <component glyphName="uni0308.case" x="-106" y="0" flags="0x0"/>
    </TTGlyph>
    <TTGlyph name="Ograve" xMin="-6" yMin="-19" xMax="915" yMax="1870">
      <component glyphName="O" x="-106" y="0" flags="0x400"/>
      <component glyphName="gravecomb.case" x="-106" y="0" flags="0x0"/>
    </TTGlyph>
    <TTGlyph name="Omacron" xMin="-6" yMin="-19" xMax="953" yMax="1710">
      <component glyphName="O" x="-106" y="0" flags="0x400"/>
      <component glyphName="uni0304.case" x="-106" y="0" flags="0x0"/>
    </TTGlyph>
    <TTGlyph name="Otilde" xMin="-6" yMin="-19" xMax="999" yMax="1791">
      <component glyphName="O" x="-106" y="0" flags="0x400"/>
      <component glyphName="tildecomb.case" x="-106" y="0" flags="0x0"/>
    </TTGlyph>
    <TTGlyph name="P" xMin="45" yMin="0" xMax="989" yMax="1362">
      <contour>
        <pt x="318" y="1362" on="1"/>
        <pt x="619" y="1362" on="1"/>
        <pt x="803" y="1362" on="0"/>
        <pt x="989" y="1189" on="0"/>
        <pt x="989" y="1033" on="1"/>
        <pt x="989" y="972" on="0"/>
        <pt x="976" y="907" on="1"/>
        <pt x="950" y="775" on="0"/>
        <pt x="810" y="578" on="0"/>
        <pt x="585" y="469" on="0"/>
        <pt x="435" y="469" on="1"/>
        <pt x="367" y="469" on="0"/>
        <pt x="298" y="478" on="1"/>
        <pt x="197" y="0" on="1"/>
        <pt x="45" y="0" on="1"/>
      </contour>
      <contour>
        <pt x="392" y="605" on="0"/>
        <pt x="434" y="605" on="1"/>
        <pt x="553" y="605" on="0"/>
        <pt x="709" y="676" on="0"/>
        <pt x="798" y="815" on="0"/>
        <pt x="820" y="923" on="1"/>
        <pt x="831" y="981" on="0"/>
        <pt x="831" y="1026" on="1"/>
        <pt x="831" y="1123" on="0"/>
        <pt x="723" y="1225" on="0"/>
        <pt x="605" y="1225" on="1"/>
        <pt x="442" y="1225" on="1"/>
        <pt x="314" y="611" on="1"/>
      </contour>
    </TTGlyph>
    <TTGlyph name="Q" xMin="100" yMin="-310" xMax="1021" yMax="1380">
      <contour>
        <pt x="473" y="-310" on="0"/>
        <pt x="349" y="-181" on="0"/>
        <pt x="349" y="-50" on="1"/>
        <pt x="349" y="-36" on="0"/>
        <pt x="351" y="-6" on="1"/>
        <pt x="100" y="31" on="0"/>
        <pt x="100" y="386" on="1"/>
        <pt x="100" y="521" on="0"/>
        <pt x="135" y="693" on="1"/>
        <pt x="202" y="1032" on="0"/>
        <pt x="484" y="1380" on="0"/>
        <pt x="689" y="1380" on="1"/>
        <pt x="859" y="1380" on="0"/>
        <pt x="1021" y="1179" on="0"/>
        <pt x="1021" y="982" on="1"/>
        <pt x="1021" y="846" on="0"/>
        <pt x="985" y="669" on="1"/>
        <pt x="923" y="362" on="0"/>
        <pt x="666" y="14" on="0"/>
        <pt x="491" y="-20" on="1"/>
        <pt x="489" y="-46" on="0"/>
        <pt x="489" y="-55" on="1"/>
        <pt x="489" y="-118" on="0"/>
        <pt x="555" y="-174" on="0"/>
        <pt x="624" y="-174" on="1"/>
        <pt x="666" y="-174" on="0"/>
        <pt x="752" y="-162" on="1"/>
        <pt x="757" y="-286" on="1"/>
        <pt x="685" y="-310" on="0"/>
        <pt x="588" y="-310" on="1"/>
      </contour>
      <contour>
        <pt x="574" y="113" on="0"/>
        <pt x="769" y="384" on="0"/>
        <pt x="831" y="693" on="1"/>
        <pt x="869" y="882" on="0"/>
        <pt x="869" y="1004" on="1"/>
        <pt x="869" y="1133" on="0"/>
        <pt x="778" y="1248" on="0"/>
        <pt x="683" y="1248" on="1"/>
        <pt x="586" y="1248" on="0"/>
        <pt x="442" y="1136" on="0"/>
        <pt x="332" y="882" on="0"/>
        <pt x="289" y="669" on="1"/>
        <pt x="253" y="486" on="0"/>
        <pt x="253" y="371" on="1"/>
        <pt x="253" y="235" on="0"/>
        <pt x="345" y="113" on="0"/>
        <pt x="435" y="113" on="1"/>
      </contour>
    </TTGlyph>
    <TTGlyph name="R" xMin="45" yMin="0" xMax="996" yMax="1362">
      <contour>
        <pt x="318" y="1362" on="1"/>
        <pt x="619" y="1362" on="1"/>
        <pt x="806" y="1362" on="0"/>
        <pt x="996" y="1202" on="0"/>
        <pt x="996" y="1059" on="1"/>
        <pt x="996" y="1013" on="0"/>
        <pt x="985" y="956" on="1"/>
        <pt x="956" y="809" on="0"/>
        <pt x="766" y="613" on="0"/>
        <pt x="609" y="584" on="1"/>
        <pt x="832" y="0" on="1"/>
        <pt x="649" y="0" on="1"/>
        <pt x="449" y="567" on="1"/>
        <pt x="311" y="567" on="1"/>
        <pt x="197" y="0" on="1"/>
        <pt x="45" y="0" on="1"/>
      </contour>
      <contour>
        <pt x="643" y="703" on="0"/>
        <pt x="803" y="839" on="0"/>
        <pt x="830" y="973" on="1"/>
        <pt x="838" y="1016" on="0"/>
        <pt x="838" y="1048" on="1"/>
        <pt x="838" y="1134" on="0"/>
        <pt x="727" y="1225" on="0"/>
        <pt x="605" y="1225" on="1"/>
        <pt x="442" y="1225" on="1"/>
        <pt x="338" y="703" on="1"/>
        <pt x="507" y="703" on="1"/>
      </contour>
    </TTGlyph>
    <TTGlyph name="Racute" xMin="-61" yMin="0" xMax="972" yMax="1870">
      <component glyphName="R" x="-106" y="0" flags="0x400"/>
      <component glyphName="acutecomb.case" x="-140" y="0" flags="0x0"/>
    </TTGlyph>
    <TTGlyph name="Rcaron" xMin="-61" yMin="0" xMax="975" yMax="1870">
      <component glyphName="R" x="-106" y="0" flags="0x400"/>
      <component glyphName="uni030C.case" x="-140" y="0" flags="0x0"/>
    </TTGlyph>
    <TTGlyph name="S" xMin="-1" yMin="-17" xMax="938" yMax="1380">
      <contour>
        <pt x="222" y="-17" on="0"/>
        <pt x="73" y="35" on="0"/>
        <pt x="-1" y="84" on="1"/>
        <pt x="64" y="194" on="1"/>
        <pt x="117" y="162" on="0"/>
        <pt x="251" y="119" on="0"/>
        <pt x="312" y="119" on="1"/>
        <pt x="421" y="119" on="0"/>
        <pt x="574" y="235" on="0"/>
        <pt x="594" y="333" on="1"/>
        <pt x="599" y="360" on="0"/>
        <pt x="599" y="378" on="1"/>
        <pt x="599" y="429" on="0"/>
        <pt x="552" y="517" on="0"/>
        <pt x="484" y="587" on="0"/>
        <pt x="425" y="639" on="1"/>
        <pt x="356" y="700" on="0"/>
        <pt x="275" y="786" on="0"/>
        <pt x="217" y="904" on="0"/>
        <pt x="217" y="977" on="1"/>
        <pt x="217" y="1010" on="0"/>
        <pt x="225" y="1052" on="1"/>
        <pt x="243" y="1138" on="0"/>
        <pt x="349" y="1288" on="0"/>
        <pt x="516" y="1380" on="0"/>
        <pt x="620" y="1380" on="1"/>
        <pt x="784" y="1380" on="0"/>
        <pt x="938" y="1289" on="1"/>
        <pt x="869" y="1181" on="1"/>
        <pt x="749" y="1244" on="0"/>
        <pt x="628" y="1244" on="1"/>
        <pt x="561" y="1244" on="0"/>
        <pt x="455" y="1185" on="0"/>
        <pt x="388" y="1091" on="0"/>
        <pt x="378" y="1039" on="1"/>
        <pt x="373" y="1012" on="0"/>
        <pt x="373" y="992" on="1"/>
        <pt x="373" y="941" on="0"/>
        <pt x="419" y="855" on="0"/>
        <pt x="487" y="786" on="0"/>
        <pt x="545" y="737" on="1"/>
        <pt x="613" y="679" on="0"/>
        <pt x="697" y="592" on="0"/>
        <pt x="755" y="471" on="0"/>
        <pt x="755" y="396" on="1"/>
        <pt x="755" y="357" on="0"/>
        <pt x="746" y="313" on="1"/>
        <pt x="728" y="226" on="0"/>
        <pt x="614" y="75" on="0"/>
        <pt x="430" y="-17" on="0"/>
        <pt x="315" y="-17" on="1"/>
      </contour>
    </TTGlyph>
    <TTGlyph name="Sacute" xMin="-107" yMin="-17" xMax="940" yMax="1870">
      <component glyphName="S" x="-106" y="0" flags="0x400"/>
      <component glyphName="acutecomb.case" x="-172" y="0" flags="0x0"/>
    </TTGlyph>
    <TTGlyph name="Scaron" xMin="-107" yMin="-17" xMax="943" yMax="1870">
      <component glyphName="S" x="-106" y="0" flags="0x400"/>
      <component glyphName="uni030C.case" x="-172" y="0" flags="0x0"/>
    </TTGlyph>
    <TTGlyph name="Scedilla" xMin="-1" yMin="-303" xMax="938" yMax="1380">
      <contour>
        <pt x="222" y="-17" on="0"/>
        <pt x="73" y="35" on="0"/>
        <pt x="-1" y="84" on="1"/>
        <pt x="64" y="194" on="1"/>
        <pt x="117" y="162" on="0"/>
        <pt x="251" y="119" on="0"/>
        <pt x="312" y="119" on="1"/>
        <pt x="421" y="119" on="0"/>
        <pt x="574" y="235" on="0"/>
        <pt x="594" y="333" on="1"/>
        <pt x="599" y="360" on="0"/>
        <pt x="599" y="378" on="1"/>
        <pt x="599" y="429" on="0"/>
        <pt x="552" y="517" on="0"/>
        <pt x="484" y="587" on="0"/>
        <pt x="425" y="639" on="1"/>
        <pt x="356" y="700" on="0"/>
        <pt x="275" y="786" on="0"/>
        <pt x="217" y="904" on="0"/>
        <pt x="217" y="977" on="1"/>
        <pt x="217" y="1010" on="0"/>
        <pt x="225" y="1052" on="1"/>
        <pt x="243" y="1138" on="0"/>
        <pt x="349" y="1288" on="0"/>
        <pt x="516" y="1380" on="0"/>
        <pt x="620" y="1380" on="1"/>
        <pt x="784" y="1380" on="0"/>
        <pt x="938" y="1289" on="1"/>
        <pt x="869" y="1181" on="1"/>
        <pt x="749" y="1244" on="0"/>
        <pt x="628" y="1244" on="1"/>
        <pt x="561" y="1244" on="0"/>
        <pt x="455" y="1185" on="0"/>
        <pt x="388" y="1091" on="0"/>
        <pt x="378" y="1039" on="1"/>
        <pt x="373" y="1012" on="0"/>
        <pt x="373" y="992" on="1"/>
        <pt x="373" y="941" on="0"/>
        <pt x="419" y="855" on="0"/>
        <pt x="487" y="786" on="0"/>
        <pt x="545" y="737" on="1"/>
        <pt x="613" y="679" on="0"/>
        <pt x="697" y="592" on="0"/>
        <pt x="755" y="471" on="0"/>
        <pt x="755" y="396" on="1"/>
        <pt x="755" y="357" on="0"/>
        <pt x="746" y="313" on="1"/>
        <pt x="726" y="217" on="0"/>
        <pt x="590" y="52" on="0"/>
        <pt x="482" y="6" on="1"/>
        <pt x="478" y="-25" on="1"/>
        <pt x="474" y="-63" on="0"/>
        <pt x="468" y="-95" on="1"/>
        <pt x="447" y="-199" on="0"/>
        <pt x="300" y="-303" on="0"/>
        <pt x="199" y="-303" on="1"/>
        <pt x="137" y="-303" on="0"/>
        <pt x="72" y="-285" on="1"/>
        <pt x="102" y="-162" on="1"/>
        <pt x="129" y="-166" on="0"/>
        <pt x="174" y="-166" on="1"/>
        <pt x="246" y="-166" on="0"/>
        <pt x="326" y="-103" on="0"/>
        <pt x="339" y="-39" on="1"/>
        <pt x="339" y="-38" on="0"/>
        <pt x="342" y="-21" on="0"/>
        <pt x="347" y="-11" on="1"/>
        <pt x="335" y="-17" on="0"/>
        <pt x="315" y="-17" on="1"/>
      </contour>
    </TTGlyph>
    <TTGlyph name="Scircumflex" xMin="-107" yMin="-17" xMax="860" yMax="1870">
      <component glyphName="S" x="-106" y="0" flags="0x400"/>
      <component glyphName="uni0302.case" x="-172" y="0" flags="0x0"/>
    </TTGlyph>
    <TTGlyph name="T" xMin="260" yMin="0" xMax="1105" yMax="1362">
      <contour>
        <pt x="593" y="1225" on="1"/>
        <pt x="260" y="1225" on="1"/>
        <pt x="288" y="1362" on="1"/>
        <pt x="1105" y="1362" on="1"/>
        <pt x="1077" y="1225" on="1"/>
        <pt x="744" y="1225" on="1"/>
        <pt x="499" y="0" on="1"/>
        <pt x="348" y="0" on="1"/>
      </contour>
    </TTGlyph>
    <TTGlyph name="Tcaron" xMin="154" yMin="0" xMax="1009" yMax="1870">
      <component glyphName="T" x="-106" y="0" flags="0x400"/>
      <component glyphName="uni030C.case" x="-106" y="0" flags="0x0"/>
    </TTGlyph>
    <TTGlyph name="Thorn" xMin="45" yMin="0" xMax="944" yMax="1362">
      <contour>
        <pt x="318" y="1362" on="1"/>
        <pt x="470" y="1362" on="1"/>
        <pt x="415" y="1089" on="1"/>
        <pt x="565" y="1089" on="1"/>
        <pt x="753" y="1089" on="0"/>
        <pt x="944" y="933" on="0"/>
        <pt x="944" y="793" on="1"/>
        <pt x="944" y="746" on="0"/>
        <pt x="934" y="697" on="1"/>
        <pt x="911" y="581" on="0"/>
        <pt x="775" y="407" on="0"/>
        <pt x="553" y="310" on="0"/>
        <pt x="404" y="310" on="1"/>
        <pt x="335" y="310" on="0"/>
        <pt x="266" y="319" on="1"/>
        <pt x="197" y="0" on="1"/>
        <pt x="45" y="0" on="1"/>
      </contour>
      <contour>
        <pt x="360" y="446" on="0"/>
        <pt x="402" y="446" on="1"/>
        <pt x="521" y="446" on="0"/>
        <pt x="675" y="506" on="0"/>
        <pt x="760" y="623" on="0"/>
        <pt x="778" y="714" on="1"/>
        <pt x="786" y="754" on="0"/>
        <pt x="786" y="784" on="1"/>
        <pt x="786" y="867" on="0"/>
        <pt x="674" y="953" on="0"/>
        <pt x="551" y="953" on="1"/>
        <pt x="388" y="953" on="1"/>
        <pt x="282" y="452" on="1"/>
      </contour>
    </TTGlyph>
    <TTGlyph name="U" xMin="107" yMin="-23" xMax="1069" yMax="1362">
      <contour>
        <pt x="272" y="-23" on="0"/>
        <pt x="107" y="124" on="0"/>
        <pt x="107" y="262" on="1"/>
        <pt x="107" y="313" on="0"/>
        <pt x="119" y="371" on="1"/>
        <pt x="318" y="1362" on="1"/>
        <pt x="470" y="1362" on="1"/>
        <pt x="270" y="363" on="1"/>
        <pt x="261" y="317" on="0"/>
        <pt x="261" y="278" on="1"/>
        <pt x="261" y="197" on="0"/>
        <pt x="349" y="117" on="0"/>
        <pt x="440" y="117" on="1"/>
        <pt x="555" y="117" on="0"/>
        <pt x="708" y="258" on="0"/>
        <pt x="734" y="388" on="1"/>
        <pt x="929" y="1362" on="1"/>
        <pt x="1069" y="1362" on="1"/>
        <pt x="871" y="376" on="1"/>
        <pt x="845" y="242" on="0"/>
        <pt x="713" y="63" on="0"/>
        <pt x="532" y="-23" on="0"/>
        <pt x="429" y="-23" on="1"/>
      </contour>
    </TTGlyph>
    <TTGlyph name="Uacute" xMin="1" yMin="-23" xMax="1016" yMax="1870">
      <component glyphName="U" x="-106" y="0" flags="0x400"/>
      <component glyphName="acutecomb.case" x="-96" y="0" flags="0x0"/>
    </TTGlyph>
    <TTGlyph name="Ubreve" xMin="1" yMin="-23" xMax="982" yMax="1820">
      <component glyphName="U" x="-106" y="0" flags="0x400"/>
      <component glyphName="uni0306.case" x="-96" y="0" flags="0x0"/>
    </TTGlyph>
    <TTGlyph name="Ucircumflex" xMin="1" yMin="-23" xMax="963" yMax="1870">
      <component glyphName="U" x="-106" y="0" flags="0x400"/>
      <component glyphName="uni0302.case" x="-96" y="0" flags="0x0"/>
    </TTGlyph>
    <TTGlyph name="Udieresis" xMin="1" yMin="-23" xMax="967" yMax="1751">
      <component glyphName="U" x="-106" y="0" flags="0x400"/>
      <component glyphName="uni0308.case" x="-96" y="0" flags="0x0"/>
    </TTGlyph>
    <TTGlyph name="Ugrave" xMin="1" yMin="-23" xMax="963" yMax="1870">
      <component glyphName="U" x="-106" y="0" flags="0x400"/>
      <component glyphName="gravecomb.case" x="-96" y="0" flags="0x0"/>
    </TTGlyph>
    <TTGlyph name="Umacron" xMin="1" yMin="-23" xMax="963" yMax="1710">
      <component glyphName="U" x="-106" y="0" flags="0x400"/>
      <component glyphName="uni0304.case" x="-96" y="0" flags="0x0"/>
    </TTGlyph>
    <TTGlyph name="Uogonek" xMin="108" yMin="-303" xMax="1069" yMax="1362">
      <contour>
        <pt x="329" y="-303" on="0"/>
        <pt x="239" y="-239" on="0"/>
        <pt x="239" y="-180" on="1"/>
        <pt x="239" y="-171" on="0"/>
        <pt x="243" y="-147" on="1"/>
        <pt x="258" y="-70" on="0"/>
        <pt x="356" y="-16" on="1"/>
        <pt x="236" y="-3" on="0"/>
        <pt x="108" y="139" on="0"/>
        <pt x="108" y="262" on="1"/>
        <pt x="108" y="317" on="0"/>
        <pt x="119" y="371" on="1"/>
        <pt x="318" y="1362" on="1"/>
        <pt x="470" y="1362" on="1"/>
        <pt x="270" y="363" on="1"/>
        <pt x="261" y="317" on="0"/>
        <pt x="261" y="278" on="1"/>
        <pt x="261" y="197" on="0"/>
        <pt x="349" y="117" on="0"/>
        <pt x="440" y="117" on="1"/>
        <pt x="555" y="117" on="0"/>
        <pt x="708" y="258" on="0"/>
        <pt x="734" y="388" on="1"/>
        <pt x="929" y="1362" on="1"/>
        <pt x="1069" y="1362" on="1"/>
        <pt x="871" y="376" on="1"/>
        <pt x="839" y="215" on="0"/>
        <pt x="663" y="20" on="0"/>
        <pt x="541" y="-13" on="1"/>
        <pt x="480" y="-32" on="0"/>
        <pt x="410" y="-94" on="0"/>
        <pt x="403" y="-129" on="1"/>
        <pt x="402" y="-132" on="0"/>
        <pt x="402" y="-139" on="1"/>
        <pt x="402" y="-153" on="0"/>
        <pt x="426" y="-166" on="0"/>
        <pt x="453" y="-166" on="1"/>
        <pt x="490" y="-166" on="0"/>
        <pt x="532" y="-156" on="1"/>
        <pt x="537" y="-284" on="1"/>
        <pt x="471" y="-303" on="0"/>
        <pt x="409" y="-303" on="1"/>
      </contour>
    </TTGlyph>
    <TTGlyph name="Uring" xMin="1" yMin="-23" xMax="963" yMax="1902">
      <component glyphName="U" x="-106" y="0" flags="0x400"/>
      <component glyphName="uni030A.case" x="-96" y="0" flags="0x0"/>
    </TTGlyph>
    <TTGlyph name="Utilde" xMin="1" yMin="-23" xMax="1009" yMax="1791">
      <component glyphName="U" x="-106" y="0" flags="0x400"/>
      <component glyphName="tildecomb.case" x="-96" y="0" flags="0x0"/>
    </TTGlyph>
    <TTGlyph name="V" xMin="246" yMin="0" xMax="1148" yMax="1362">
      <contour>
        <pt x="411" y="1362" on="1"/>
        <pt x="467" y="235" on="1"/>
        <pt x="993" y="1362" on="1"/>
        <pt x="1148" y="1362" on="1"/>
        <pt x="498" y="0" on="1"/>
        <pt x="341" y="0" on="1"/>
        <pt x="246" y="1362" on="1"/>
      </contour>
    </TTGlyph>
    <TTGlyph name="W" xMin="205" yMin="0" xMax="1400" yMax="1362">
      <contour>
        <pt x="783" y="1060" on="1"/>
        <pt x="417" y="0" on="1"/>
        <pt x="205" y="0" on="1"/>
        <pt x="296" y="1362" on="1"/>
        <pt x="438" y="1362" on="1"/>
        <pt x="362" y="231" on="1"/>
        <pt x="752" y="1362" on="1"/>
        <pt x="941" y="1362" on="1"/>
        <pt x="877" y="231" on="1"/>
        <pt x="1255" y="1362" on="1"/>
        <pt x="1400" y="1362" on="1"/>
        <pt x="946" y="0" on="1"/>
        <pt x="723" y="0" on="1"/>
      </contour>
    </TTGlyph>
    <TTGlyph name="Wacute" xMin="99" yMin="0" xMax="1294" yMax="1870">
      <component glyphName="W" x="-106" y="0" flags="0x400"/>
      <component glyphName="acutecomb.case" x="46" y="0" flags="0x0"/>
    </TTGlyph>
    <TTGlyph name="Wcircumflex" xMin="99" yMin="0" xMax="1294" yMax="1870">
      <component glyphName="W" x="-106" y="0" flags="0x400"/>
      <component glyphName="uni0302.case" x="46" y="0" flags="0x0"/>
    </TTGlyph>
    <TTGlyph name="Wdieresis" xMin="99" yMin="0" xMax="1294" yMax="1751">
      <component glyphName="W" x="-106" y="0" flags="0x400"/>
      <component glyphName="uni0308.case" x="46" y="0" flags="0x0"/>
    </TTGlyph>
    <TTGlyph name="Wgrave" xMin="99" yMin="0" xMax="1294" yMax="1870">
      <component glyphName="W" x="-106" y="0" flags="0x400"/>
      <component glyphName="gravecomb.case" x="46" y="0" flags="0x0"/>
    </TTGlyph>
    <TTGlyph name="X" xMin="-36" yMin="0" xMax="1072" yMax="1362">
      <contour>
        <pt x="486" y="561" on="1"/>
        <pt x="127" y="0" on="1"/>
        <pt x="-36" y="0" on="1"/>
        <pt x="439" y="719" on="1"/>
        <pt x="264" y="1362" on="1"/>
        <pt x="430" y="1362" on="1"/>
        <pt x="569" y="849" on="1"/>
        <pt x="910" y="1362" on="1"/>
        <pt x="1072" y="1362" on="1"/>
        <pt x="615" y="695" on="1"/>
        <pt x="803" y="0" on="1"/>
        <pt x="639" y="0" on="1"/>
      </contour>
    </TTGlyph>
    <TTGlyph name="Y" xMin="194" yMin="0" xMax="1061" yMax="1362">
      <contour>
        <pt x="395" y="605" on="1"/>
        <pt x="194" y="1362" on="1"/>
        <pt x="362" y="1362" on="1"/>
        <pt x="507" y="766" on="1"/>
        <pt x="903" y="1362" on="1"/>
        <pt x="1061" y="1362" on="1"/>
        <pt x="546" y="605" on="1"/>
        <pt x="423" y="0" on="1"/>
        <pt x="272" y="0" on="1"/>
      </contour>
    </TTGlyph>
    <TTGlyph name="Yacute" xMin="88" yMin="0" xMax="955" yMax="1870">
      <component glyphName="Y" x="-106" y="0" flags="0x400"/>
      <component glyphName="acutecomb.case" x="-172" y="0" flags="0x0"/>
    </TTGlyph>
    <TTGlyph name="Ycircumflex" xMin="88" yMin="0" xMax="955" yMax="1870">
      <component glyphName="Y" x="-106" y="0" flags="0x400"/>
      <component glyphName="uni0302.case" x="-172" y="0" flags="0x0"/>
    </TTGlyph>
    <TTGlyph name="Ydieresis" xMin="88" yMin="0" xMax="955" yMax="1751">
      <component glyphName="Y" x="-106" y="0" flags="0x400"/>
      <component glyphName="uni0308.case" x="-172" y="0" flags="0x0"/>
    </TTGlyph>
    <TTGlyph name="Ygrave" xMin="88" yMin="0" xMax="955" yMax="1870">
      <component glyphName="Y" x="-106" y="0" flags="0x400"/>
      <component glyphName="gravecomb.case" x="-172" y="0" flags="0x0"/>
    </TTGlyph>
    <TTGlyph name="Z" xMin="19" yMin="0" xMax="949" yMax="1362">
      <contour>
        <pt x="41" y="117" on="1"/>
        <pt x="761" y="1225" on="1"/>
        <pt x="264" y="1225" on="1"/>
        <pt x="292" y="1362" on="1"/>
        <pt x="949" y="1362" on="1"/>
        <pt x="928" y="1244" on="1"/>
        <pt x="207" y="136" on="1"/>
        <pt x="704" y="136" on="1"/>
        <pt x="677" y="0" on="1"/>
        <pt x="19" y="0" on="1"/>
      </contour>
    </TTGlyph>
    <TTGlyph name="Zacute" xMin="-87" yMin="0" xMax="940" yMax="1870">
      <component glyphName="Z" x="-106" y="0" flags="0x400"/>
      <component glyphName="acutecomb.case" x="-172" y="0" flags="0x0"/>
    </TTGlyph>
    <TTGlyph name="Zcaron" xMin="-87" yMin="0" xMax="943" yMax="1870">
      <component glyphName="Z" x="-106" y="0" flags="0x400"/>
      <component glyphName="uni030C.case" x="-172" y="0" flags="0x0"/>
    </TTGlyph>
    <TTGlyph name="Zdotaccent" xMin="-87" yMin="0" xMax="843" yMax="1842">
      <component glyphName="Z" x="-106" y="0" flags="0x400"/>
      <component glyphName="uni0307" x="-111" y="303" flags="0x4"/>
    </TTGlyph>
    <TTGlyph name="a" xMin="58" yMin="-15" xMax="928" yMax="1085">
      <contour>
        <pt x="215" y="-15" on="0"/>
        <pt x="111" y="41" on="0"/>
        <pt x="58" y="140" on="0"/>
        <pt x="58" y="203" on="1"/>
        <pt x="58" y="237" on="0"/>
        <pt x="65" y="269" on="1"/>
        <pt x="84" y="367" on="0"/>
        <pt x="229" y="520" on="0"/>
        <pt x="490" y="609" on="0"/>
        <pt x="677" y="609" on="1"/>
        <pt x="746" y="609" on="1"/>
        <pt x="765" y="704" on="1"/>
        <pt x="775" y="754" on="0"/>
        <pt x="775" y="796" on="1"/>
        <pt x="775" y="875" on="0"/>
        <pt x="690" y="949" on="0"/>
        <pt x="599" y="949" on="1"/>
        <pt x="483" y="949" on="0"/>
        <pt x="297" y="896" on="1"/>
        <pt x="276" y="1021" on="1"/>
        <pt x="494" y="1085" on="0"/>
        <pt x="636" y="1085" on="1"/>
        <pt x="783" y="1085" on="0"/>
        <pt x="928" y="945" on="0"/>
        <pt x="928" y="817" on="1"/>
        <pt x="928" y="765" on="0"/>
        <pt x="916" y="703" on="1"/>
        <pt x="775" y="0" on="1"/>
        <pt x="626" y="0" on="1"/>
        <pt x="662" y="180" on="1"/>
        <pt x="625" y="144" on="1"/>
        <pt x="536" y="70" on="0"/>
        <pt x="377" y="-15" on="0"/>
        <pt x="288" y="-15" on="1"/>
      </contour>
      <contour>
        <pt x="387" y="121" on="0"/>
        <pt x="520" y="197" on="0"/>
        <pt x="600" y="267" on="1"/>
        <pt x="690" y="337" on="1"/>
        <pt x="722" y="488" on="1"/>
        <pt x="672" y="488" on="1"/>
        <pt x="526" y="488" on="0"/>
        <pt x="332" y="422" on="0"/>
        <pt x="234" y="318" on="0"/>
        <pt x="222" y="257" on="1"/>
        <pt x="218" y="237" on="0"/>
        <pt x="218" y="217" on="1"/>
        <pt x="218" y="170" on="0"/>
        <pt x="272" y="121" on="0"/>
        <pt x="324" y="121" on="1"/>
      </contour>
    </TTGlyph>
    <TTGlyph name="a.sc" xMin="-143" yMin="0" xMax="774" yMax="1210">
      <component glyphName="A.hex" x="-106" y="0" flags="0x400"/>
    </TTGlyph>
    <TTGlyph name="aacute" xMin="-48" yMin="-15" xMax="961" yMax="1643">
      <component glyphName="a" x="-106" y="0" flags="0x400"/>
      <component glyphName="acutecomb" x="-106" y="0" flags="0x0"/>
    </TTGlyph>
    <TTGlyph name="aacute.sc" xMin="-249" yMin="0" xMax="991" yMax="1794">
      <component glyphName="a.sc" x="-106" y="0" flags="0x400"/>
      <component glyphName="acutecomb" x="-76" y="151" flags="0x4"/>
    </TTGlyph>
    <TTGlyph name="abreve" xMin="-48" yMin="-15" xMax="927" yMax="1593">
      <component glyphName="a" x="-106" y="0" flags="0x400"/>
      <component glyphName="uni0306" x="-106" y="0" flags="0x0"/>
    </TTGlyph>
    <TTGlyph name="abreve.sc" xMin="-249" yMin="0" xMax="957" yMax="1744">
      <component glyphName="a.sc" x="-106" y="0" flags="0x400"/>
      <component glyphName="uni0306" x="-76" y="151" flags="0x4"/>
    </TTGlyph>
    <TTGlyph name="acircumflex" xMin="-48" yMin="-15" xMax="881" yMax="1643">
      <component glyphName="a" x="-106" y="0" flags="0x400"/>
      <component glyphName="uni0302" x="-106" y="0" flags="0x0"/>
    </TTGlyph>
    <TTGlyph name="acircumflex.sc" xMin="-249" yMin="0" xMax="911" yMax="1794">
      <component glyphName="a.sc" x="-106" y="0" flags="0x400"/>
      <component glyphName="uni0302" x="-76" y="151" flags="0x4"/>
    </TTGlyph>
    <TTGlyph name="acute" xMin="390" yMin="756" xMax="926" yMax="1362">
      <contour>
        <pt x="390" y="756" on="1"/>
        <pt x="649" y="1362" on="1"/>
        <pt x="926" y="1362" on="1"/>
        <pt x="520" y="756" on="1"/>
      </contour>
    </TTGlyph>
    <TTGlyph name="acutecomb" xMin="579" yMin="1248" xMax="1067" yMax="1643">
      <contour>
        <pt x="803" y="1643" on="1"/>
        <pt x="1067" y="1643" on="1"/>
        <pt x="725" y="1248" on="1"/>
        <pt x="579" y="1248" on="1"/>
      </contour>
    </TTGlyph>
    <TTGlyph name="acutecomb.case" xMin="625" yMin="1475" xMax="1112" yMax="1870">
      <contour>
        <pt x="849" y="1870" on="1"/>
        <pt x="1112" y="1870" on="1"/>
        <pt x="770" y="1475" on="1"/>
        <pt x="625" y="1475" on="1"/>
      </contour>
    </TTGlyph>
    <TTGlyph name="adieresis" xMin="-48" yMin="-15" xMax="911" yMax="1524">
      <component glyphName="a" x="-106" y="0" flags="0x400"/>
      <component glyphName="uni0308" x="-106" y="0" flags="0x0"/>
    </TTGlyph>
    <TTGlyph name="adieresis.sc" xMin="-249" yMin="0" xMax="941" yMax="1675">
      <component glyphName="a.sc" x="-106" y="0" flags="0x400"/>
      <component glyphName="uni0308" x="-76" y="151" flags="0x4"/>
    </TTGlyph>
    <TTGlyph name="agrave" xMin="-48" yMin="-15" xMax="822" yMax="1643">
      <component glyphName="a" x="-106" y="0" flags="0x400"/>
      <component glyphName="gravecomb" x="-106" y="0" flags="0x0"/>
    </TTGlyph>
    <TTGlyph name="agrave.sc" xMin="-249" yMin="0" xMax="688" yMax="1794">
      <component glyphName="a.sc" x="-106" y="0" flags="0x400"/>
      <component glyphName="gravecomb" x="-76" y="151" flags="0x4"/>
    </TTGlyph>
    <TTGlyph name="amacron" xMin="-48" yMin="-15" xMax="905" yMax="1471">
      <component glyphName="a" x="-106" y="0" flags="0x400"/>
      <component glyphName="uni0304" x="-106" y="0" flags="0x0"/>
    </TTGlyph>
    <TTGlyph name="amacron.sc" xMin="-249" yMin="0" xMax="935" yMax="1622">
      <component glyphName="a.sc" x="-106" y="0" flags="0x400"/>
      <component glyphName="uni0304" x="-76" y="151" flags="0x4"/>
    </TTGlyph>
    <TTGlyph name="ampersand" xMin="-9" yMin="-17" xMax="1067" yMax="1377">
      <contour>
        <pt x="178" y="-17" on="0"/>
        <pt x="-9" y="125" on="0"/>
        <pt x="-9" y="254" on="1"/>
        <pt x="-9" y="296" on="0"/>
        <pt x="-1" y="333" on="1"/>
        <pt x="21" y="446" on="0"/>
        <pt x="160" y="608" on="0"/>
        <pt x="275" y="685" on="1"/>
        <pt x="221" y="796" on="0"/>
        <pt x="221" y="906" on="1"/>
        <pt x="221" y="961" on="0"/>
        <pt x="235" y="1033" on="1"/>
        <pt x="256" y="1140" on="0"/>
        <pt x="373" y="1296" on="0"/>
        <pt x="534" y="1377" on="0"/>
        <pt x="620" y="1377" on="1"/>
        <pt x="704" y="1377" on="0"/>
        <pt x="822" y="1315" on="0"/>
        <pt x="881" y="1206" on="0"/>
        <pt x="881" y="1137" on="1"/>
        <pt x="881" y="1102" on="0"/>
        <pt x="874" y="1068" on="1"/>
        <pt x="856" y="978" on="0"/>
        <pt x="749" y="841" on="0"/>
        <pt x="613" y="742" on="0"/>
        <pt x="500" y="674" on="1"/>
        <pt x="467" y="654" on="1"/>
        <pt x="503" y="596" on="0"/>
        <pt x="573" y="510" on="1"/>
        <pt x="739" y="324" on="1"/>
        <pt x="805" y="409" on="0"/>
        <pt x="897" y="634" on="0"/>
        <pt x="919" y="762" on="1"/>
        <pt x="1067" y="750" on="1"/>
        <pt x="1039" y="590" on="0"/>
        <pt x="916" y="315" on="0"/>
        <pt x="825" y="213" on="1"/>
        <pt x="1004" y="0" on="1"/>
        <pt x="804" y="0" on="1"/>
        <pt x="713" y="107" on="1"/>
        <pt x="549" y="-17" on="0"/>
        <pt x="347" y="-17" on="1"/>
      </contour>
      <contour>
        <pt x="146" y="290" on="0"/>
        <pt x="146" y="272" on="1"/>
        <pt x="146" y="201" on="0"/>
        <pt x="249" y="119" on="0"/>
        <pt x="353" y="119" on="1"/>
        <pt x="501" y="119" on="0"/>
        <pt x="628" y="212" on="1"/>
        <pt x="453" y="431" on="1"/>
        <pt x="379" y="521" on="0"/>
        <pt x="342" y="577" on="1"/>
        <pt x="263" y="518" on="0"/>
        <pt x="166" y="396" on="0"/>
        <pt x="151" y="317" on="1"/>
      </contour>
      <contour>
        <pt x="372" y="950" on="0"/>
        <pt x="372" y="911" on="1"/>
        <pt x="372" y="835" on="0"/>
        <pt x="404" y="759" on="1"/>
        <pt x="498" y="816" on="0"/>
        <pt x="614" y="902" on="0"/>
        <pt x="702" y="1015" on="0"/>
        <pt x="716" y="1086" on="1"/>
        <pt x="720" y="1106" on="0"/>
        <pt x="720" y="1127" on="1"/>
        <pt x="720" y="1181" on="0"/>
        <pt x="659" y="1244" on="0"/>
        <pt x="607" y="1244" on="1"/>
        <pt x="525" y="1244" on="0"/>
        <pt x="405" y="1119" on="0"/>
        <pt x="382" y="1003" on="1"/>
      </contour>
    </TTGlyph>
    <TTGlyph name="aogonek" xMin="58" yMin="-303" xMax="928" yMax="1085">
      <contour>
        <pt x="215" y="-15" on="0"/>
        <pt x="111" y="41" on="0"/>
        <pt x="58" y="140" on="0"/>
        <pt x="58" y="203" on="1"/>
        <pt x="58" y="237" on="0"/>
        <pt x="65" y="269" on="1"/>
        <pt x="84" y="367" on="0"/>
        <pt x="229" y="520" on="0"/>
        <pt x="490" y="609" on="0"/>
        <pt x="677" y="609" on="1"/>
        <pt x="746" y="609" on="1"/>
        <pt x="765" y="704" on="1"/>
        <pt x="775" y="754" on="0"/>
        <pt x="775" y="796" on="1"/>
        <pt x="775" y="875" on="0"/>
        <pt x="690" y="949" on="0"/>
        <pt x="599" y="949" on="1"/>
        <pt x="483" y="949" on="0"/>
        <pt x="297" y="896" on="1"/>
        <pt x="276" y="1021" on="1"/>
        <pt x="494" y="1085" on="0"/>
        <pt x="636" y="1085" on="1"/>
        <pt x="783" y="1085" on="0"/>
        <pt x="928" y="945" on="0"/>
        <pt x="928" y="817" on="1"/>
        <pt x="928" y="765" on="0"/>
        <pt x="916" y="703" on="1"/>
        <pt x="780" y="-2" on="1"/>
        <pt x="708" y="-20" on="0"/>
        <pt x="623" y="-91" on="0"/>
        <pt x="615" y="-129" on="1"/>
        <pt x="614" y="-132" on="0"/>
        <pt x="614" y="-139" on="1"/>
        <pt x="614" y="-153" on="0"/>
        <pt x="638" y="-166" on="0"/>
        <pt x="665" y="-166" on="1"/>
        <pt x="702" y="-166" on="0"/>
        <pt x="744" y="-156" on="1"/>
        <pt x="749" y="-284" on="1"/>
        <pt x="683" y="-303" on="0"/>
        <pt x="621" y="-303" on="1"/>
        <pt x="541" y="-303" on="0"/>
        <pt x="451" y="-239" on="0"/>
        <pt x="451" y="-180" on="1"/>
        <pt x="451" y="-171" on="0"/>
        <pt x="455" y="-147" on="1"/>
        <pt x="475" y="-48" on="0"/>
        <pt x="624" y="13" on="1"/>
        <pt x="662" y="180" on="1"/>
        <pt x="625" y="144" on="1"/>
        <pt x="536" y="70" on="0"/>
        <pt x="377" y="-15" on="0"/>
        <pt x="288" y="-15" on="1"/>
      </contour>
      <contour>
        <pt x="387" y="121" on="0"/>
        <pt x="520" y="197" on="0"/>
        <pt x="600" y="267" on="1"/>
        <pt x="690" y="337" on="1"/>
        <pt x="722" y="488" on="1"/>
        <pt x="672" y="488" on="1"/>
        <pt x="526" y="488" on="0"/>
        <pt x="332" y="422" on="0"/>
        <pt x="234" y="318" on="0"/>
        <pt x="222" y="257" on="1"/>
        <pt x="218" y="237" on="0"/>
        <pt x="218" y="217" on="1"/>
        <pt x="218" y="170" on="0"/>
        <pt x="272" y="121" on="0"/>
        <pt x="324" y="121" on="1"/>
      </contour>
    </TTGlyph>
    <TTGlyph name="aogonek.sc" xMin="-37" yMin="-303" xMax="886" yMax="1210">
      <contour>
        <pt x="647" y="-303" on="0"/>
        <pt x="557" y="-239" on="0"/>
        <pt x="557" y="-180" on="1"/>
        <pt x="557" y="-171" on="0"/>
        <pt x="561" y="-147" on="1"/>
        <pt x="578" y="-56" on="0"/>
        <pt x="710" y="4" on="1"/>
        <pt x="686" y="310" on="1"/>
        <pt x="275" y="310" on="1"/>
        <pt x="117" y="0" on="1"/>
        <pt x="-37" y="0" on="1"/>
        <pt x="589" y="1210" on="1"/>
        <pt x="746" y="1210" on="1"/>
        <pt x="886" y="-2" on="1"/>
        <pt x="814" y="-20" on="0"/>
        <pt x="729" y="-91" on="0"/>
        <pt x="721" y="-129" on="1"/>
        <pt x="720" y="-132" on="0"/>
        <pt x="720" y="-139" on="1"/>
        <pt x="720" y="-153" on="0"/>
        <pt x="744" y="-166" on="0"/>
        <pt x="771" y="-166" on="1"/>
        <pt x="808" y="-166" on="0"/>
        <pt x="850" y="-156" on="1"/>
        <pt x="855" y="-284" on="1"/>
        <pt x="789" y="-303" on="0"/>
        <pt x="727" y="-303" on="1"/>
      </contour>
      <contour>
        <pt x="673" y="446" on="1"/>
        <pt x="624" y="990" on="1"/>
        <pt x="344" y="446" on="1"/>
      </contour>
    </TTGlyph>
    <TTGlyph name="aring" xMin="-48" yMin="-15" xMax="852" yMax="1675">
      <component glyphName="a" x="-106" y="0" flags="0x400"/>
      <component glyphName="uni030A" x="-106" y="0" flags="0x0"/>
    </TTGlyph>
    <TTGlyph name="aring.sc" xMin="-249" yMin="0" xMax="882" yMax="1826">
      <component glyphName="a.sc" x="-106" y="0" flags="0x400"/>
      <component glyphName="uni030A" x="-76" y="151" flags="0x4"/>
    </TTGlyph>
    <TTGlyph name="arrowdown" xMin="35" yMin="-43" xMax="972" yMax="1362">
      <contour>
        <pt x="35" y="399" on="1"/>
        <pt x="134" y="488" on="1"/>
        <pt x="384" y="189" on="1"/>
        <pt x="621" y="1362" on="1"/>
        <pt x="772" y="1362" on="1"/>
        <pt x="535" y="189" on="1"/>
        <pt x="901" y="488" on="1"/>
        <pt x="972" y="399" on="1"/>
        <pt x="454" y="-43" on="1"/>
        <pt x="379" y="-43" on="1"/>
      </contour>
    </TTGlyph>
    <TTGlyph name="arrowleft" xMin="-18" yMin="202" xMax="1101" yMax="1140">
      <contour>
        <pt x="-18" y="643" on="1"/>
        <pt x="-11" y="700" on="1"/>
        <pt x="517" y="1140" on="1"/>
        <pt x="593" y="1055" on="1"/>
        <pt x="227" y="738" on="1"/>
        <pt x="1101" y="738" on="1"/>
        <pt x="1074" y="605" on="1"/>
        <pt x="196" y="605" on="1"/>
        <pt x="439" y="287" on="1"/>
        <pt x="337" y="202" on="1"/>
      </contour>
    </TTGlyph>
    <TTGlyph name="arrowright" xMin="15" yMin="202" xMax="1134" yMax="1140">
      <contour>
        <pt x="522" y="287" on="1"/>
        <pt x="889" y="605" on="1"/>
        <pt x="15" y="605" on="1"/>
        <pt x="42" y="738" on="1"/>
        <pt x="920" y="738" on="1"/>
        <pt x="676" y="1055" on="1"/>
        <pt x="778" y="1140" on="1"/>
        <pt x="1134" y="700" on="1"/>
        <pt x="1126" y="643" on="1"/>
        <pt x="598" y="202" on="1"/>
      </contour>
    </TTGlyph>
    <TTGlyph name="arrowup" xMin="148" yMin="0" xMax="1085" yMax="1405">
      <contour>
        <pt x="584" y="1172" on="1"/>
        <pt x="219" y="874" on="1"/>
        <pt x="148" y="963" on="1"/>
        <pt x="665" y="1405" on="1"/>
        <pt x="740" y="1405" on="1"/>
        <pt x="1085" y="963" on="1"/>
        <pt x="986" y="874" on="1"/>
        <pt x="735" y="1172" on="1"/>
        <pt x="499" y="0" on="1"/>
        <pt x="348" y="0" on="1"/>
      </contour>
    </TTGlyph>
    <TTGlyph name="asciicircum" xMin="111" yMin="303" xMax="867" yMax="1210">
      <contour>
        <pt x="252" y="303" on="1"/>
        <pt x="623" y="1027" on="1"/>
        <pt x="706" y="303" on="1"/>
        <pt x="867" y="303" on="1"/>
        <pt x="747" y="1210" on="1"/>
        <pt x="596" y="1210" on="1"/>
        <pt x="111" y="303" on="1"/>
      </contour>
    </TTGlyph>
    <TTGlyph name="asciitilde" xMin="3" yMin="455" xMax="1121" yMax="906">
      <contour>
        <pt x="39" y="700" on="0"/>
        <pt x="226" y="904" on="0"/>
        <pt x="374" y="904" on="1"/>
        <pt x="448" y="904" on="0"/>
        <pt x="546" y="852" on="0"/>
        <pt x="602" y="779" on="0"/>
        <pt x="634" y="720" on="1"/>
        <pt x="657" y="678" on="0"/>
        <pt x="690" y="630" on="0"/>
        <pt x="738" y="598" on="0"/>
        <pt x="771" y="598" on="1"/>
        <pt x="849" y="598" on="0"/>
        <pt x="955" y="739" on="0"/>
        <pt x="983" y="906" on="1"/>
        <pt x="1121" y="894" on="1"/>
        <pt x="1084" y="662" on="0"/>
        <pt x="893" y="458" on="0"/>
        <pt x="745" y="458" on="1"/>
        <pt x="671" y="458" on="0"/>
        <pt x="573" y="510" on="0"/>
        <pt x="516" y="584" on="0"/>
        <pt x="484" y="642" on="1"/>
        <pt x="460" y="685" on="0"/>
        <pt x="427" y="732" on="0"/>
        <pt x="380" y="764" on="0"/>
        <pt x="348" y="764" on="1"/>
        <pt x="266" y="764" on="0"/>
        <pt x="165" y="623" on="0"/>
        <pt x="140" y="455" on="1"/>
        <pt x="3" y="467" on="1"/>
      </contour>
    </TTGlyph>
    <TTGlyph name="asterisk" xMin="44" yMin="179" xMax="1099" yMax="1184">
      <contour>
        <pt x="122" y="893" on="1"/>
        <pt x="502" y="752" on="1"/>
        <pt x="581" y="1184" on="1"/>
        <pt x="740" y="1184" on="1"/>
        <pt x="645" y="753" on="1"/>
        <pt x="1079" y="894" on="1"/>
        <pt x="1099" y="743" on="1"/>
        <pt x="661" y="618" on="1"/>
        <pt x="853" y="273" on="1"/>
        <pt x="710" y="179" on="1"/>
        <pt x="534" y="533" on="1"/>
        <pt x="216" y="180" on="1"/>
        <pt x="102" y="273" on="1"/>
        <pt x="429" y="617" on="1"/>
        <pt x="44" y="742" on="1"/>
      </contour>
    </TTGlyph>
    <TTGlyph name="at" xMin="100" yMin="-172" xMax="983" yMax="1231">
      <contour>
        <pt x="302" y="-172" on="0"/>
        <pt x="100" y="32" on="0"/>
        <pt x="100" y="251" on="1"/>
        <pt x="100" y="369" on="0"/>
        <pt x="129" y="513" on="1"/>
        <pt x="202" y="880" on="0"/>
        <pt x="475" y="1231" on="0"/>
        <pt x="677" y="1231" on="1"/>
        <pt x="833" y="1231" on="0"/>
        <pt x="983" y="1084" on="0"/>
        <pt x="983" y="956" on="1"/>
        <pt x="983" y="904" on="0"/>
        <pt x="971" y="847" on="1"/>
        <pt x="867" y="299" on="1"/>
        <pt x="813" y="283" on="0"/>
        <pt x="690" y="265" on="0"/>
        <pt x="639" y="265" on="1"/>
        <pt x="532" y="265" on="0"/>
        <pt x="428" y="350" on="0"/>
        <pt x="428" y="444" on="1"/>
        <pt x="428" y="484" on="0"/>
        <pt x="439" y="541" on="1"/>
        <pt x="490" y="794" on="0"/>
        <pt x="715" y="794" on="1"/>
        <pt x="742" y="794" on="0"/>
        <pt x="780" y="792" on="1"/>
        <pt x="803" y="791" on="1"/>
        <pt x="824" y="868" on="1"/>
        <pt x="833" y="915" on="0"/>
        <pt x="833" y="952" on="1"/>
        <pt x="833" y="1029" on="0"/>
        <pt x="749" y="1099" on="0"/>
        <pt x="663" y="1099" on="1"/>
        <pt x="575" y="1099" on="0"/>
        <pt x="438" y="989" on="0"/>
        <pt x="322" y="721" on="0"/>
        <pt x="276" y="489" on="1"/>
        <pt x="247" y="341" on="0"/>
        <pt x="247" y="242" on="1"/>
        <pt x="247" y="92" on="0"/>
        <pt x="373" y="-40" on="0"/>
        <pt x="500" y="-40" on="1"/>
        <pt x="603" y="-40" on="0"/>
        <pt x="746" y="-10" on="1"/>
        <pt x="751" y="-133" on="1"/>
        <pt x="593" y="-172" on="0"/>
        <pt x="486" y="-172" on="1"/>
      </contour>
      <contour>
        <pt x="577" y="475" on="0"/>
        <pt x="577" y="449" on="1"/>
        <pt x="577" y="415" on="0"/>
        <pt x="611" y="393" on="0"/>
        <pt x="652" y="393" on="1"/>
        <pt x="685" y="393" on="0"/>
        <pt x="725" y="400" on="1"/>
        <pt x="788" y="664" on="1"/>
        <pt x="748" y="666" on="0"/>
        <pt x="734" y="666" on="1"/>
        <pt x="669" y="666" on="0"/>
        <pt x="602" y="601" on="0"/>
        <pt x="586" y="517" on="1"/>
      </contour>
    </TTGlyph>
    <TTGlyph name="atilde" xMin="-48" yMin="-15" xMax="953" yMax="1564">
      <component glyphName="a" x="-106" y="0" flags="0x400"/>
      <component glyphName="tildecomb" x="-106" y="0" flags="0x0"/>
    </TTGlyph>
    <TTGlyph name="atilde.sc" xMin="-249" yMin="0" xMax="983" yMax="1715">
      <component glyphName="a.sc" x="-106" y="0" flags="0x400"/>
      <component glyphName="tildecomb" x="-76" y="151" flags="0x4"/>
    </TTGlyph>
    <TTGlyph name="b" xMin="57" yMin="-21" xMax="989" yMax="1513">
      <contour>
        <pt x="230" y="-21" on="0"/>
        <pt x="57" y="36" on="1"/>
        <pt x="348" y="1513" on="1"/>
        <pt x="500" y="1513" on="1"/>
        <pt x="367" y="859" on="1"/>
        <pt x="407" y="905" on="1"/>
        <pt x="571" y="1074" on="0"/>
        <pt x="737" y="1074" on="1"/>
        <pt x="860" y="1074" on="0"/>
        <pt x="989" y="919" on="0"/>
        <pt x="989" y="772" on="1"/>
        <pt x="989" y="694" on="0"/>
        <pt x="969" y="591" on="1"/>
        <pt x="930" y="395" on="0"/>
        <pt x="753" y="119" on="0"/>
        <pt x="516" y="-21" on="0"/>
        <pt x="386" y="-21" on="1"/>
      </contour>
      <contour>
        <pt x="530" y="108" on="0"/>
        <pt x="764" y="358" on="0"/>
        <pt x="813" y="604" on="1"/>
        <pt x="833" y="707" on="0"/>
        <pt x="833" y="772" on="1"/>
        <pt x="833" y="859" on="0"/>
        <pt x="769" y="938" on="0"/>
        <pt x="707" y="938" on="1"/>
        <pt x="641" y="938" on="0"/>
        <pt x="512" y="861" on="0"/>
        <pt x="431" y="778" on="1"/>
        <pt x="338" y="692" on="1"/>
        <pt x="217" y="124" on="1"/>
        <pt x="246" y="117" on="0"/>
        <pt x="326" y="108" on="0"/>
        <pt x="363" y="108" on="1"/>
      </contour>
    </TTGlyph>
    <TTGlyph name="b.sc" xMin="-61" yMin="0" xMax="868" yMax="1210">
      <component glyphName="B.hex" x="-106" y="0" flags="0x400"/>
    </TTGlyph>
    <TTGlyph name="backslash" xMin="344" yMin="-303" xMax="745" yMax="1513">
      <contour>
        <pt x="344" y="1513" on="1"/>
        <pt x="501" y="1513" on="1"/>
        <pt x="745" y="-303" on="1"/>
        <pt x="590" y="-303" on="1"/>
      </contour>
    </TTGlyph>
    <TTGlyph name="bar" xMin="454" yMin="-303" xMax="605" yMax="1513">
      <contour>
        <pt x="454" y="1513" on="1"/>
        <pt x="605" y="1513" on="1"/>
        <pt x="605" y="-303" on="1"/>
        <pt x="454" y="-303" on="1"/>
      </contour>
    </TTGlyph>
    <TTGlyph name="block" xMin="-167" yMin="-303" xMax="1256" yMax="1513">
      <contour>
        <pt x="197" y="1513" on="1"/>
        <pt x="1256" y="1513" on="1"/>
        <pt x="892" y="-303" on="1"/>
        <pt x="-167" y="-303" on="1"/>
      </contour>
    </TTGlyph>
    <TTGlyph name="braceleft" xMin="116" yMin="-289" xMax="1094" yMax="1501">
      <contour>
        <pt x="261" y="678" on="0"/>
        <pt x="411" y="728" on="0"/>
        <pt x="492" y="814" on="0"/>
        <pt x="507" y="888" on="1"/>
        <pt x="512" y="914" on="0"/>
        <pt x="517" y="963" on="1"/>
        <pt x="527" y="1043" on="0"/>
        <pt x="538" y="1099" on="1"/>
        <pt x="567" y="1245" on="0"/>
        <pt x="713" y="1412" on="0"/>
        <pt x="931" y="1486" on="0"/>
        <pt x="1094" y="1501" on="1"/>
        <pt x="1094" y="1378" on="1"/>
        <pt x="963" y="1360" on="0"/>
        <pt x="812" y="1310" on="0"/>
        <pt x="709" y="1188" on="0"/>
        <pt x="686" y="1073" on="1"/>
        <pt x="677" y="1028" on="0"/>
        <pt x="670" y="974" on="1"/>
        <pt x="658" y="898" on="0"/>
        <pt x="654" y="879" on="1"/>
        <pt x="638" y="798" on="0"/>
        <pt x="560" y="691" on="0"/>
        <pt x="426" y="623" on="0"/>
        <pt x="322" y="603" on="1"/>
        <pt x="437" y="579" on="0"/>
        <pt x="548" y="474" on="0"/>
        <pt x="548" y="383" on="1"/>
        <pt x="548" y="352" on="0"/>
        <pt x="540" y="307" on="1"/>
        <pt x="538" y="294" on="0"/>
        <pt x="524" y="240" on="1"/>
        <pt x="508" y="181" on="0"/>
        <pt x="494" y="113" on="1"/>
        <pt x="484" y="64" on="0"/>
        <pt x="484" y="25" on="1"/>
        <pt x="484" y="-46" on="0"/>
        <pt x="550" y="-121" on="0"/>
        <pt x="666" y="-154" on="0"/>
        <pt x="774" y="-170" on="1"/>
        <pt x="747" y="-289" on="1"/>
        <pt x="613" y="-276" on="0"/>
        <pt x="433" y="-215" on="0"/>
        <pt x="332" y="-87" on="0"/>
        <pt x="332" y="20" on="1"/>
        <pt x="332" y="65" on="0"/>
        <pt x="345" y="135" on="1"/>
        <pt x="353" y="173" on="0"/>
        <pt x="374" y="253" on="1"/>
        <pt x="393" y="319" on="0"/>
        <pt x="398" y="346" on="1"/>
        <pt x="404" y="373" on="0"/>
        <pt x="404" y="396" on="1"/>
        <pt x="404" y="443" on="0"/>
        <pt x="348" y="500" on="0"/>
        <pt x="227" y="537" on="0"/>
        <pt x="116" y="553" on="1"/>
        <pt x="127" y="659" on="1"/>
      </contour>
    </TTGlyph>
    <TTGlyph name="braceright" xMin="-5" yMin="-291" xMax="973" yMax="1499">
      <contour>
        <pt x="828" y="532" on="0"/>
        <pt x="678" y="482" on="0"/>
        <pt x="598" y="396" on="0"/>
        <pt x="583" y="322" on="1"/>
        <pt x="579" y="304" on="0"/>
        <pt x="571" y="241" on="1"/>
        <pt x="570" y="231" on="0"/>
        <pt x="559" y="151" on="0"/>
        <pt x="551" y="111" on="1"/>
        <pt x="522" y="-35" on="0"/>
        <pt x="376" y="-202" on="0"/>
        <pt x="158" y="-276" on="0"/>
        <pt x="-5" y="-291" on="1"/>
        <pt x="-5" y="-168" on="1"/>
        <pt x="127" y="-150" on="0"/>
        <pt x="277" y="-100" on="0"/>
        <pt x="380" y="21" on="0"/>
        <pt x="403" y="137" on="1"/>
        <pt x="410" y="172" on="0"/>
        <pt x="421" y="242" on="1"/>
        <pt x="429" y="299" on="0"/>
        <pt x="435" y="331" on="1"/>
        <pt x="451" y="412" on="0"/>
        <pt x="529" y="519" on="0"/>
        <pt x="663" y="587" on="0"/>
        <pt x="767" y="607" on="1"/>
        <pt x="653" y="631" on="0"/>
        <pt x="541" y="736" on="0"/>
        <pt x="541" y="826" on="1"/>
        <pt x="541" y="861" on="0"/>
        <pt x="550" y="903" on="1"/>
        <pt x="553" y="920" on="0"/>
        <pt x="565" y="967" on="0"/>
        <pt x="568" y="978" on="1"/>
        <pt x="590" y="1072" on="0"/>
        <pt x="595" y="1097" on="1"/>
        <pt x="605" y="1146" on="0"/>
        <pt x="605" y="1185" on="1"/>
        <pt x="605" y="1256" on="0"/>
        <pt x="539" y="1331" on="0"/>
        <pt x="423" y="1364" on="0"/>
        <pt x="315" y="1380" on="1"/>
        <pt x="342" y="1499" on="1"/>
        <pt x="476" y="1486" on="0"/>
        <pt x="656" y="1425" on="0"/>
        <pt x="757" y="1297" on="0"/>
        <pt x="757" y="1190" on="1"/>
        <pt x="757" y="1145" on="0"/>
        <pt x="744" y="1075" on="1"/>
        <pt x="736" y="1037" on="0"/>
        <pt x="715" y="957" on="1"/>
        <pt x="696" y="891" on="0"/>
        <pt x="691" y="864" on="1"/>
        <pt x="685" y="837" on="0"/>
        <pt x="685" y="815" on="1"/>
        <pt x="685" y="767" on="0"/>
        <pt x="741" y="710" on="0"/>
        <pt x="863" y="673" on="0"/>
        <pt x="973" y="657" on="1"/>
        <pt x="962" y="551" on="1"/>
      </contour>
    </TTGlyph>
    <TTGlyph name="bracketleft" xMin="136" yMin="-303" xMax="1105" yMax="1513">
      <contour>
        <pt x="500" y="1513" on="1"/>
        <pt x="1105" y="1513" on="1"/>
        <pt x="1078" y="1380" on="1"/>
        <pt x="624" y="1380" on="1"/>
        <pt x="314" y="-170" on="1"/>
        <pt x="768" y="-170" on="1"/>
        <pt x="741" y="-303" on="1"/>
        <pt x="136" y="-303" on="1"/>
      </contour>
    </TTGlyph>
    <TTGlyph name="bracketright" xMin="-16" yMin="-303" xMax="953" yMax="1513">
      <contour>
        <pt x="11" y="-170" on="1"/>
        <pt x="465" y="-170" on="1"/>
        <pt x="775" y="1380" on="1"/>
        <pt x="321" y="1380" on="1"/>
        <pt x="348" y="1513" on="1"/>
        <pt x="953" y="1513" on="1"/>
        <pt x="589" y="-303" on="1"/>
        <pt x="-16" y="-303" on="1"/>
      </contour>
    </TTGlyph>
    <TTGlyph name="breve" xMin="325" yMin="1244" xMax="927" yMax="1593">
      <component glyphName="uni0306" x="-106" y="0" flags="0x400"/>
    </TTGlyph>
    <TTGlyph name="c" xMin="116" yMin="-19" xMax="968" yMax="1074">
      <contour>
        <pt x="834" y="896" on="0"/>
        <pt x="718" y="938" on="0"/>
        <pt x="640" y="938" on="1"/>
        <pt x="498" y="938" on="0"/>
        <pt x="329" y="720" on="0"/>
        <pt x="289" y="517" on="1"/>
        <pt x="271" y="429" on="0"/>
        <pt x="271" y="359" on="1"/>
        <pt x="271" y="117" on="0"/>
        <pt x="489" y="117" on="1"/>
        <pt x="559" y="117" on="0"/>
        <pt x="668" y="144" on="0"/>
        <pt x="741" y="170" on="1"/>
        <pt x="768" y="46" on="1"/>
        <pt x="694" y="14" on="0"/>
        <pt x="549" y="-19" on="0"/>
        <pt x="468" y="-19" on="1"/>
        <pt x="301" y="-19" on="0"/>
        <pt x="116" y="159" on="0"/>
        <pt x="116" y="345" on="1"/>
        <pt x="116" y="434" on="0"/>
        <pt x="138" y="541" on="1"/>
        <pt x="191" y="806" on="0"/>
        <pt x="457" y="1074" on="0"/>
        <pt x="648" y="1074" on="1"/>
        <pt x="830" y="1074" on="0"/>
        <pt x="968" y="969" on="1"/>
        <pt x="889" y="858" on="1"/>
      </contour>
    </TTGlyph>
    <TTGlyph name="c.sc" xMin="13" yMin="-21" xMax="910" yMax="1231">
      <component glyphName="C.hex" x="-106" y="0" flags="0x400"/>
    </TTGlyph>
    <TTGlyph name="cacute" xMin="10" yMin="-19" xMax="990" yMax="1643">
      <component glyphName="c" x="-106" y="0" flags="0x400"/>
      <component glyphName="acutecomb" x="-77" y="0" flags="0x0"/>
    </TTGlyph>
    <TTGlyph name="cacute.sc" xMin="-93" yMin="-21" xMax="1035" yMax="1794">
      <component glyphName="c.sc" x="-106" y="0" flags="0x400"/>
      <component glyphName="acutecomb" x="-32" y="151" flags="0x4"/>
    </TTGlyph>
    <TTGlyph name="caron" xMin="332" yMin="1248" xMax="963" yMax="1643">
      <component glyphName="uni030C" x="-106" y="0" flags="0x400"/>
    </TTGlyph>
    <TTGlyph name="ccaron" xMin="10" yMin="-19" xMax="992" yMax="1643">
      <component glyphName="c" x="-106" y="0" flags="0x400"/>
      <component glyphName="uni030C" x="-77" y="0" flags="0x0"/>
    </TTGlyph>
    <TTGlyph name="ccaron.sc" xMin="-93" yMin="-21" xMax="1037" yMax="1794">
      <component glyphName="c.sc" x="-106" y="0" flags="0x400"/>
      <component glyphName="uni030C" x="-32" y="151" flags="0x4"/>
    </TTGlyph>
    <TTGlyph name="ccedilla" xMin="116" yMin="-303" xMax="968" yMax="1074">
      <contour>
        <pt x="834" y="896" on="0"/>
        <pt x="718" y="938" on="0"/>
        <pt x="640" y="938" on="1"/>
        <pt x="498" y="938" on="0"/>
        <pt x="329" y="720" on="0"/>
        <pt x="289" y="517" on="1"/>
        <pt x="271" y="429" on="0"/>
        <pt x="271" y="359" on="1"/>
        <pt x="271" y="117" on="0"/>
        <pt x="489" y="117" on="1"/>
        <pt x="559" y="117" on="0"/>
        <pt x="668" y="144" on="0"/>
        <pt x="741" y="170" on="1"/>
        <pt x="768" y="46" on="1"/>
        <pt x="721" y="26" on="0"/>
        <pt x="621" y="-8" on="1"/>
        <pt x="615" y="-44" on="1"/>
        <pt x="611" y="-78" on="0"/>
        <pt x="607" y="-95" on="1"/>
        <pt x="586" y="-199" on="0"/>
        <pt x="439" y="-303" on="0"/>
        <pt x="338" y="-303" on="1"/>
        <pt x="276" y="-303" on="0"/>
        <pt x="211" y="-285" on="1"/>
        <pt x="241" y="-162" on="1"/>
        <pt x="268" y="-166" on="0"/>
        <pt x="313" y="-166" on="1"/>
        <pt x="385" y="-166" on="0"/>
        <pt x="465" y="-103" on="0"/>
        <pt x="478" y="-39" on="1"/>
        <pt x="480" y="-37" on="0"/>
        <pt x="482" y="-13" on="1"/>
        <pt x="463" y="-19" on="1"/>
        <pt x="299" y="-19" on="0"/>
        <pt x="116" y="159" on="0"/>
        <pt x="116" y="344" on="1"/>
        <pt x="116" y="432" on="0"/>
        <pt x="138" y="541" on="1"/>
        <pt x="191" y="806" on="0"/>
        <pt x="457" y="1074" on="0"/>
        <pt x="648" y="1074" on="1"/>
        <pt x="830" y="1074" on="0"/>
        <pt x="968" y="969" on="1"/>
        <pt x="889" y="858" on="1"/>
      </contour>
    </TTGlyph>
    <TTGlyph name="ccedilla.sc" xMin="119" yMin="-303" xMax="1016" yMax="1231">
      <contour>
        <pt x="293" y="-21" on="0"/>
        <pt x="119" y="175" on="0"/>
        <pt x="119" y="373" on="1"/>
        <pt x="119" y="479" on="0"/>
        <pt x="146" y="617" on="1"/>
        <pt x="208" y="925" on="0"/>
        <pt x="496" y="1231" on="0"/>
        <pt x="712" y="1231" on="1"/>
        <pt x="802" y="1231" on="0"/>
        <pt x="947" y="1168" on="0"/>
        <pt x="1016" y="1113" on="1"/>
        <pt x="939" y="1011" on="1"/>
        <pt x="886" y="1048" on="0"/>
        <pt x="770" y="1095" on="0"/>
        <pt x="699" y="1095" on="1"/>
        <pt x="561" y="1095" on="0"/>
        <pt x="353" y="870" on="0"/>
        <pt x="297" y="593" on="1"/>
        <pt x="272" y="468" on="0"/>
        <pt x="272" y="374" on="1"/>
        <pt x="272" y="241" on="0"/>
        <pt x="380" y="115" on="0"/>
        <pt x="489" y="115" on="1"/>
        <pt x="559" y="115" on="0"/>
        <pt x="683" y="163" on="0"/>
        <pt x="770" y="211" on="1"/>
        <pt x="819" y="101" on="1"/>
        <pt x="753" y="63" on="0"/>
        <pt x="669" y="17" on="0"/>
        <pt x="621" y="-2" on="1"/>
        <pt x="615" y="-41" on="1"/>
        <pt x="611" y="-77" on="0"/>
        <pt x="607" y="-95" on="1"/>
        <pt x="586" y="-199" on="0"/>
        <pt x="439" y="-303" on="0"/>
        <pt x="338" y="-303" on="1"/>
        <pt x="276" y="-303" on="0"/>
        <pt x="211" y="-285" on="1"/>
        <pt x="241" y="-162" on="1"/>
        <pt x="268" y="-166" on="0"/>
        <pt x="313" y="-166" on="1"/>
        <pt x="385" y="-166" on="0"/>
        <pt x="465" y="-103" on="0"/>
        <pt x="478" y="-39" on="1"/>
        <pt x="479" y="-38" on="0"/>
        <pt x="481" y="-23" on="0"/>
        <pt x="485" y="-15" on="1"/>
        <pt x="475" y="-21" on="0"/>
        <pt x="456" y="-21" on="1"/>
      </contour>
    </TTGlyph>
    <TTGlyph name="ccircumflex" xMin="10" yMin="-19" xMax="910" yMax="1643">
      <component glyphName="c" x="-106" y="0" flags="0x400"/>
      <component glyphName="uni0302" x="-77" y="0" flags="0x0"/>
    </TTGlyph>
    <TTGlyph name="ccircumflex.sc" xMin="-93" yMin="-21" xMax="955" yMax="1794">
      <component glyphName="c.sc" x="-106" y="0" flags="0x400"/>
      <component glyphName="uni0302" x="-32" y="151" flags="0x4"/>
    </TTGlyph>
    <TTGlyph name="cdotaccent" xMin="10" yMin="-19" xMax="862" yMax="1539">
      <component glyphName="c" x="-106" y="0" flags="0x400"/>
      <component glyphName="uni0307" x="-77" y="0" flags="0x0"/>
    </TTGlyph>
    <TTGlyph name="cdotaccent.sc" xMin="-93" yMin="-21" xMax="817" yMax="1690">
      <component glyphName="c.sc" x="-106" y="0" flags="0x400"/>
      <component glyphName="uni0307" x="-32" y="151" flags="0x4"/>
    </TTGlyph>
    <TTGlyph name="cedilla" xMin="105" yMin="-303" xMax="511" yMax="32">
      <component glyphName="uni0327" x="-106" y="0" flags="0x400"/>
    </TTGlyph>
    <TTGlyph name="circumflex" xMin="250" yMin="1248" xMax="881" yMax="1643">
      <component glyphName="uni0302" x="-106" y="0" flags="0x400"/>
    </TTGlyph>
    <TTGlyph name="colon" xMin="172" yMin="-23" xMax="674" yMax="1081">
      <component glyphName="period" x="-106" y="0" flags="0x400"/>
      <component glyphName="period" x="45" y="756" flags="0x4"/>
    </TTGlyph>
    <TTGlyph name="comma" xMin="133" yMin="-303" xMax="670" yMax="303">
      <contour>
        <pt x="133" y="-303" on="1"/>
        <pt x="393" y="303" on="1"/>
        <pt x="670" y="303" on="1"/>
        <pt x="262" y="-303" on="1"/>
      </contour>
    </TTGlyph>
    <TTGlyph name="copyright" xMin="-12" yMin="-174" xMax="1101" yMax="1384">
      <contour>
        <pt x="269" y="-174" on="0"/>
        <pt x="84" y="-49" on="0"/>
        <pt x="-12" y="185" on="0"/>
        <pt x="-12" y="347" on="1"/>
        <pt x="-12" y="467" on="0"/>
        <pt x="17" y="617" on="1"/>
        <pt x="64" y="852" on="0"/>
        <pt x="259" y="1198" on="0"/>
        <pt x="531" y="1384" on="0"/>
        <pt x="689" y="1384" on="1"/>
        <pt x="820" y="1384" on="0"/>
        <pt x="1005" y="1260" on="0"/>
        <pt x="1101" y="1027" on="0"/>
        <pt x="1101" y="865" on="1"/>
        <pt x="1101" y="737" on="0"/>
        <pt x="1072" y="593" on="1"/>
        <pt x="1025" y="359" on="0"/>
        <pt x="830" y="12" on="0"/>
        <pt x="558" y="-174" on="0"/>
        <pt x="399" y="-174" on="1"/>
      </contour>
      <contour>
        <pt x="535" y="-38" on="0"/>
        <pt x="742" y="126" on="0"/>
        <pt x="886" y="421" on="0"/>
        <pt x="926" y="619" on="1"/>
        <pt x="956" y="772" on="0"/>
        <pt x="956" y="884" on="1"/>
        <pt x="956" y="1058" on="0"/>
        <pt x="822" y="1248" on="0"/>
        <pt x="685" y="1248" on="1"/>
        <pt x="557" y="1248" on="0"/>
        <pt x="350" y="1086" on="0"/>
        <pt x="204" y="792" on="0"/>
        <pt x="164" y="595" on="1"/>
        <pt x="135" y="448" on="0"/>
        <pt x="135" y="332" on="1"/>
        <pt x="135" y="156" on="0"/>
        <pt x="270" y="-38" on="0"/>
        <pt x="407" y="-38" on="1"/>
      </contour>
      <contour>
        <pt x="406" y="303" on="0"/>
        <pt x="281" y="436" on="0"/>
        <pt x="281" y="542" on="1"/>
        <pt x="281" y="575" on="0"/>
        <pt x="289" y="617" on="1"/>
        <pt x="317" y="756" on="0"/>
        <pt x="498" y="908" on="0"/>
        <pt x="632" y="908" on="1"/>
        <pt x="674" y="908" on="0"/>
        <pt x="782" y="889" on="0"/>
        <pt x="819" y="877" on="1"/>
        <pt x="775" y="757" on="1"/>
        <pt x="713" y="772" on="0"/>
        <pt x="634" y="772" on="1"/>
        <pt x="563" y="772" on="0"/>
        <pt x="455" y="686" on="0"/>
        <pt x="437" y="593" on="1"/>
        <pt x="432" y="566" on="0"/>
        <pt x="432" y="548" on="1"/>
        <pt x="432" y="498" on="0"/>
        <pt x="493" y="448" on="0"/>
        <pt x="557" y="448" on="1"/>
        <pt x="631" y="448" on="0"/>
        <pt x="707" y="467" on="1"/>
        <pt x="719" y="345" on="1"/>
        <pt x="624" y="303" on="0"/>
        <pt x="525" y="303" on="1"/>
      </contour>
    </TTGlyph>
    <TTGlyph name="d" xMin="70" yMin="-15" xMax="1105" yMax="1513">
      <contour>
        <pt x="199" y="-15" on="0"/>
        <pt x="70" y="140" on="0"/>
        <pt x="70" y="287" on="1"/>
        <pt x="70" y="365" on="0"/>
        <pt x="90" y="468" on="1"/>
        <pt x="129" y="664" on="0"/>
        <pt x="306" y="940" on="0"/>
        <pt x="543" y="1080" on="0"/>
        <pt x="673" y="1080" on="1"/>
        <pt x="745" y="1080" on="0"/>
        <pt x="857" y="1062" on="1"/>
        <pt x="953" y="1513" on="1"/>
        <pt x="1105" y="1513" on="1"/>
        <pt x="802" y="0" on="1"/>
        <pt x="650" y="0" on="1"/>
        <pt x="692" y="200" on="1"/>
        <pt x="652" y="154" on="1"/>
        <pt x="488" y="-15" on="0"/>
        <pt x="322" y="-15" on="1"/>
      </contour>
      <contour>
        <pt x="417" y="121" on="0"/>
        <pt x="547" y="198" on="0"/>
        <pt x="628" y="281" on="1"/>
        <pt x="721" y="367" on="1"/>
        <pt x="842" y="935" on="1"/>
        <pt x="813" y="942" on="0"/>
        <pt x="733" y="951" on="0"/>
        <pt x="696" y="951" on="1"/>
        <pt x="529" y="951" on="0"/>
        <pt x="295" y="701" on="0"/>
        <pt x="246" y="455" on="1"/>
        <pt x="226" y="352" on="0"/>
        <pt x="226" y="287" on="1"/>
        <pt x="226" y="200" on="0"/>
        <pt x="290" y="121" on="0"/>
        <pt x="352" y="121" on="1"/>
      </contour>
    </TTGlyph>
    <TTGlyph name="d.sc" xMin="-61" yMin="0" xMax="885" yMax="1210">
      <component glyphName="D.hex" x="-106" y="0" flags="0x400"/>
    </TTGlyph>
    <TTGlyph name="dagger" xMin="124" yMin="-113" xMax="1059" yMax="1324">
      <contour>
        <pt x="503" y="772" on="1"/>
        <pt x="124" y="768" on="1"/>
        <pt x="152" y="911" on="1"/>
        <pt x="529" y="907" on="1"/>
        <pt x="607" y="1324" on="1"/>
        <pt x="770" y="1324" on="1"/>
        <pt x="681" y="907" on="1"/>
        <pt x="1059" y="911" on="1"/>
        <pt x="1031" y="768" on="1"/>
        <pt x="654" y="772" on="1"/>
        <pt x="476" y="-113" on="1"/>
        <pt x="325" y="-113" on="1"/>
      </contour>
    </TTGlyph>
    <TTGlyph name="dcaron.sc" xMin="-167" yMin="0" xMax="978" yMax="1794">
      <component glyphName="d.sc" x="-106" y="0" flags="0x400"/>
      <component glyphName="uni030C" x="-91" y="151" flags="0x4"/>
    </TTGlyph>
    <TTGlyph name="dcroat" xMin="70" yMin="-15" xMax="1226" yMax="1513">
      <contour>
        <pt x="199" y="-15" on="0"/>
        <pt x="70" y="140" on="0"/>
        <pt x="70" y="287" on="1"/>
        <pt x="70" y="365" on="0"/>
        <pt x="90" y="468" on="1"/>
        <pt x="129" y="664" on="0"/>
        <pt x="306" y="940" on="0"/>
        <pt x="543" y="1080" on="0"/>
        <pt x="673" y="1080" on="1"/>
        <pt x="745" y="1080" on="0"/>
        <pt x="857" y="1062" on="1"/>
        <pt x="895" y="1225" on="1"/>
        <pt x="634" y="1225" on="1"/>
        <pt x="662" y="1362" on="1"/>
        <pt x="923" y="1362" on="1"/>
        <pt x="953" y="1513" on="1"/>
        <pt x="1105" y="1513" on="1"/>
        <pt x="1075" y="1362" on="1"/>
        <pt x="1226" y="1362" on="1"/>
        <pt x="1198" y="1225" on="1"/>
        <pt x="1047" y="1225" on="1"/>
        <pt x="802" y="0" on="1"/>
        <pt x="650" y="0" on="1"/>
        <pt x="692" y="200" on="1"/>
        <pt x="652" y="154" on="1"/>
        <pt x="488" y="-15" on="0"/>
        <pt x="322" y="-15" on="1"/>
      </contour>
      <contour>
        <pt x="417" y="121" on="0"/>
        <pt x="547" y="198" on="0"/>
        <pt x="628" y="281" on="1"/>
        <pt x="721" y="367" on="1"/>
        <pt x="842" y="935" on="1"/>
        <pt x="813" y="942" on="0"/>
        <pt x="733" y="951" on="0"/>
        <pt x="696" y="951" on="1"/>
        <pt x="529" y="951" on="0"/>
        <pt x="295" y="701" on="0"/>
        <pt x="246" y="455" on="1"/>
        <pt x="226" y="352" on="0"/>
        <pt x="226" y="287" on="1"/>
        <pt x="226" y="200" on="0"/>
        <pt x="290" y="121" on="0"/>
        <pt x="352" y="121" on="1"/>
      </contour>
    </TTGlyph>
    <TTGlyph name="dcroat.sc" xMin="-103" yMin="0" xMax="885" yMax="1210">
      <component glyphName="eth.sc" x="-106" y="0" flags="0x400"/>
    </TTGlyph>
    <TTGlyph name="dieresis" xMin="282" yMin="1265" xMax="911" yMax="1524">
      <component glyphName="uni0308" x="-106" y="0" flags="0x400"/>
    </TTGlyph>
    <TTGlyph name="dollar" xMin="77" yMin="-303" xMax="1015" yMax="1664">
      <contour>
        <pt x="335" y="-14" on="1"/>
        <pt x="264" y="-8" on="0"/>
        <pt x="141" y="42" on="0"/>
        <pt x="77" y="84" on="1"/>
        <pt x="142" y="194" on="1"/>
        <pt x="194" y="162" on="0"/>
        <pt x="328" y="119" on="0"/>
        <pt x="389" y="119" on="1"/>
        <pt x="498" y="119" on="0"/>
        <pt x="652" y="235" on="0"/>
        <pt x="672" y="333" on="1"/>
        <pt x="677" y="360" on="0"/>
        <pt x="677" y="378" on="1"/>
        <pt x="677" y="429" on="0"/>
        <pt x="630" y="517" on="0"/>
        <pt x="562" y="587" on="0"/>
        <pt x="503" y="639" on="1"/>
        <pt x="434" y="700" on="0"/>
        <pt x="353" y="786" on="0"/>
        <pt x="295" y="904" on="0"/>
        <pt x="295" y="977" on="1"/>
        <pt x="295" y="1010" on="0"/>
        <pt x="303" y="1052" on="1"/>
        <pt x="318" y="1127" on="0"/>
        <pt x="404" y="1261" on="0"/>
        <pt x="539" y="1358" on="0"/>
        <pt x="625" y="1374" on="1"/>
        <pt x="688" y="1664" on="1"/>
        <pt x="840" y="1664" on="1"/>
        <pt x="777" y="1374" on="1"/>
        <pt x="897" y="1359" on="0"/>
        <pt x="1015" y="1289" on="1"/>
        <pt x="946" y="1181" on="1"/>
        <pt x="827" y="1244" on="0"/>
        <pt x="705" y="1244" on="1"/>
        <pt x="639" y="1244" on="0"/>
        <pt x="533" y="1185" on="0"/>
        <pt x="466" y="1091" on="0"/>
        <pt x="456" y="1039" on="1"/>
        <pt x="451" y="1012" on="0"/>
        <pt x="451" y="992" on="1"/>
        <pt x="451" y="941" on="0"/>
        <pt x="497" y="855" on="0"/>
        <pt x="565" y="786" on="0"/>
        <pt x="623" y="737" on="1"/>
        <pt x="691" y="679" on="0"/>
        <pt x="774" y="592" on="0"/>
        <pt x="832" y="471" on="0"/>
        <pt x="832" y="396" on="1"/>
        <pt x="832" y="358" on="0"/>
        <pt x="823" y="313" on="1"/>
        <pt x="808" y="240" on="0"/>
        <pt x="720" y="107" on="0"/>
        <pt x="579" y="10" on="0"/>
        <pt x="488" y="-8" on="1"/>
        <pt x="423" y="-303" on="1"/>
        <pt x="272" y="-303" on="1"/>
      </contour>
    </TTGlyph>
    <TTGlyph name="dotaccent" xMin="451" yMin="1250" xMax="743" yMax="1539">
      <component glyphName="uni0307" x="-106" y="0" flags="0x400"/>
    </TTGlyph>
    <TTGlyph name="dotlessi" xMin="15" yMin="0" xMax="719" yMax="1070">
      <contour>
        <pt x="696" y="0" on="1"/>
        <pt x="15" y="0" on="1"/>
        <pt x="38" y="113" on="1"/>
        <pt x="306" y="132" on="1"/>
        <pt x="468" y="938" on="1"/>
        <pt x="222" y="938" on="1"/>
        <pt x="244" y="1051" on="1"/>
        <pt x="577" y="1070" on="1"/>
        <pt x="645" y="1070" on="1"/>
        <pt x="457" y="132" on="1"/>
        <pt x="719" y="113" on="1"/>
      </contour>
    </TTGlyph>
    <TTGlyph name="dotlessi.sc" xMin="-61" yMin="0" xMax="786" yMax="1210">
      <component glyphName="i.sc" x="-106" y="0" flags="0x400"/>
    </TTGlyph>
    <TTGlyph name="e" xMin="95" yMin="-19" xMax="914" yMax="1074">
      <contour>
        <pt x="150" y="716" on="0"/>
        <pt x="300" y="956" on="0"/>
        <pt x="504" y="1074" on="0"/>
        <pt x="622" y="1074" on="1"/>
        <pt x="765" y="1074" on="0"/>
        <pt x="914" y="909" on="0"/>
        <pt x="914" y="764" on="1"/>
        <pt x="914" y="651" on="0"/>
        <pt x="867" y="510" on="1"/>
        <pt x="265" y="510" on="1"/>
        <pt x="249" y="420" on="0"/>
        <pt x="249" y="360" on="1"/>
        <pt x="249" y="237" on="0"/>
        <pt x="363" y="117" on="0"/>
        <pt x="480" y="117" on="1"/>
        <pt x="546" y="117" on="0"/>
        <pt x="668" y="146" on="0"/>
        <pt x="741" y="172" on="1"/>
        <pt x="765" y="45" on="1"/>
        <pt x="598" y="-19" on="0"/>
        <pt x="465" y="-19" on="1"/>
        <pt x="292" y="-19" on="0"/>
        <pt x="95" y="164" on="0"/>
        <pt x="95" y="355" on="1"/>
        <pt x="95" y="442" on="0"/>
        <pt x="115" y="541" on="1"/>
      </contour>
      <contour>
        <pt x="751" y="655" on="1"/>
        <pt x="765" y="720" on="0"/>
        <pt x="765" y="769" on="1"/>
        <pt x="765" y="851" on="0"/>
        <pt x="688" y="942" on="0"/>
        <pt x="609" y="942" on="1"/>
        <pt x="498" y="942" on="0"/>
        <pt x="343" y="784" on="0"/>
        <pt x="299" y="643" on="1"/>
      </contour>
    </TTGlyph>
    <TTGlyph name="e.sc" xMin="-38" yMin="0" xMax="913" yMax="1210">
      <component glyphName="E.hex" x="-106" y="0" flags="0x400"/>
    </TTGlyph>
    <TTGlyph name="eacute" xMin="-11" yMin="-19" xMax="952" yMax="1643">
      <component glyphName="e" x="-106" y="0" flags="0x400"/>
      <component glyphName="acutecomb" x="-115" y="0" flags="0x0"/>
    </TTGlyph>
    <TTGlyph name="eacute.sc" xMin="-144" yMin="0" xMax="1001" yMax="1794">
      <component glyphName="e.sc" x="-106" y="0" flags="0x400"/>
      <component glyphName="acutecomb" x="-66" y="151" flags="0x4"/>
    </TTGlyph>
    <TTGlyph name="ebreve" xMin="-11" yMin="-19" xMax="918" yMax="1593">
      <component glyphName="e" x="-106" y="0" flags="0x400"/>
      <component glyphName="uni0306" x="-115" y="0" flags="0x0"/>
    </TTGlyph>
    <TTGlyph name="ebreve.sc" xMin="-144" yMin="0" xMax="967" yMax="1744">
      <component glyphName="e.sc" x="-106" y="0" flags="0x400"/>
      <component glyphName="uni0306" x="-66" y="151" flags="0x4"/>
    </TTGlyph>
    <TTGlyph name="ecaron" xMin="-11" yMin="-19" xMax="954" yMax="1643">
      <component glyphName="e" x="-106" y="0" flags="0x400"/>
      <component glyphName="uni030C" x="-115" y="0" flags="0x0"/>
    </TTGlyph>
    <TTGlyph name="ecaron.sc" xMin="-144" yMin="0" xMax="1003" yMax="1794">
      <component glyphName="e.sc" x="-106" y="0" flags="0x400"/>
      <component glyphName="uni030C" x="-66" y="151" flags="0x4"/>
    </TTGlyph>
    <TTGlyph name="ecircumflex" xMin="-11" yMin="-19" xMax="872" yMax="1643">
      <component glyphName="e" x="-106" y="0" flags="0x400"/>
      <component glyphName="uni0302" x="-115" y="0" flags="0x0"/>
    </TTGlyph>
    <TTGlyph name="ecircumflex.sc" xMin="-144" yMin="0" xMax="921" yMax="1794">
      <component glyphName="e.sc" x="-106" y="0" flags="0x400"/>
      <component glyphName="uni0302" x="-66" y="151" flags="0x4"/>
    </TTGlyph>
    <TTGlyph name="edieresis" xMin="-11" yMin="-19" xMax="902" yMax="1524">
      <component glyphName="e" x="-106" y="0" flags="0x400"/>
      <component glyphName="uni0308" x="-115" y="0" flags="0x0"/>
    </TTGlyph>
    <TTGlyph name="edieresis.sc" xMin="-144" yMin="0" xMax="951" yMax="1675">
      <component glyphName="e.sc" x="-106" y="0" flags="0x400"/>
      <component glyphName="uni0308" x="-66" y="151" flags="0x4"/>
    </TTGlyph>
    <TTGlyph name="edotaccent" xMin="-11" yMin="-19" xMax="808" yMax="1539">
      <component glyphName="e" x="-106" y="0" flags="0x400"/>
      <component glyphName="uni0307" x="-115" y="0" flags="0x0"/>
    </TTGlyph>
    <TTGlyph name="edotaccent.sc" xMin="-144" yMin="0" xMax="807" yMax="1690">
      <component glyphName="e.sc" x="-106" y="0" flags="0x400"/>
      <component glyphName="uni0307" x="-66" y="151" flags="0x4"/>
    </TTGlyph>
    <TTGlyph name="egrave" xMin="-11" yMin="-19" xMax="808" yMax="1643">
      <component glyphName="e" x="-106" y="0" flags="0x400"/>
      <component glyphName="gravecomb" x="-115" y="0" flags="0x0"/>
    </TTGlyph>
    <TTGlyph name="egrave.sc" xMin="-144" yMin="0" xMax="807" yMax="1794">
      <component glyphName="e.sc" x="-106" y="0" flags="0x400"/>
      <component glyphName="gravecomb" x="-66" y="151" flags="0x4"/>
    </TTGlyph>
    <TTGlyph name="eight" xMin="49" yMin="-19" xMax="1019" yMax="1380">
      <contour>
        <pt x="237" y="-19" on="0"/>
        <pt x="49" y="129" on="0"/>
        <pt x="49" y="252" on="1"/>
        <pt x="49" y="288" on="0"/>
        <pt x="56" y="322" on="1"/>
        <pt x="81" y="448" on="0"/>
        <pt x="274" y="629" on="0"/>
        <pt x="427" y="711" on="1"/>
        <pt x="367" y="774" on="1"/>
        <pt x="305" y="831" on="0"/>
        <pt x="243" y="931" on="0"/>
        <pt x="243" y="1002" on="1"/>
        <pt x="243" y="1036" on="0"/>
        <pt x="250" y="1071" on="1"/>
        <pt x="268" y="1157" on="0"/>
        <pt x="390" y="1298" on="0"/>
        <pt x="577" y="1380" on="0"/>
        <pt x="689" y="1380" on="1"/>
        <pt x="789" y="1380" on="0"/>
        <pt x="939" y="1310" on="0"/>
        <pt x="1019" y="1184" on="0"/>
        <pt x="1019" y="1103" on="1"/>
        <pt x="1019" y="1068" on="0"/>
        <pt x="1012" y="1034" on="1"/>
        <pt x="997" y="961" on="0"/>
        <pt x="915" y="846" on="0"/>
        <pt x="797" y="750" on="0"/>
        <pt x="697" y="682" on="1"/>
        <pt x="770" y="609" on="1"/>
        <pt x="846" y="538" on="0"/>
        <pt x="912" y="418" on="0"/>
        <pt x="912" y="355" on="1"/>
        <pt x="912" y="326" on="0"/>
        <pt x="906" y="294" on="1"/>
        <pt x="890" y="213" on="0"/>
        <pt x="763" y="69" on="0"/>
        <pt x="557" y="-19" on="0"/>
        <pt x="427" y="-19" on="1"/>
      </contour>
      <contour>
        <pt x="209" y="289" on="0"/>
        <pt x="209" y="274" on="1"/>
        <pt x="209" y="234" on="0"/>
        <pt x="253" y="163" on="0"/>
        <pt x="354" y="117" on="0"/>
        <pt x="433" y="117" on="1"/>
        <pt x="520" y="117" on="0"/>
        <pt x="656" y="168" on="0"/>
        <pt x="739" y="258" on="0"/>
        <pt x="751" y="316" on="1"/>
        <pt x="755" y="333" on="0"/>
        <pt x="755" y="352" on="1"/>
        <pt x="755" y="386" on="0"/>
        <pt x="715" y="453" on="0"/>
        <pt x="664" y="501" on="1"/>
        <pt x="526" y="619" on="1"/>
        <pt x="385" y="549" on="0"/>
        <pt x="232" y="400" on="0"/>
        <pt x="212" y="302" on="1"/>
      </contour>
      <contour>
        <pt x="402" y="1035" on="0"/>
        <pt x="402" y="1013" on="1"/>
        <pt x="402" y="975" on="0"/>
        <pt x="437" y="914" on="0"/>
        <pt x="476" y="877" on="1"/>
        <pt x="607" y="768" on="1"/>
        <pt x="691" y="829" on="0"/>
        <pt x="777" y="899" on="0"/>
        <pt x="846" y="996" on="0"/>
        <pt x="859" y="1058" on="1"/>
        <pt x="863" y="1082" on="0"/>
        <pt x="863" y="1094" on="1"/>
        <pt x="863" y="1158" on="0"/>
        <pt x="773" y="1246" on="0"/>
        <pt x="680" y="1246" on="1"/>
        <pt x="607" y="1246" on="0"/>
        <pt x="491" y="1197" on="0"/>
        <pt x="417" y="1111" on="0"/>
        <pt x="406" y="1055" on="1"/>
      </contour>
    </TTGlyph>
    <TTGlyph name="ellipsis" xMin="29" yMin="-23" xMax="851" yMax="189">
      <contour>
        <pt x="84" y="-23" on="0"/>
        <pt x="29" y="29" on="0"/>
        <pt x="29" y="70" on="1"/>
        <pt x="29" y="122" on="0"/>
        <pt x="99" y="189" on="0"/>
        <pt x="148" y="189" on="1"/>
        <pt x="192" y="189" on="0"/>
        <pt x="246" y="138" on="0"/>
        <pt x="246" y="97" on="1"/>
        <pt x="246" y="45" on="0"/>
        <pt x="177" y="-23" on="0"/>
        <pt x="127" y="-23" on="1"/>
      </contour>
      <contour>
        <pt x="386" y="-23" on="0"/>
        <pt x="332" y="28" on="0"/>
        <pt x="332" y="69" on="1"/>
        <pt x="332" y="122" on="0"/>
        <pt x="401" y="189" on="0"/>
        <pt x="450" y="189" on="1"/>
        <pt x="495" y="189" on="0"/>
        <pt x="548" y="139" on="0"/>
        <pt x="548" y="98" on="1"/>
        <pt x="548" y="45" on="0"/>
        <pt x="480" y="-23" on="0"/>
        <pt x="429" y="-23" on="1"/>
      </contour>
      <contour>
        <pt x="689" y="-23" on="0"/>
        <pt x="634" y="29" on="0"/>
        <pt x="634" y="70" on="1"/>
        <pt x="634" y="122" on="0"/>
        <pt x="704" y="189" on="0"/>
        <pt x="753" y="189" on="1"/>
        <pt x="797" y="189" on="0"/>
        <pt x="851" y="138" on="0"/>
        <pt x="851" y="97" on="1"/>
        <pt x="851" y="45" on="0"/>
        <pt x="782" y="-23" on="0"/>
        <pt x="732" y="-23" on="1"/>
      </contour>
    </TTGlyph>
    <TTGlyph name="emacron" xMin="-11" yMin="-19" xMax="896" yMax="1471">
      <component glyphName="e" x="-106" y="0" flags="0x400"/>
      <component glyphName="uni0304" x="-115" y="0" flags="0x0"/>
    </TTGlyph>
    <TTGlyph name="emacron.sc" xMin="-144" yMin="0" xMax="945" yMax="1622">
      <component glyphName="e.sc" x="-106" y="0" flags="0x400"/>
      <component glyphName="uni0304" x="-66" y="151" flags="0x4"/>
    </TTGlyph>
    <TTGlyph name="emdash" xMin="15" yMin="605" xMax="1101" yMax="738">
      <contour>
        <pt x="42" y="738" on="1"/>
        <pt x="1101" y="738" on="1"/>
        <pt x="1074" y="605" on="1"/>
        <pt x="15" y="605" on="1"/>
      </contour>
    </TTGlyph>
    <TTGlyph name="endash" xMin="15" yMin="605" xMax="1101" yMax="738">
      <contour>
        <pt x="42" y="738" on="1"/>
        <pt x="1101" y="738" on="1"/>
        <pt x="1074" y="605" on="1"/>
        <pt x="15" y="605" on="1"/>
      </contour>
    </TTGlyph>
    <TTGlyph name="eogonek" xMin="95" yMin="-303" xMax="914" yMax="1074">
      <contour>
        <pt x="517" y="-303" on="0"/>
        <pt x="427" y="-239" on="0"/>
        <pt x="427" y="-180" on="1"/>
        <pt x="427" y="-165" on="0"/>
        <pt x="430" y="-147" on="1"/>
        <pt x="445" y="-68" on="0"/>
        <pt x="538" y="-11" on="1"/>
        <pt x="512" y="-19" on="0"/>
        <pt x="465" y="-19" on="1"/>
        <pt x="292" y="-19" on="0"/>
        <pt x="95" y="164" on="0"/>
        <pt x="95" y="355" on="1"/>
        <pt x="95" y="442" on="0"/>
        <pt x="115" y="541" on="1"/>
        <pt x="150" y="716" on="0"/>
        <pt x="300" y="956" on="0"/>
        <pt x="504" y="1074" on="0"/>
        <pt x="622" y="1074" on="1"/>
        <pt x="765" y="1074" on="0"/>
        <pt x="914" y="909" on="0"/>
        <pt x="914" y="764" on="1"/>
        <pt x="914" y="651" on="0"/>
        <pt x="867" y="510" on="1"/>
        <pt x="265" y="510" on="1"/>
        <pt x="249" y="420" on="0"/>
        <pt x="249" y="360" on="1"/>
        <pt x="249" y="237" on="0"/>
        <pt x="363" y="117" on="0"/>
        <pt x="480" y="117" on="1"/>
        <pt x="546" y="117" on="0"/>
        <pt x="668" y="146" on="0"/>
        <pt x="741" y="172" on="1"/>
        <pt x="764" y="44" on="1"/>
        <pt x="689" y="3" on="0"/>
        <pt x="600" y="-79" on="0"/>
        <pt x="591" y="-124" on="1"/>
        <pt x="590" y="-128" on="0"/>
        <pt x="590" y="-136" on="1"/>
        <pt x="590" y="-152" on="0"/>
        <pt x="614" y="-166" on="0"/>
        <pt x="640" y="-166" on="1"/>
        <pt x="675" y="-166" on="0"/>
        <pt x="719" y="-155" on="1"/>
        <pt x="725" y="-284" on="1"/>
        <pt x="659" y="-303" on="0"/>
        <pt x="597" y="-303" on="1"/>
      </contour>
      <contour>
        <pt x="751" y="655" on="1"/>
        <pt x="765" y="720" on="0"/>
        <pt x="765" y="769" on="1"/>
        <pt x="765" y="851" on="0"/>
        <pt x="688" y="942" on="0"/>
        <pt x="609" y="942" on="1"/>
        <pt x="498" y="942" on="0"/>
        <pt x="343" y="784" on="0"/>
        <pt x="299" y="643" on="1"/>
      </contour>
    </TTGlyph>
    <TTGlyph name="eogonek.sc" xMin="68" yMin="-303" xMax="1019" yMax="1210">
      <contour>
        <pt x="310" y="1210" on="1"/>
        <pt x="1019" y="1210" on="1"/>
        <pt x="992" y="1074" on="1"/>
        <pt x="434" y="1074" on="1"/>
        <pt x="355" y="677" on="1"/>
        <pt x="845" y="677" on="1"/>
        <pt x="817" y="541" on="1"/>
        <pt x="327" y="541" on="1"/>
        <pt x="246" y="136" on="1"/>
        <pt x="812" y="136" on="1"/>
        <pt x="790" y="-2" on="1"/>
        <pt x="718" y="-20" on="0"/>
        <pt x="633" y="-91" on="0"/>
        <pt x="625" y="-129" on="1"/>
        <pt x="624" y="-132" on="0"/>
        <pt x="624" y="-139" on="1"/>
        <pt x="624" y="-153" on="0"/>
        <pt x="648" y="-166" on="0"/>
        <pt x="675" y="-166" on="1"/>
        <pt x="712" y="-166" on="0"/>
        <pt x="754" y="-156" on="1"/>
        <pt x="759" y="-284" on="1"/>
        <pt x="693" y="-303" on="0"/>
        <pt x="631" y="-303" on="1"/>
        <pt x="551" y="-303" on="0"/>
        <pt x="461" y="-239" on="0"/>
        <pt x="461" y="-180" on="1"/>
        <pt x="461" y="-171" on="0"/>
        <pt x="465" y="-147" on="1"/>
        <pt x="482" y="-58" on="0"/>
        <pt x="610" y="3" on="1"/>
        <pt x="68" y="0" on="1"/>
      </contour>
    </TTGlyph>
    <TTGlyph name="equal" xMin="24" yMin="461" xMax="1095" yMax="900">
      <contour>
        <pt x="112" y="900" on="1"/>
        <pt x="1095" y="900" on="1"/>
        <pt x="1068" y="764" on="1"/>
        <pt x="85" y="764" on="1"/>
      </contour>
      <contour>
        <pt x="52" y="598" on="1"/>
        <pt x="1035" y="598" on="1"/>
        <pt x="1007" y="461" on="1"/>
        <pt x="24" y="461" on="1"/>
      </contour>
    </TTGlyph>
    <TTGlyph name="eth.sc" xMin="3" yMin="0" xMax="991" yMax="1210">
      <contour>
        <pt x="991" y="1210" on="0"/>
        <pt x="991" y="817" on="1"/>
        <pt x="991" y="719" on="0"/>
        <pt x="967" y="597" on="1"/>
        <pt x="928" y="401" on="0"/>
        <pt x="759" y="134" on="0"/>
        <pt x="522" y="0" on="0"/>
        <pt x="379" y="0" on="1"/>
        <pt x="45" y="0" on="1"/>
        <pt x="154" y="545" on="1"/>
        <pt x="3" y="545" on="1"/>
        <pt x="30" y="681" on="1"/>
        <pt x="181" y="681" on="1"/>
        <pt x="287" y="1210" on="1"/>
        <pt x="600" y="1210" on="1"/>
      </contour>
      <contour>
        <pt x="412" y="1074" on="1"/>
        <pt x="333" y="681" on="1"/>
        <pt x="594" y="681" on="1"/>
        <pt x="567" y="545" on="1"/>
        <pt x="306" y="545" on="1"/>
        <pt x="224" y="136" on="1"/>
        <pt x="404" y="136" on="1"/>
        <pt x="554" y="136" on="0"/>
        <pt x="760" y="360" on="0"/>
        <pt x="811" y="615" on="1"/>
        <pt x="835" y="735" on="0"/>
        <pt x="835" y="819" on="1"/>
        <pt x="835" y="954" on="0"/>
        <pt x="714" y="1074" on="0"/>
        <pt x="591" y="1074" on="1"/>
      </contour>
    </TTGlyph>
    <TTGlyph name="exclam" xMin="278" yMin="-23" xMax="825" yMax="1362">
      <contour>
        <pt x="568" y="1362" on="1"/>
        <pt x="825" y="1362" on="1"/>
        <pt x="581" y="529" on="1"/>
        <pt x="478" y="529" on="1"/>
      </contour>
      <contour>
        <pt x="361" y="-23" on="0"/>
        <pt x="278" y="60" on="0"/>
        <pt x="278" y="124" on="1"/>
        <pt x="278" y="144" on="0"/>
        <pt x="282" y="161" on="1"/>
        <pt x="291" y="206" on="0"/>
        <pt x="349" y="281" on="0"/>
        <pt x="433" y="325" on="0"/>
        <pt x="478" y="325" on="1"/>
        <pt x="546" y="325" on="0"/>
        <pt x="629" y="242" on="0"/>
        <pt x="629" y="177" on="1"/>
        <pt x="629" y="156" on="0"/>
        <pt x="625" y="137" on="1"/>
        <pt x="616" y="94" on="0"/>
        <pt x="558" y="20" on="0"/>
        <pt x="474" y="-23" on="0"/>
        <pt x="429" y="-23" on="1"/>
      </contour>
    </TTGlyph>
    <TTGlyph name="exclamdown" xMin="234" yMin="-303" xMax="781" yMax="1082">
      <contour>
        <pt x="491" y="-303" on="1"/>
        <pt x="234" y="-303" on="1"/>
        <pt x="478" y="530" on="1"/>
        <pt x="581" y="530" on="1"/>
      </contour>
      <contour>
        <pt x="698" y="1082" on="0"/>
        <pt x="781" y="999" on="0"/>
        <pt x="781" y="935" on="1"/>
        <pt x="781" y="915" on="0"/>
        <pt x="777" y="898" on="1"/>
        <pt x="768" y="853" on="0"/>
        <pt x="710" y="778" on="0"/>
        <pt x="626" y="734" on="0"/>
        <pt x="581" y="734" on="1"/>
        <pt x="513" y="734" on="0"/>
        <pt x="430" y="817" on="0"/>
        <pt x="430" y="882" on="1"/>
        <pt x="430" y="903" on="0"/>
        <pt x="434" y="922" on="1"/>
        <pt x="443" y="965" on="0"/>
        <pt x="501" y="1039" on="0"/>
        <pt x="585" y="1082" on="0"/>
        <pt x="630" y="1082" on="1"/>
      </contour>
    </TTGlyph>
    <TTGlyph name="f" xMin="68" yMin="-330" xMax="1126" yMax="1536">
      <contour>
        <pt x="194" y="-149" on="0"/>
        <pt x="341" y="17" on="0"/>
        <pt x="365" y="140" on="1"/>
        <pt x="522" y="923" on="1"/>
        <pt x="219" y="923" on="1"/>
        <pt x="246" y="1059" on="1"/>
        <pt x="549" y="1059" on="1"/>
        <pt x="583" y="1228" on="1"/>
        <pt x="612" y="1376" on="0"/>
        <pt x="794" y="1536" on="0"/>
        <pt x="929" y="1536" on="1"/>
        <pt x="1021" y="1536" on="0"/>
        <pt x="1126" y="1499" on="1"/>
        <pt x="1078" y="1375" on="1"/>
        <pt x="1047" y="1386" on="0"/>
        <pt x="970" y="1399" on="0"/>
        <pt x="937" y="1399" on="1"/>
        <pt x="852" y="1399" on="0"/>
        <pt x="749" y="1304" on="0"/>
        <pt x="733" y="1223" on="1"/>
        <pt x="700" y="1059" on="1"/>
        <pt x="1033" y="1059" on="1"/>
        <pt x="1006" y="923" on="1"/>
        <pt x="673" y="923" on="1"/>
        <pt x="515" y="134" on="1"/>
        <pt x="480" y="-40" on="0"/>
        <pt x="279" y="-256" on="0"/>
        <pt x="115" y="-330" on="1"/>
        <pt x="68" y="-213" on="1"/>
      </contour>
    </TTGlyph>
    <TTGlyph name="f.sc" xMin="-23" yMin="0" xMax="938" yMax="1210">
      <component glyphName="F.hex" x="-106" y="0" flags="0x400"/>
    </TTGlyph>
    <TTGlyph name="five" xMin="-21" yMin="-322" xMax="976" yMax="1210">
      <contour>
        <pt x="198" y="-166" on="0"/>
        <pt x="487" y="-59" on="0"/>
        <pt x="652" y="110" on="0"/>
        <pt x="677" y="235" on="1"/>
        <pt x="683" y="262" on="0"/>
        <pt x="683" y="290" on="1"/>
        <pt x="683" y="383" on="0"/>
        <pt x="548" y="503" on="0"/>
        <pt x="410" y="503" on="1"/>
        <pt x="342" y="503" on="0"/>
        <pt x="229" y="493" on="0"/>
        <pt x="159" y="483" on="1"/>
        <pt x="299" y="1210" on="1"/>
        <pt x="976" y="1210" on="1"/>
        <pt x="949" y="1074" on="1"/>
        <pt x="423" y="1074" on="1"/>
        <pt x="329" y="632" on="1"/>
        <pt x="404" y="637" on="0"/>
        <pt x="448" y="637" on="1"/>
        <pt x="583" y="637" on="0"/>
        <pt x="761" y="553" on="0"/>
        <pt x="846" y="407" on="0"/>
        <pt x="846" y="313" on="1"/>
        <pt x="846" y="272" on="0"/>
        <pt x="836" y="219" on="1"/>
        <pt x="792" y="0" on="0"/>
        <pt x="375" y="-273" on="0"/>
        <pt x="-15" y="-322" on="1"/>
        <pt x="-21" y="-198" on="1"/>
      </contour>
    </TTGlyph>
    <TTGlyph name="florin" xMin="189" yMin="0" xMax="1126" yMax="1536">
      <contour>
        <pt x="492" y="772" on="1"/>
        <pt x="189" y="772" on="1"/>
        <pt x="216" y="908" on="1"/>
        <pt x="519" y="908" on="1"/>
        <pt x="583" y="1228" on="1"/>
        <pt x="612" y="1376" on="0"/>
        <pt x="794" y="1536" on="0"/>
        <pt x="929" y="1536" on="1"/>
        <pt x="1021" y="1536" on="0"/>
        <pt x="1126" y="1499" on="1"/>
        <pt x="1078" y="1375" on="1"/>
        <pt x="1047" y="1386" on="0"/>
        <pt x="970" y="1399" on="0"/>
        <pt x="937" y="1399" on="1"/>
        <pt x="852" y="1399" on="0"/>
        <pt x="749" y="1304" on="0"/>
        <pt x="733" y="1223" on="1"/>
        <pt x="670" y="908" on="1"/>
        <pt x="1003" y="908" on="1"/>
        <pt x="976" y="772" on="1"/>
        <pt x="643" y="772" on="1"/>
        <pt x="488" y="0" on="1"/>
        <pt x="337" y="0" on="1"/>
      </contour>
    </TTGlyph>
    <TTGlyph name="four" xMin="7" yMin="-151" xMax="904" yMax="1210">
      <contour>
        <pt x="575" y="151" on="1"/>
        <pt x="7" y="151" on="1"/>
        <pt x="25" y="248" on="1"/>
        <pt x="646" y="1210" on="1"/>
        <pt x="806" y="1210" on="1"/>
        <pt x="200" y="284" on="1"/>
        <pt x="602" y="284" on="1"/>
        <pt x="687" y="709" on="1"/>
        <pt x="838" y="709" on="1"/>
        <pt x="753" y="284" on="1"/>
        <pt x="904" y="284" on="1"/>
        <pt x="877" y="151" on="1"/>
        <pt x="726" y="151" on="1"/>
        <pt x="666" y="-151" on="1"/>
        <pt x="515" y="-151" on="1"/>
      </contour>
    </TTGlyph>
    <TTGlyph name="g" xMin="-39" yMin="-318" xMax="1002" yMax="1080">
      <contour>
        <pt x="225" y="136" on="0"/>
        <pt x="91" y="278" on="0"/>
        <pt x="91" y="410" on="1"/>
        <pt x="91" y="476" on="0"/>
        <pt x="105" y="543" on="1"/>
        <pt x="139" y="713" on="0"/>
        <pt x="311" y="956" on="0"/>
        <pt x="545" y="1080" on="0"/>
        <pt x="673" y="1080" on="1"/>
        <pt x="762" y="1080" on="0"/>
        <pt x="917" y="1050" on="0"/>
        <pt x="1002" y="1023" on="1"/>
        <pt x="821" y="96" on="1"/>
        <pt x="795" y="-38" on="0"/>
        <pt x="659" y="-224" on="0"/>
        <pt x="464" y="-318" on="0"/>
        <pt x="348" y="-318" on="1"/>
        <pt x="144" y="-318" on="0"/>
        <pt x="-39" y="-186" on="1"/>
        <pt x="36" y="-81" on="1"/>
        <pt x="110" y="-131" on="0"/>
        <pt x="252" y="-182" on="0"/>
        <pt x="333" y="-182" on="1"/>
        <pt x="472" y="-182" on="0"/>
        <pt x="642" y="-39" on="0"/>
        <pt x="669" y="95" on="1"/>
        <pt x="722" y="352" on="1"/>
        <pt x="682" y="305" on="1"/>
        <pt x="518" y="136" on="0"/>
        <pt x="352" y="136" on="1"/>
      </contour>
      <contour>
        <pt x="447" y="272" on="0"/>
        <pt x="577" y="349" on="0"/>
        <pt x="658" y="432" on="1"/>
        <pt x="752" y="518" on="1"/>
        <pt x="842" y="935" on="1"/>
        <pt x="813" y="942" on="0"/>
        <pt x="733" y="951" on="0"/>
        <pt x="696" y="951" on="1"/>
        <pt x="531" y="951" on="0"/>
        <pt x="302" y="735" on="0"/>
        <pt x="261" y="531" on="1"/>
        <pt x="248" y="467" on="0"/>
        <pt x="248" y="419" on="1"/>
        <pt x="248" y="341" on="0"/>
        <pt x="316" y="272" on="0"/>
        <pt x="382" y="272" on="1"/>
      </contour>
    </TTGlyph>
    <TTGlyph name="g.sc" xMin="119" yMin="-21" xMax="1016" yMax="1231">
      <contour>
        <pt x="304" y="-21" on="0"/>
        <pt x="119" y="175" on="0"/>
        <pt x="119" y="375" on="1"/>
        <pt x="119" y="481" on="0"/>
        <pt x="146" y="617" on="1"/>
        <pt x="208" y="926" on="0"/>
        <pt x="499" y="1231" on="0"/>
        <pt x="720" y="1231" on="1"/>
        <pt x="804" y="1231" on="0"/>
        <pt x="947" y="1185" on="0"/>
        <pt x="1016" y="1143" on="1"/>
        <pt x="948" y="1030" on="1"/>
        <pt x="826" y="1095" on="0"/>
        <pt x="714" y="1095" on="1"/>
        <pt x="565" y="1095" on="0"/>
        <pt x="353" y="872" on="0"/>
        <pt x="297" y="593" on="1"/>
        <pt x="272" y="469" on="0"/>
        <pt x="272" y="377" on="1"/>
        <pt x="272" y="242" on="0"/>
        <pt x="386" y="115" on="0"/>
        <pt x="503" y="115" on="1"/>
        <pt x="581" y="115" on="0"/>
        <pt x="673" y="140" on="1"/>
        <pt x="744" y="469" on="1"/>
        <pt x="506" y="469" on="1"/>
        <pt x="533" y="605" on="1"/>
        <pt x="923" y="605" on="1"/>
        <pt x="816" y="45" on="1"/>
        <pt x="645" y="-21" on="0"/>
        <pt x="482" y="-21" on="1"/>
      </contour>
    </TTGlyph>
    <TTGlyph name="gbreve" xMin="-145" yMin="-318" xMax="946" yMax="1593">
      <component glyphName="g" x="-106" y="0" flags="0x400"/>
      <component glyphName="uni0306" x="-87" y="0" flags="0x0"/>
    </TTGlyph>
    <TTGlyph name="gbreve.sc" xMin="13" yMin="-21" xMax="1001" yMax="1744">
      <component glyphName="g.sc" x="-106" y="0" flags="0x400"/>
      <component glyphName="uni0306" x="-32" y="151" flags="0x4"/>
    </TTGlyph>
    <TTGlyph name="gcaron" xMin="-145" yMin="-318" xMax="982" yMax="1643">
      <component glyphName="g" x="-106" y="0" flags="0x400"/>
      <component glyphName="uni030C" x="-87" y="0" flags="0x0"/>
    </TTGlyph>
    <TTGlyph name="gcaron.sc" xMin="13" yMin="-21" xMax="1037" yMax="1794">
      <component glyphName="g.sc" x="-106" y="0" flags="0x400"/>
      <component glyphName="uni030C" x="-32" y="151" flags="0x4"/>
    </TTGlyph>
    <TTGlyph name="gcircumflex" xMin="-145" yMin="-318" xMax="900" yMax="1643">
      <component glyphName="g" x="-106" y="0" flags="0x400"/>
      <component glyphName="uni0302" x="-87" y="0" flags="0x0"/>
    </TTGlyph>
    <TTGlyph name="gcircumflex.sc" xMin="13" yMin="-21" xMax="955" yMax="1794">
      <component glyphName="g.sc" x="-106" y="0" flags="0x400"/>
      <component glyphName="uni0302" x="-32" y="151" flags="0x4"/>
    </TTGlyph>
    <TTGlyph name="gdotaccent" xMin="-145" yMin="-318" xMax="896" yMax="1539">
      <component glyphName="g" x="-106" y="0" flags="0x400"/>
      <component glyphName="uni0307" x="-87" y="0" flags="0x0"/>
    </TTGlyph>
    <TTGlyph name="gdotaccent.sc" xMin="13" yMin="-21" xMax="910" yMax="1690">
      <component glyphName="g.sc" x="-106" y="0" flags="0x400"/>
      <component glyphName="uni0307" x="-32" y="151" flags="0x4"/>
    </TTGlyph>
    <TTGlyph name="germandbls" xMin="-223" yMin="-330" xMax="978" yMax="1532">
      <contour>
        <pt x="-98" y="-150" on="0"/>
        <pt x="49" y="16" on="0"/>
        <pt x="73" y="140" on="1"/>
        <pt x="278" y="1163" on="1"/>
        <pt x="302" y="1282" on="0"/>
        <pt x="418" y="1448" on="0"/>
        <pt x="586" y="1532" on="0"/>
        <pt x="687" y="1532" on="1"/>
        <pt x="823" y="1532" on="0"/>
        <pt x="978" y="1395" on="0"/>
        <pt x="978" y="1273" on="1"/>
        <pt x="978" y="1232" on="0"/>
        <pt x="969" y="1185" on="1"/>
        <pt x="956" y="1120" on="0"/>
        <pt x="892" y="1009" on="0"/>
        <pt x="818" y="925" on="0"/>
        <pt x="762" y="870" on="1"/>
        <pt x="705" y="814" on="0"/>
        <pt x="648" y="744" on="0"/>
        <pt x="641" y="708" on="1"/>
        <pt x="639" y="696" on="0"/>
        <pt x="639" y="692" on="1"/>
        <pt x="639" y="668" on="0"/>
        <pt x="668" y="630" on="0"/>
        <pt x="710" y="601" on="0"/>
        <pt x="751" y="577" on="1"/>
        <pt x="808" y="544" on="0"/>
        <pt x="882" y="488" on="0"/>
        <pt x="935" y="398" on="0"/>
        <pt x="935" y="335" on="1"/>
        <pt x="935" y="302" on="0"/>
        <pt x="928" y="268" on="1"/>
        <pt x="913" y="195" on="0"/>
        <pt x="809" y="63" on="0"/>
        <pt x="644" y="-19" on="0"/>
        <pt x="544" y="-19" on="1"/>
        <pt x="484" y="-19" on="0"/>
        <pt x="391" y="9" on="0"/>
        <pt x="336" y="36" on="1"/>
        <pt x="388" y="138" on="1"/>
        <pt x="424" y="123" on="0"/>
        <pt x="488" y="110" on="0"/>
        <pt x="524" y="110" on="1"/>
        <pt x="592" y="110" on="0"/>
        <pt x="700" y="163" on="0"/>
        <pt x="767" y="249" on="0"/>
        <pt x="777" y="298" on="1"/>
        <pt x="780" y="315" on="0"/>
        <pt x="780" y="329" on="1"/>
        <pt x="780" y="364" on="0"/>
        <pt x="746" y="414" on="0"/>
        <pt x="695" y="448" on="0"/>
        <pt x="651" y="471" on="1"/>
        <pt x="598" y="499" on="0"/>
        <pt x="533" y="544" on="0"/>
        <pt x="488" y="619" on="0"/>
        <pt x="488" y="673" on="1"/>
        <pt x="488" y="701" on="0"/>
        <pt x="494" y="732" on="1"/>
        <pt x="502" y="775" on="0"/>
        <pt x="543" y="842" on="0"/>
        <pt x="595" y="893" on="0"/>
        <pt x="637" y="928" on="1"/>
        <pt x="686" y="969" on="0"/>
        <pt x="749" y="1034" on="0"/>
        <pt x="802" y="1129" on="0"/>
        <pt x="815" y="1192" on="1"/>
        <pt x="823" y="1234" on="0"/>
        <pt x="823" y="1263" on="1"/>
        <pt x="823" y="1399" on="0"/>
        <pt x="676" y="1399" on="1"/>
        <pt x="579" y="1399" on="0"/>
        <pt x="451" y="1271" on="0"/>
        <pt x="428" y="1153" on="1"/>
        <pt x="224" y="134" on="1"/>
        <pt x="189" y="-40" on="0"/>
        <pt x="-12" y="-256" on="0"/>
        <pt x="-176" y="-330" on="1"/>
        <pt x="-223" y="-213" on="1"/>
      </contour>
    </TTGlyph>
    <TTGlyph name="germandbls.sc" xMin="-1" yMin="-303" xMax="908" yMax="1229">
      <contour>
        <pt x="222" y="-17" on="0"/>
        <pt x="73" y="35" on="0"/>
        <pt x="-1" y="84" on="1"/>
        <pt x="64" y="194" on="1"/>
        <pt x="117" y="162" on="0"/>
        <pt x="251" y="119" on="0"/>
        <pt x="312" y="119" on="1"/>
        <pt x="422" y="119" on="0"/>
        <pt x="571" y="221" on="0"/>
        <pt x="589" y="309" on="1"/>
        <pt x="592" y="326" on="0"/>
        <pt x="592" y="342" on="1"/>
        <pt x="592" y="385" on="0"/>
        <pt x="546" y="458" on="0"/>
        <pt x="478" y="517" on="0"/>
        <pt x="418" y="561" on="1"/>
        <pt x="345" y="614" on="0"/>
        <pt x="258" y="693" on="0"/>
        <pt x="196" y="803" on="0"/>
        <pt x="196" y="873" on="1"/>
        <pt x="196" y="907" on="0"/>
        <pt x="203" y="939" on="1"/>
        <pt x="218" y="1014" on="0"/>
        <pt x="321" y="1147" on="0"/>
        <pt x="486" y="1229" on="0"/>
        <pt x="589" y="1229" on="1"/>
        <pt x="756" y="1229" on="0"/>
        <pt x="908" y="1137" on="1"/>
        <pt x="839" y="1030" on="1"/>
        <pt x="714" y="1093" on="0"/>
        <pt x="598" y="1093" on="1"/>
        <pt x="531" y="1093" on="0"/>
        <pt x="427" y="1044" on="0"/>
        <pt x="363" y="965" on="0"/>
        <pt x="354" y="920" on="1"/>
        <pt x="351" y="904" on="0"/>
        <pt x="351" y="887" on="1"/>
        <pt x="351" y="843" on="0"/>
        <pt x="397" y="769" on="0"/>
        <pt x="465" y="710" on="0"/>
        <pt x="525" y="665" on="1"/>
        <pt x="596" y="613" on="0"/>
        <pt x="685" y="533" on="0"/>
        <pt x="747" y="421" on="0"/>
        <pt x="747" y="351" on="1"/>
        <pt x="747" y="317" on="0"/>
        <pt x="740" y="285" on="1"/>
        <pt x="722" y="196" on="0"/>
        <pt x="589" y="45" on="0"/>
        <pt x="482" y="4" on="1"/>
        <pt x="478" y="-17" on="0"/>
        <pt x="477" y="-34" on="1"/>
        <pt x="473" y="-74" on="0"/>
        <pt x="468" y="-95" on="1"/>
        <pt x="447" y="-199" on="0"/>
        <pt x="300" y="-303" on="0"/>
        <pt x="199" y="-303" on="1"/>
        <pt x="137" y="-303" on="0"/>
        <pt x="72" y="-285" on="1"/>
        <pt x="102" y="-162" on="1"/>
        <pt x="129" y="-166" on="0"/>
        <pt x="174" y="-166" on="1"/>
        <pt x="246" y="-166" on="0"/>
        <pt x="326" y="-103" on="0"/>
        <pt x="339" y="-39" on="1"/>
        <pt x="339" y="-38" on="0"/>
        <pt x="342" y="-21" on="0"/>
        <pt x="347" y="-11" on="1"/>
        <pt x="335" y="-17" on="0"/>
        <pt x="315" y="-17" on="1"/>
      </contour>
    </TTGlyph>
    <TTGlyph name="grave" xMin="514" yMin="756" xMax="802" yMax="1362">
      <contour>
        <pt x="514" y="1362" on="1"/>
        <pt x="785" y="1362" on="1"/>
        <pt x="802" y="756" on="1"/>
        <pt x="679" y="756" on="1"/>
      </contour>
    </TTGlyph>
    <TTGlyph name="gravecomb" xMin="442" yMin="1248" xMax="764" yMax="1643">
      <contour>
        <pt x="626" y="1248" on="1"/>
        <pt x="442" y="1643" on="1"/>
        <pt x="698" y="1643" on="1"/>
        <pt x="764" y="1248" on="1"/>
      </contour>
    </TTGlyph>
    <TTGlyph name="gravecomb.case" xMin="487" yMin="1475" xMax="810" yMax="1870">
      <contour>
        <pt x="671" y="1475" on="1"/>
        <pt x="487" y="1870" on="1"/>
        <pt x="744" y="1870" on="1"/>
        <pt x="810" y="1475" on="1"/>
      </contour>
    </TTGlyph>
    <TTGlyph name="greater" xMin="33" yMin="-68" xMax="976" yMax="1432">
      <contour>
        <pt x="801" y="671" on="1"/>
        <pt x="293" y="1231" on="1"/>
        <pt x="330" y="1432" on="1"/>
        <pt x="976" y="717" on="1"/>
        <pt x="965" y="647" on="1"/>
        <pt x="33" y="-68" on="1"/>
        <pt x="65" y="110" on="1"/>
      </contour>
    </TTGlyph>
    <TTGlyph name="h" xMin="45" yMin="0" xMax="966" yMax="1513">
      <contour>
        <pt x="505" y="987" on="0"/>
        <pt x="656" y="1074" on="0"/>
        <pt x="745" y="1074" on="1"/>
        <pt x="853" y="1074" on="0"/>
        <pt x="966" y="967" on="0"/>
        <pt x="966" y="864" on="1"/>
        <pt x="966" y="819" on="0"/>
        <pt x="956" y="769" on="1"/>
        <pt x="802" y="0" on="1"/>
        <pt x="650" y="0" on="1"/>
        <pt x="805" y="776" on="1"/>
        <pt x="813" y="818" on="0"/>
        <pt x="813" y="844" on="1"/>
        <pt x="813" y="890" on="0"/>
        <pt x="768" y="934" on="0"/>
        <pt x="717" y="934" on="1"/>
        <pt x="653" y="934" on="0"/>
        <pt x="524" y="861" on="0"/>
        <pt x="433" y="779" on="1"/>
        <pt x="339" y="702" on="1"/>
        <pt x="197" y="0" on="1"/>
        <pt x="45" y="0" on="1"/>
        <pt x="348" y="1513" on="1"/>
        <pt x="500" y="1513" on="1"/>
        <pt x="367" y="857" on="1"/>
        <pt x="407" y="898" on="1"/>
      </contour>
    </TTGlyph>
    <TTGlyph name="h.sc" xMin="45" yMin="0" xMax="1044" yMax="1210">
      <contour>
        <pt x="287" y="1210" on="1"/>
        <pt x="439" y="1210" on="1"/>
        <pt x="333" y="681" on="1"/>
        <pt x="786" y="681" on="1"/>
        <pt x="892" y="1210" on="1"/>
        <pt x="1044" y="1210" on="1"/>
        <pt x="802" y="0" on="1"/>
        <pt x="650" y="0" on="1"/>
        <pt x="759" y="545" on="1"/>
        <pt x="306" y="545" on="1"/>
        <pt x="197" y="0" on="1"/>
        <pt x="45" y="0" on="1"/>
      </contour>
    </TTGlyph>
    <TTGlyph name="h.short" xMin="45" yMin="0" xMax="966" yMax="1362">
      <contour>
        <pt x="505" y="987" on="0"/>
        <pt x="656" y="1074" on="0"/>
        <pt x="745" y="1074" on="1"/>
        <pt x="853" y="1074" on="0"/>
        <pt x="966" y="967" on="0"/>
        <pt x="966" y="864" on="1"/>
        <pt x="966" y="819" on="0"/>
        <pt x="956" y="769" on="1"/>
        <pt x="802" y="0" on="1"/>
        <pt x="650" y="0" on="1"/>
        <pt x="805" y="776" on="1"/>
        <pt x="813" y="818" on="0"/>
        <pt x="813" y="844" on="1"/>
        <pt x="813" y="890" on="0"/>
        <pt x="768" y="934" on="0"/>
        <pt x="717" y="934" on="1"/>
        <pt x="653" y="934" on="0"/>
        <pt x="524" y="861" on="0"/>
        <pt x="433" y="779" on="1"/>
        <pt x="339" y="702" on="1"/>
        <pt x="197" y="0" on="1"/>
        <pt x="45" y="0" on="1"/>
        <pt x="318" y="1362" on="1"/>
        <pt x="470" y="1362" on="1"/>
        <pt x="367" y="857" on="1"/>
        <pt x="407" y="898" on="1"/>
      </contour>
    </TTGlyph>
    <TTGlyph name="hbar" xMin="45" yMin="0" xMax="966" yMax="1513">
      <contour>
        <pt x="505" y="987" on="0"/>
        <pt x="656" y="1074" on="0"/>
        <pt x="745" y="1074" on="1"/>
        <pt x="853" y="1074" on="0"/>
        <pt x="966" y="967" on="0"/>
        <pt x="966" y="864" on="1"/>
        <pt x="966" y="819" on="0"/>
        <pt x="956" y="769" on="1"/>
        <pt x="802" y="0" on="1"/>
        <pt x="650" y="0" on="1"/>
        <pt x="805" y="776" on="1"/>
        <pt x="813" y="818" on="0"/>
        <pt x="813" y="844" on="1"/>
        <pt x="813" y="890" on="0"/>
        <pt x="768" y="934" on="0"/>
        <pt x="717" y="934" on="1"/>
        <pt x="653" y="934" on="0"/>
        <pt x="524" y="861" on="0"/>
        <pt x="433" y="779" on="1"/>
        <pt x="339" y="702" on="1"/>
        <pt x="197" y="0" on="1"/>
        <pt x="45" y="0" on="1"/>
        <pt x="290" y="1225" on="1"/>
        <pt x="139" y="1225" on="1"/>
        <pt x="167" y="1362" on="1"/>
        <pt x="318" y="1362" on="1"/>
        <pt x="348" y="1513" on="1"/>
        <pt x="500" y="1513" on="1"/>
        <pt x="470" y="1362" on="1"/>
        <pt x="731" y="1362" on="1"/>
        <pt x="703" y="1225" on="1"/>
        <pt x="442" y="1225" on="1"/>
        <pt x="367" y="857" on="1"/>
        <pt x="407" y="898" on="1"/>
      </contour>
    </TTGlyph>
    <TTGlyph name="hbar.sc" xMin="45" yMin="0" xMax="1165" yMax="1210">
      <contour>
        <pt x="230" y="923" on="1"/>
        <pt x="79" y="923" on="1"/>
        <pt x="106" y="1059" on="1"/>
        <pt x="257" y="1059" on="1"/>
        <pt x="287" y="1210" on="1"/>
        <pt x="439" y="1210" on="1"/>
        <pt x="409" y="1059" on="1"/>
        <pt x="862" y="1059" on="1"/>
        <pt x="892" y="1210" on="1"/>
        <pt x="1044" y="1210" on="1"/>
        <pt x="1014" y="1059" on="1"/>
        <pt x="1165" y="1059" on="1"/>
        <pt x="1138" y="923" on="1"/>
        <pt x="987" y="923" on="1"/>
        <pt x="802" y="0" on="1"/>
        <pt x="650" y="0" on="1"/>
        <pt x="759" y="545" on="1"/>
        <pt x="306" y="545" on="1"/>
        <pt x="197" y="0" on="1"/>
        <pt x="45" y="0" on="1"/>
      </contour>
      <contour>
        <pt x="786" y="681" on="1"/>
        <pt x="835" y="923" on="1"/>
        <pt x="382" y="923" on="1"/>
        <pt x="333" y="681" on="1"/>
      </contour>
    </TTGlyph>
    <TTGlyph name="hcircumflex" xMin="-61" yMin="0" xMax="926" yMax="1870">
      <component glyphName="h.short" x="-106" y="0" flags="0x400"/>
      <component glyphName="uni0302.case" x="-106" y="0" flags="0x0"/>
    </TTGlyph>
    <TTGlyph name="hcircumflex.sc" xMin="-61" yMin="0" xMax="938" yMax="1794">
      <component glyphName="h.sc" x="-106" y="0" flags="0x400"/>
      <component glyphName="uni0302" x="-76" y="151" flags="0x4"/>
    </TTGlyph>
    <TTGlyph name="hyphen" xMin="166" yMin="605" xMax="950" yMax="738">
      <contour>
        <pt x="193" y="738" on="1"/>
        <pt x="950" y="738" on="1"/>
        <pt x="923" y="605" on="1"/>
        <pt x="166" y="605" on="1"/>
      </contour>
    </TTGlyph>
    <TTGlyph name="i" xMin="-91" yMin="0" xMax="666" yMax="1539">
      <component glyphName="dotlessi" x="-106" y="0" flags="0x400"/>
      <component glyphName="uni0307" x="-183" y="0" flags="0x0"/>
    </TTGlyph>
    <TTGlyph name="i.sc" xMin="45" yMin="0" xMax="892" yMax="1210">
      <contour>
        <pt x="69" y="121" on="1"/>
        <pt x="299" y="136" on="1"/>
        <pt x="487" y="1074" on="1"/>
        <pt x="263" y="1089" on="1"/>
        <pt x="287" y="1210" on="1"/>
        <pt x="892" y="1210" on="1"/>
        <pt x="868" y="1089" on="1"/>
        <pt x="638" y="1074" on="1"/>
        <pt x="450" y="136" on="1"/>
        <pt x="674" y="121" on="1"/>
        <pt x="650" y="0" on="1"/>
        <pt x="45" y="0" on="1"/>
      </contour>
    </TTGlyph>
    <TTGlyph name="iacute" xMin="-91" yMin="0" xMax="884" yMax="1643">
      <component glyphName="dotlessi" x="-106" y="0" flags="0x400"/>
      <component glyphName="acutecomb" x="-183" y="0" flags="0x0"/>
    </TTGlyph>
    <TTGlyph name="iacute.sc" xMin="-61" yMin="0" xMax="916" yMax="1794">
      <component glyphName="i.sc" x="-106" y="0" flags="0x400"/>
      <component glyphName="acutecomb" x="-151" y="151" flags="0x4"/>
    </TTGlyph>
    <TTGlyph name="ibreve" xMin="-91" yMin="0" xMax="850" yMax="1593">
      <component glyphName="dotlessi" x="-106" y="0" flags="0x400"/>
      <component glyphName="uni0306" x="-183" y="0" flags="0x0"/>
    </TTGlyph>
    <TTGlyph name="ibreve.sc" xMin="-61" yMin="0" xMax="882" yMax="1744">
      <component glyphName="i.sc" x="-106" y="0" flags="0x400"/>
      <component glyphName="uni0306" x="-151" y="151" flags="0x4"/>
    </TTGlyph>
    <TTGlyph name="icircumflex" xMin="-91" yMin="0" xMax="804" yMax="1643">
      <component glyphName="dotlessi" x="-106" y="0" flags="0x400"/>
      <component glyphName="uni0302" x="-183" y="0" flags="0x0"/>
    </TTGlyph>
    <TTGlyph name="icircumflex.sc" xMin="-61" yMin="0" xMax="836" yMax="1794">
      <component glyphName="i.sc" x="-106" y="0" flags="0x400"/>
      <component glyphName="uni0302" x="-151" y="151" flags="0x4"/>
    </TTGlyph>
    <TTGlyph name="idieresis" xMin="-91" yMin="0" xMax="834" yMax="1524">
      <component glyphName="dotlessi" x="-106" y="0" flags="0x400"/>
      <component glyphName="uni0308" x="-183" y="0" flags="0x0"/>
    </TTGlyph>
    <TTGlyph name="idieresis.sc" xMin="-61" yMin="0" xMax="866" yMax="1675">
      <component glyphName="i.sc" x="-106" y="0" flags="0x400"/>
      <component glyphName="uni0308" x="-151" y="151" flags="0x4"/>
    </TTGlyph>
    <TTGlyph name="igrave" xMin="-91" yMin="0" xMax="613" yMax="1643">
      <component glyphName="dotlessi" x="-106" y="0" flags="0x400"/>
      <component glyphName="gravecomb" x="-183" y="0" flags="0x0"/>
    </TTGlyph>
    <TTGlyph name="igrave.sc" xMin="-61" yMin="0" xMax="786" yMax="1794">
      <component glyphName="i.sc" x="-106" y="0" flags="0x400"/>
      <component glyphName="gravecomb" x="-151" y="151" flags="0x4"/>
    </TTGlyph>
    <TTGlyph name="imacron" xMin="-91" yMin="0" xMax="828" yMax="1471">
      <component glyphName="dotlessi" x="-106" y="0" flags="0x400"/>
      <component glyphName="uni0304" x="-183" y="0" flags="0x0"/>
    </TTGlyph>
    <TTGlyph name="imacron.sc" xMin="-61" yMin="0" xMax="860" yMax="1622">
      <component glyphName="i.sc" x="-106" y="0" flags="0x400"/>
      <component glyphName="uni0304" x="-151" y="151" flags="0x4"/>
    </TTGlyph>
    <TTGlyph name="iogonek" xMin="15" yMin="-303" xMax="772" yMax="1539">
      <contour>
        <pt x="701" y="-2" on="1"/>
        <pt x="629" y="-20" on="0"/>
        <pt x="544" y="-91" on="0"/>
        <pt x="536" y="-129" on="1"/>
        <pt x="535" y="-132" on="0"/>
        <pt x="535" y="-139" on="1"/>
        <pt x="535" y="-153" on="0"/>
        <pt x="559" y="-166" on="0"/>
        <pt x="586" y="-166" on="1"/>
        <pt x="623" y="-166" on="0"/>
        <pt x="665" y="-156" on="1"/>
        <pt x="670" y="-284" on="1"/>
        <pt x="604" y="-303" on="0"/>
        <pt x="542" y="-303" on="1"/>
        <pt x="462" y="-303" on="0"/>
        <pt x="372" y="-239" on="0"/>
        <pt x="372" y="-180" on="1"/>
        <pt x="372" y="-171" on="0"/>
        <pt x="376" y="-147" on="1"/>
        <pt x="393" y="-58" on="0"/>
        <pt x="521" y="3" on="1"/>
        <pt x="15" y="0" on="1"/>
        <pt x="38" y="113" on="1"/>
        <pt x="306" y="132" on="1"/>
        <pt x="468" y="938" on="1"/>
        <pt x="222" y="938" on="1"/>
        <pt x="244" y="1051" on="1"/>
        <pt x="577" y="1070" on="1"/>
        <pt x="645" y="1070" on="1"/>
        <pt x="457" y="132" on="1"/>
        <pt x="718" y="113" on="1"/>
      </contour>
      <contour>
        <pt x="549" y="1250" on="0"/>
        <pt x="480" y="1317" on="0"/>
        <pt x="480" y="1371" on="1"/>
        <pt x="480" y="1382" on="0"/>
        <pt x="484" y="1406" on="1"/>
        <pt x="495" y="1462" on="0"/>
        <pt x="587" y="1539" on="0"/>
        <pt x="645" y="1539" on="1"/>
        <pt x="703" y="1539" on="0"/>
        <pt x="772" y="1470" on="0"/>
        <pt x="772" y="1415" on="1"/>
        <pt x="772" y="1399" on="0"/>
        <pt x="769" y="1382" on="1"/>
        <pt x="758" y="1326" on="0"/>
        <pt x="664" y="1250" on="0"/>
        <pt x="606" y="1250" on="1"/>
      </contour>
    </TTGlyph>
    <TTGlyph name="iogonek.sc" xMin="45" yMin="-303" xMax="892" yMax="1210">
      <contour>
        <pt x="69" y="121" on="1"/>
        <pt x="299" y="136" on="1"/>
        <pt x="487" y="1074" on="1"/>
        <pt x="263" y="1089" on="1"/>
        <pt x="287" y="1210" on="1"/>
        <pt x="892" y="1210" on="1"/>
        <pt x="868" y="1089" on="1"/>
        <pt x="638" y="1074" on="1"/>
        <pt x="450" y="136" on="1"/>
        <pt x="674" y="121" on="1"/>
        <pt x="655" y="-2" on="1"/>
        <pt x="583" y="-20" on="0"/>
        <pt x="498" y="-91" on="0"/>
        <pt x="490" y="-129" on="1"/>
        <pt x="489" y="-132" on="0"/>
        <pt x="489" y="-139" on="1"/>
        <pt x="489" y="-153" on="0"/>
        <pt x="513" y="-166" on="0"/>
        <pt x="540" y="-166" on="1"/>
        <pt x="577" y="-166" on="0"/>
        <pt x="619" y="-156" on="1"/>
        <pt x="624" y="-284" on="1"/>
        <pt x="558" y="-303" on="0"/>
        <pt x="496" y="-303" on="1"/>
        <pt x="416" y="-303" on="0"/>
        <pt x="326" y="-239" on="0"/>
        <pt x="326" y="-180" on="1"/>
        <pt x="326" y="-171" on="0"/>
        <pt x="330" y="-147" on="1"/>
        <pt x="347" y="-58" on="0"/>
        <pt x="475" y="3" on="1"/>
        <pt x="45" y="0" on="1"/>
      </contour>
    </TTGlyph>
    <TTGlyph name="itilde" xMin="-91" yMin="0" xMax="876" yMax="1564">
      <component glyphName="dotlessi" x="-106" y="0" flags="0x400"/>
      <component glyphName="tildecomb" x="-183" y="0" flags="0x0"/>
    </TTGlyph>
    <TTGlyph name="itilde.sc" xMin="-61" yMin="0" xMax="908" yMax="1715">
      <component glyphName="i.sc" x="-106" y="0" flags="0x400"/>
      <component glyphName="tildecomb" x="-151" y="151" flags="0x4"/>
    </TTGlyph>
    <TTGlyph name="j" xMin="-202" yMin="-280" xMax="647" yMax="1539">
      <component glyphName="uni0237" x="-106" y="0" flags="0x400"/>
      <component glyphName="uni0307" x="-202" y="0" flags="0x0"/>
    </TTGlyph>
    <TTGlyph name="j.sc" xMin="-15" yMin="-23" xMax="908" yMax="1210">
      <contour>
        <pt x="196" y="-23" on="0"/>
        <pt x="44" y="86" on="0"/>
        <pt x="-15" y="194" on="1"/>
        <pt x="99" y="267" on="1"/>
        <pt x="145" y="190" on="0"/>
        <pt x="243" y="113" on="0"/>
        <pt x="313" y="113" on="1"/>
        <pt x="417" y="113" on="0"/>
        <pt x="564" y="251" on="0"/>
        <pt x="590" y="380" on="1"/>
        <pt x="729" y="1074" on="1"/>
        <pt x="306" y="1074" on="1"/>
        <pt x="333" y="1210" on="1"/>
        <pt x="908" y="1210" on="1"/>
        <pt x="742" y="378" on="1"/>
        <pt x="717" y="253" on="0"/>
        <pt x="594" y="72" on="0"/>
        <pt x="417" y="-23" on="0"/>
        <pt x="312" y="-23" on="1"/>
      </contour>
    </TTGlyph>
    <TTGlyph name="jcircumflex" xMin="-202" yMin="-280" xMax="785" yMax="1643">
      <component glyphName="uni0237" x="-106" y="0" flags="0x400"/>
      <component glyphName="uni0302" x="-202" y="0" flags="0x0"/>
    </TTGlyph>
    <TTGlyph name="jcircumflex.sc" xMin="-121" yMin="-23" xMax="866" yMax="1794">
      <component glyphName="j.sc" x="-106" y="0" flags="0x400"/>
      <component glyphName="uni0302" x="-121" y="151" flags="0x4"/>
    </TTGlyph>
    <TTGlyph name="k" xMin="45" yMin="0" xMax="974" yMax="1513">
      <contour>
        <pt x="45" y="0" on="1"/>
        <pt x="348" y="1513" on="1"/>
        <pt x="500" y="1513" on="1"/>
        <pt x="316" y="606" on="1"/>
        <pt x="790" y="1059" on="1"/>
        <pt x="974" y="1059" on="1"/>
        <pt x="430" y="565" on="1"/>
        <pt x="781" y="0" on="1"/>
        <pt x="584" y="0" on="1"/>
        <pt x="296" y="483" on="1"/>
        <pt x="197" y="0" on="1"/>
      </contour>
    </TTGlyph>
    <TTGlyph name="k.sc" xMin="45" yMin="0" xMax="1032" yMax="1210">
      <contour>
        <pt x="45" y="0" on="1"/>
        <pt x="287" y="1210" on="1"/>
        <pt x="439" y="1210" on="1"/>
        <pt x="327" y="659" on="1"/>
        <pt x="854" y="1210" on="1"/>
        <pt x="1032" y="1210" on="1"/>
        <pt x="460" y="630" on="1"/>
        <pt x="817" y="0" on="1"/>
        <pt x="632" y="0" on="1"/>
        <pt x="315" y="581" on="1"/>
        <pt x="197" y="0" on="1"/>
      </contour>
    </TTGlyph>
    <TTGlyph name="l" xMin="7" yMin="0" xMax="728" yMax="1524">
      <contour>
        <pt x="30" y="113" on="1"/>
        <pt x="298" y="132" on="1"/>
        <pt x="551" y="1392" on="1"/>
        <pt x="305" y="1392" on="1"/>
        <pt x="327" y="1505" on="1"/>
        <pt x="660" y="1524" on="1"/>
        <pt x="728" y="1524" on="1"/>
        <pt x="449" y="132" on="1"/>
        <pt x="711" y="113" on="1"/>
        <pt x="688" y="0" on="1"/>
        <pt x="7" y="0" on="1"/>
      </contour>
    </TTGlyph>
    <TTGlyph name="l.sc" xMin="45" yMin="0" xMax="753" yMax="1210">
      <contour>
        <pt x="287" y="1210" on="1"/>
        <pt x="439" y="1210" on="1"/>
        <pt x="224" y="136" on="1"/>
        <pt x="753" y="136" on="1"/>
        <pt x="726" y="0" on="1"/>
        <pt x="45" y="0" on="1"/>
      </contour>
    </TTGlyph>
    <TTGlyph name="lacute" xMin="-99" yMin="0" xMax="974" yMax="2021">
      <component glyphName="l" x="-106" y="0" flags="0x400"/>
      <component glyphName="acutecomb.case" x="-138" y="151" flags="0x4"/>
    </TTGlyph>
    <TTGlyph name="lacute.sc" xMin="-61" yMin="0" xMax="708" yMax="1794">
      <component glyphName="l.sc" x="-106" y="0" flags="0x400"/>
      <component glyphName="acutecomb" x="-359" y="151" flags="0x4"/>
    </TTGlyph>
    <TTGlyph name="less" xMin="144" yMin="-70" xMax="1086" yMax="1430">
      <contour>
        <pt x="319" y="692" on="1"/>
        <pt x="827" y="131" on="1"/>
        <pt x="790" y="-70" on="1"/>
        <pt x="144" y="645" on="1"/>
        <pt x="155" y="715" on="1"/>
        <pt x="1086" y="1430" on="1"/>
        <pt x="1054" y="1252" on="1"/>
      </contour>
    </TTGlyph>
    <TTGlyph name="m" xMin="45" yMin="0" xMax="1272" yMax="1074">
      <contour>
        <pt x="462" y="989" on="0"/>
        <pt x="585" y="1074" on="0"/>
        <pt x="652" y="1074" on="1"/>
        <pt x="732" y="1074" on="0"/>
        <pt x="816" y="980" on="0"/>
        <pt x="816" y="892" on="1"/>
        <pt x="816" y="871" on="0"/>
        <pt x="815" y="860" on="1"/>
        <pt x="842" y="903" on="1"/>
        <pt x="910" y="990" on="0"/>
        <pt x="1037" y="1074" on="0"/>
        <pt x="1106" y="1074" on="1"/>
        <pt x="1187" y="1074" on="0"/>
        <pt x="1272" y="978" on="0"/>
        <pt x="1272" y="887" on="1"/>
        <pt x="1272" y="840" on="0"/>
        <pt x="1260" y="781" on="1"/>
        <pt x="1104" y="0" on="1"/>
        <pt x="953" y="0" on="1"/>
        <pt x="1110" y="787" on="1"/>
        <pt x="1119" y="832" on="0"/>
        <pt x="1119" y="861" on="1"/>
        <pt x="1119" y="900" on="0"/>
        <pt x="1088" y="934" on="0"/>
        <pt x="1057" y="934" on="1"/>
        <pt x="1009" y="934" on="0"/>
        <pt x="915" y="853" on="0"/>
        <pt x="858" y="770" on="1"/>
        <pt x="788" y="679" on="1"/>
        <pt x="650" y="0" on="1"/>
        <pt x="499" y="0" on="1"/>
        <pt x="657" y="789" on="1"/>
        <pt x="665" y="828" on="0"/>
        <pt x="665" y="860" on="1"/>
        <pt x="665" y="900" on="0"/>
        <pt x="634" y="934" on="0"/>
        <pt x="603" y="934" on="1"/>
        <pt x="555" y="934" on="0"/>
        <pt x="461" y="853" on="0"/>
        <pt x="404" y="770" on="1"/>
        <pt x="335" y="679" on="1"/>
        <pt x="197" y="0" on="1"/>
        <pt x="45" y="0" on="1"/>
        <pt x="257" y="1059" on="1"/>
        <pt x="409" y="1059" on="1"/>
        <pt x="368" y="862" on="1"/>
        <pt x="395" y="903" on="1"/>
      </contour>
    </TTGlyph>
    <TTGlyph name="m.sc" xMin="30" yMin="0" xMax="1267" yMax="1210">
      <contour>
        <pt x="618" y="199" on="1"/>
        <pt x="1052" y="1210" on="1"/>
        <pt x="1267" y="1210" on="1"/>
        <pt x="1119" y="0" on="1"/>
        <pt x="976" y="0" on="1"/>
        <pt x="1098" y="995" on="1"/>
        <pt x="672" y="0" on="1"/>
        <pt x="479" y="0" on="1"/>
        <pt x="452" y="994" on="1"/>
        <pt x="174" y="0" on="1"/>
        <pt x="30" y="0" on="1"/>
        <pt x="367" y="1210" on="1"/>
        <pt x="591" y="1210" on="1"/>
      </contour>
    </TTGlyph>
    <TTGlyph name="macron" xMin="288" yMin="1320" xMax="905" yMax="1471">
      <component glyphName="uni0304" x="-106" y="0" flags="0x400"/>
    </TTGlyph>
    <TTGlyph name="minus" xMin="55" yMin="613" xMax="1065" yMax="749">
      <contour>
        <pt x="82" y="749" on="1"/>
        <pt x="1065" y="749" on="1"/>
        <pt x="1038" y="613" on="1"/>
        <pt x="55" y="613" on="1"/>
      </contour>
    </TTGlyph>
    <TTGlyph name="n" xMin="45" yMin="0" xMax="966" yMax="1074">
      <contour>
        <pt x="505" y="987" on="0"/>
        <pt x="656" y="1074" on="0"/>
        <pt x="745" y="1074" on="1"/>
        <pt x="853" y="1074" on="0"/>
        <pt x="966" y="967" on="0"/>
        <pt x="966" y="864" on="1"/>
        <pt x="966" y="819" on="0"/>
        <pt x="956" y="769" on="1"/>
        <pt x="802" y="0" on="1"/>
        <pt x="650" y="0" on="1"/>
        <pt x="805" y="776" on="1"/>
        <pt x="813" y="818" on="0"/>
        <pt x="813" y="844" on="1"/>
        <pt x="813" y="890" on="0"/>
        <pt x="768" y="934" on="0"/>
        <pt x="717" y="934" on="1"/>
        <pt x="653" y="934" on="0"/>
        <pt x="524" y="861" on="0"/>
        <pt x="433" y="779" on="1"/>
        <pt x="339" y="702" on="1"/>
        <pt x="197" y="0" on="1"/>
        <pt x="45" y="0" on="1"/>
        <pt x="257" y="1059" on="1"/>
        <pt x="409" y="1059" on="1"/>
        <pt x="367" y="857" on="1"/>
        <pt x="407" y="898" on="1"/>
      </contour>
    </TTGlyph>
    <TTGlyph name="n.sc" xMin="45" yMin="0" xMax="1044" yMax="1210">
      <contour>
        <pt x="287" y="1210" on="1"/>
        <pt x="446" y="1210" on="1"/>
        <pt x="729" y="342" on="1"/>
        <pt x="904" y="1210" on="1"/>
        <pt x="1044" y="1210" on="1"/>
        <pt x="802" y="0" on="1"/>
        <pt x="671" y="0" on="1"/>
        <pt x="372" y="927" on="1"/>
        <pt x="185" y="0" on="1"/>
        <pt x="45" y="0" on="1"/>
      </contour>
    </TTGlyph>
    <TTGlyph name="nacute" xMin="-61" yMin="0" xMax="961" yMax="1643">
      <component glyphName="n" x="-106" y="0" flags="0x400"/>
      <component glyphName="acutecomb" x="-106" y="0" flags="0x0"/>
    </TTGlyph>
    <TTGlyph name="nacute.sc" xMin="-61" yMin="0" xMax="991" yMax="1794">
      <component glyphName="n.sc" x="-106" y="0" flags="0x400"/>
      <component glyphName="acutecomb" x="-76" y="151" flags="0x4"/>
    </TTGlyph>
    <TTGlyph name="ncaron" xMin="-61" yMin="0" xMax="963" yMax="1643">
      <component glyphName="n" x="-106" y="0" flags="0x400"/>
      <component glyphName="uni030C" x="-106" y="0" flags="0x0"/>
    </TTGlyph>
    <TTGlyph name="ncaron.sc" xMin="-61" yMin="0" xMax="993" yMax="1794">
      <component glyphName="n.sc" x="-106" y="0" flags="0x400"/>
      <component glyphName="uni030C" x="-76" y="151" flags="0x4"/>
    </TTGlyph>
    <TTGlyph name="nine" xMin="85" yMin="-315" xMax="964" yMax="1227">
      <contour>
        <pt x="260" y="-144" on="0"/>
        <pt x="505" y="0" on="0"/>
        <pt x="683" y="246" on="0"/>
        <pt x="740" y="437" on="1"/>
        <pt x="589" y="306" on="0"/>
        <pt x="431" y="306" on="1"/>
        <pt x="350" y="306" on="0"/>
        <pt x="214" y="376" on="0"/>
        <pt x="131" y="524" on="0"/>
        <pt x="131" y="634" on="1"/>
        <pt x="131" y="695" on="0"/>
        <pt x="146" y="770" on="1"/>
        <pt x="172" y="901" on="0"/>
        <pt x="314" y="1109" on="0"/>
        <pt x="518" y="1227" on="0"/>
        <pt x="634" y="1227" on="1"/>
        <pt x="795" y="1227" on="0"/>
        <pt x="964" y="1021" on="0"/>
        <pt x="964" y="821" on="1"/>
        <pt x="964" y="701" on="0"/>
        <pt x="935" y="559" on="1"/>
        <pt x="884" y="303" on="0"/>
        <pt x="672" y="-53" on="0"/>
        <pt x="337" y="-269" on="0"/>
        <pt x="98" y="-315" on="1"/>
        <pt x="85" y="-189" on="1"/>
      </contour>
      <contour>
        <pt x="296" y="685" on="0"/>
        <pt x="296" y="638" on="1"/>
        <pt x="296" y="541" on="0"/>
        <pt x="387" y="443" on="0"/>
        <pt x="469" y="443" on="1"/>
        <pt x="605" y="443" on="0"/>
        <pt x="771" y="592" on="1"/>
        <pt x="778" y="609" on="1"/>
        <pt x="804" y="736" on="0"/>
        <pt x="804" y="836" on="1"/>
        <pt x="804" y="963" on="0"/>
        <pt x="715" y="1091" on="0"/>
        <pt x="628" y="1091" on="1"/>
        <pt x="551" y="1091" on="0"/>
        <pt x="421" y="1003" on="0"/>
        <pt x="328" y="845" on="0"/>
        <pt x="308" y="743" on="1"/>
      </contour>
    </TTGlyph>
    <TTGlyph name="ntilde" xMin="-61" yMin="0" xMax="953" yMax="1564">
      <component glyphName="n" x="-106" y="0" flags="0x400"/>
      <component glyphName="tildecomb" x="-106" y="0" flags="0x0"/>
    </TTGlyph>
    <TTGlyph name="ntilde.sc" xMin="-61" yMin="0" xMax="983" yMax="1715">
      <component glyphName="n.sc" x="-106" y="0" flags="0x400"/>
      <component glyphName="tildecomb" x="-76" y="151" flags="0x4"/>
    </TTGlyph>
    <TTGlyph name="numbersign" xMin="48" yMin="-38" xMax="1076" yMax="1399">
      <contour>
        <pt x="241" y="390" on="1"/>
        <pt x="48" y="390" on="1"/>
        <pt x="74" y="522" on="1"/>
        <pt x="267" y="522" on="1"/>
        <pt x="336" y="862" on="1"/>
        <pt x="143" y="862" on="1"/>
        <pt x="169" y="995" on="1"/>
        <pt x="362" y="995" on="1"/>
        <pt x="443" y="1399" on="1"/>
        <pt x="586" y="1399" on="1"/>
        <pt x="505" y="995" on="1"/>
        <pt x="740" y="995" on="1"/>
        <pt x="821" y="1399" on="1"/>
        <pt x="964" y="1399" on="1"/>
        <pt x="883" y="995" on="1"/>
        <pt x="1076" y="995" on="1"/>
        <pt x="1050" y="862" on="1"/>
        <pt x="857" y="862" on="1"/>
        <pt x="788" y="522" on="1"/>
        <pt x="981" y="522" on="1"/>
        <pt x="955" y="390" on="1"/>
        <pt x="762" y="390" on="1"/>
        <pt x="676" y="-38" on="1"/>
        <pt x="533" y="-38" on="1"/>
        <pt x="619" y="390" on="1"/>
        <pt x="384" y="390" on="1"/>
        <pt x="298" y="-38" on="1"/>
        <pt x="155" y="-38" on="1"/>
      </contour>
      <contour>
        <pt x="645" y="522" on="1"/>
        <pt x="714" y="862" on="1"/>
        <pt x="479" y="862" on="1"/>
        <pt x="410" y="522" on="1"/>
      </contour>
    </TTGlyph>
    <TTGlyph name="o" xMin="85" yMin="-19" xMax="974" yMax="1078">
      <contour>
        <pt x="264" y="-19" on="0"/>
        <pt x="85" y="185" on="0"/>
        <pt x="85" y="366" on="1"/>
        <pt x="85" y="449" on="0"/>
        <pt x="104" y="541" on="1"/>
        <pt x="135" y="697" on="0"/>
        <pt x="283" y="940" on="0"/>
        <pt x="498" y="1078" on="0"/>
        <pt x="628" y="1078" on="1"/>
        <pt x="803" y="1078" on="0"/>
        <pt x="974" y="874" on="0"/>
        <pt x="974" y="697" on="1"/>
        <pt x="974" y="609" on="0"/>
        <pt x="955" y="517" on="1"/>
        <pt x="924" y="362" on="0"/>
        <pt x="768" y="118" on="0"/>
        <pt x="550" y="-19" on="0"/>
        <pt x="430" y="-19" on="1"/>
      </contour>
      <contour>
        <pt x="523" y="113" on="0"/>
        <pt x="670" y="213" on="0"/>
        <pt x="777" y="405" on="0"/>
        <pt x="804" y="541" on="1"/>
        <pt x="823" y="633" on="0"/>
        <pt x="823" y="709" on="1"/>
        <pt x="823" y="946" on="0"/>
        <pt x="623" y="946" on="1"/>
        <pt x="483" y="946" on="0"/>
        <pt x="296" y="727" on="0"/>
        <pt x="255" y="517" on="1"/>
        <pt x="238" y="435" on="0"/>
        <pt x="238" y="362" on="1"/>
        <pt x="238" y="240" on="0"/>
        <pt x="340" y="113" on="0"/>
        <pt x="435" y="113" on="1"/>
      </contour>
    </TTGlyph>
    <TTGlyph name="o.sc" xMin="91" yMin="-19" xMax="1000" yMax="1229">
      <contour>
        <pt x="91" y="-19" on="0"/>
        <pt x="91" y="364" on="1"/>
        <pt x="91" y="476" on="0"/>
        <pt x="119" y="617" on="1"/>
        <pt x="180" y="919" on="0"/>
        <pt x="454" y="1229" on="0"/>
        <pt x="658" y="1229" on="1"/>
        <pt x="833" y="1229" on="0"/>
        <pt x="1000" y="1039" on="0"/>
        <pt x="1000" y="853" on="1"/>
        <pt x="1000" y="746" on="0"/>
        <pt x="970" y="593" on="1"/>
        <pt x="930" y="392" on="0"/>
        <pt x="772" y="118" on="0"/>
        <pt x="557" y="-19" on="0"/>
        <pt x="430" y="-19" on="1"/>
      </contour>
      <contour>
        <pt x="574" y="113" on="0"/>
        <pt x="762" y="349" on="0"/>
        <pt x="815" y="617" on="1"/>
        <pt x="846" y="768" on="0"/>
        <pt x="846" y="869" on="1"/>
        <pt x="846" y="990" on="0"/>
        <pt x="752" y="1097" on="0"/>
        <pt x="653" y="1097" on="1"/>
        <pt x="556" y="1097" on="0"/>
        <pt x="414" y="999" on="0"/>
        <pt x="311" y="778" on="0"/>
        <pt x="274" y="593" on="1"/>
        <pt x="246" y="453" on="0"/>
        <pt x="246" y="355" on="1"/>
        <pt x="246" y="227" on="0"/>
        <pt x="341" y="113" on="0"/>
        <pt x="435" y="113" on="1"/>
      </contour>
    </TTGlyph>
    <TTGlyph name="oacute" xMin="-21" yMin="-19" xMax="961" yMax="1643">
      <component glyphName="o" x="-106" y="0" flags="0x400"/>
      <component glyphName="acutecomb" x="-106" y="0" flags="0x0"/>
    </TTGlyph>
    <TTGlyph name="oacute.sc" xMin="-15" yMin="-19" xMax="991" yMax="1794">
      <component glyphName="o.sc" x="-106" y="0" flags="0x400"/>
      <component glyphName="acutecomb" x="-76" y="151" flags="0x4"/>
    </TTGlyph>
    <TTGlyph name="obreve" xMin="-21" yMin="-19" xMax="927" yMax="1593">
      <component glyphName="o" x="-106" y="0" flags="0x400"/>
      <component glyphName="uni0306" x="-106" y="0" flags="0x0"/>
    </TTGlyph>
    <TTGlyph name="obreve.sc" xMin="-15" yMin="-19" xMax="957" yMax="1744">
      <component glyphName="o.sc" x="-106" y="0" flags="0x400"/>
      <component glyphName="uni0306" x="-76" y="151" flags="0x4"/>
    </TTGlyph>
    <TTGlyph name="ocircumflex" xMin="-21" yMin="-19" xMax="881" yMax="1643">
      <component glyphName="o" x="-106" y="0" flags="0x400"/>
      <component glyphName="uni0302" x="-106" y="0" flags="0x0"/>
    </TTGlyph>
    <TTGlyph name="ocircumflex.sc" xMin="-15" yMin="-19" xMax="911" yMax="1794">
      <component glyphName="o.sc" x="-106" y="0" flags="0x400"/>
      <component glyphName="uni0302" x="-76" y="151" flags="0x4"/>
    </TTGlyph>
    <TTGlyph name="odieresis" xMin="-21" yMin="-19" xMax="911" yMax="1524">
      <component glyphName="o" x="-106" y="0" flags="0x400"/>
      <component glyphName="uni0308" x="-106" y="0" flags="0x0"/>
    </TTGlyph>
    <TTGlyph name="odieresis.sc" xMin="-15" yMin="-19" xMax="941" yMax="1675">
      <component glyphName="o.sc" x="-106" y="0" flags="0x400"/>
      <component glyphName="uni0308" x="-76" y="151" flags="0x4"/>
    </TTGlyph>
    <TTGlyph name="ogonek" xMin="126" yMin="-303" xMax="455" yMax="54">
      <component glyphName="uni0328" x="-106" y="0" flags="0x400"/>
    </TTGlyph>
    <TTGlyph name="ograve" xMin="-21" yMin="-19" xMax="868" yMax="1643">
      <component glyphName="o" x="-106" y="0" flags="0x400"/>
      <component glyphName="gravecomb" x="-106" y="0" flags="0x0"/>
    </TTGlyph>
    <TTGlyph name="ograve.sc" xMin="-15" yMin="-19" xMax="894" yMax="1794">
      <component glyphName="o.sc" x="-106" y="0" flags="0x400"/>
      <component glyphName="gravecomb" x="-76" y="151" flags="0x4"/>
    </TTGlyph>
    <TTGlyph name="omacron" xMin="-21" yMin="-19" xMax="905" yMax="1471">
      <component glyphName="o" x="-106" y="0" flags="0x400"/>
      <component glyphName="uni0304" x="-106" y="0" flags="0x0"/>
    </TTGlyph>
    <TTGlyph name="omacron.sc" xMin="-15" yMin="-19" xMax="935" yMax="1622">
      <component glyphName="o.sc" x="-106" y="0" flags="0x400"/>
      <component glyphName="uni0304" x="-76" y="151" flags="0x4"/>
    </TTGlyph>
    <TTGlyph name="one" xMin="68" yMin="0" xMax="847" yMax="1233">
      <contour>
        <pt x="824" y="0" on="1"/>
        <pt x="68" y="0" on="1"/>
        <pt x="91" y="113" on="1"/>
        <pt x="397" y="132" on="1"/>
        <pt x="586" y="1072" on="1"/>
        <pt x="273" y="985" on="1"/>
        <pt x="269" y="1114" on="1"/>
        <pt x="677" y="1233" on="1"/>
        <pt x="769" y="1233" on="1"/>
        <pt x="548" y="132" on="1"/>
        <pt x="847" y="113" on="1"/>
      </contour>
    </TTGlyph>
    <TTGlyph name="otilde" xMin="-21" yMin="-19" xMax="953" yMax="1564">
      <component glyphName="o" x="-106" y="0" flags="0x400"/>
      <component glyphName="tildecomb" x="-106" y="0" flags="0x0"/>
    </TTGlyph>
    <TTGlyph name="otilde.sc" xMin="-15" yMin="-19" xMax="983" yMax="1715">
      <component glyphName="o.sc" x="-106" y="0" flags="0x400"/>
      <component glyphName="tildecomb" x="-76" y="151" flags="0x4"/>
    </TTGlyph>
    <TTGlyph name="p" xMin="-16" yMin="-303" xMax="989" yMax="1074">
      <contour>
        <pt x="314" y="-21" on="0"/>
        <pt x="202" y="-3" on="1"/>
        <pt x="136" y="-303" on="1"/>
        <pt x="-16" y="-303" on="1"/>
        <pt x="257" y="1059" on="1"/>
        <pt x="409" y="1059" on="1"/>
        <pt x="367" y="859" on="1"/>
        <pt x="407" y="905" on="1"/>
        <pt x="571" y="1074" on="0"/>
        <pt x="737" y="1074" on="1"/>
        <pt x="860" y="1074" on="0"/>
        <pt x="989" y="919" on="0"/>
        <pt x="989" y="772" on="1"/>
        <pt x="989" y="694" on="0"/>
        <pt x="969" y="591" on="1"/>
        <pt x="930" y="395" on="0"/>
        <pt x="753" y="119" on="0"/>
        <pt x="516" y="-21" on="0"/>
        <pt x="386" y="-21" on="1"/>
      </contour>
      <contour>
        <pt x="530" y="108" on="0"/>
        <pt x="764" y="358" on="0"/>
        <pt x="813" y="604" on="1"/>
        <pt x="833" y="707" on="0"/>
        <pt x="833" y="772" on="1"/>
        <pt x="833" y="859" on="0"/>
        <pt x="769" y="938" on="0"/>
        <pt x="707" y="938" on="1"/>
        <pt x="641" y="938" on="0"/>
        <pt x="512" y="861" on="0"/>
        <pt x="431" y="778" on="1"/>
        <pt x="338" y="692" on="1"/>
        <pt x="217" y="124" on="1"/>
        <pt x="246" y="117" on="0"/>
        <pt x="326" y="108" on="0"/>
        <pt x="363" y="108" on="1"/>
      </contour>
    </TTGlyph>
    <TTGlyph name="p.sc" xMin="45" yMin="0" xMax="965" yMax="1210">
      <contour>
        <pt x="287" y="1210" on="1"/>
        <pt x="589" y="1210" on="1"/>
        <pt x="775" y="1210" on="0"/>
        <pt x="965" y="1048" on="0"/>
        <pt x="965" y="902" on="1"/>
        <pt x="965" y="851" on="0"/>
        <pt x="953" y="794" on="1"/>
        <pt x="929" y="674" on="0"/>
        <pt x="793" y="493" on="0"/>
        <pt x="570" y="393" on="0"/>
        <pt x="420" y="393" on="1"/>
        <pt x="351" y="393" on="0"/>
        <pt x="283" y="402" on="1"/>
        <pt x="197" y="0" on="1"/>
        <pt x="45" y="0" on="1"/>
      </contour>
      <contour>
        <pt x="377" y="529" on="0"/>
        <pt x="418" y="529" on="1"/>
        <pt x="538" y="529" on="0"/>
        <pt x="692" y="592" on="0"/>
        <pt x="778" y="715" on="0"/>
        <pt x="797" y="810" on="1"/>
        <pt x="806" y="855" on="0"/>
        <pt x="806" y="893" on="1"/>
        <pt x="806" y="982" on="0"/>
        <pt x="696" y="1074" on="0"/>
        <pt x="575" y="1074" on="1"/>
        <pt x="412" y="1074" on="1"/>
        <pt x="299" y="535" on="1"/>
      </contour>
    </TTGlyph>
    <TTGlyph name="parenleft" xMin="280" yMin="-289" xMax="1093" yMax="1501">
      <contour>
        <pt x="475" y="1418" on="0"/>
        <pt x="1088" y="1501" on="1"/>
        <pt x="1093" y="1372" on="1"/>
        <pt x="905" y="1339" on="0"/>
        <pt x="660" y="1135" on="0"/>
        <pt x="518" y="819" on="0"/>
        <pt x="473" y="593" on="1"/>
        <pt x="434" y="398" on="0"/>
        <pt x="434" y="268" on="1"/>
        <pt x="434" y="87" on="0"/>
        <pt x="592" y="-129" on="0"/>
        <pt x="776" y="-164" on="1"/>
        <pt x="741" y="-289" on="1"/>
        <pt x="499" y="-255" on="0"/>
        <pt x="280" y="53" on="0"/>
        <pt x="280" y="301" on="1"/>
        <pt x="280" y="445" on="0"/>
        <pt x="314" y="617" on="1"/>
      </contour>
    </TTGlyph>
    <TTGlyph name="parenright" xMin="154" yMin="-291" xMax="967" yMax="1499">
      <contour>
        <pt x="771" y="-209" on="0"/>
        <pt x="158" y="-291" on="1"/>
        <pt x="154" y="-162" on="1"/>
        <pt x="342" y="-129" on="0"/>
        <pt x="586" y="75" on="0"/>
        <pt x="728" y="392" on="0"/>
        <pt x="773" y="617" on="1"/>
        <pt x="812" y="812" on="0"/>
        <pt x="812" y="942" on="1"/>
        <pt x="812" y="1123" on="0"/>
        <pt x="654" y="1339" on="0"/>
        <pt x="470" y="1374" on="1"/>
        <pt x="505" y="1499" on="1"/>
        <pt x="747" y="1465" on="0"/>
        <pt x="967" y="1157" on="0"/>
        <pt x="967" y="910" on="1"/>
        <pt x="967" y="770" on="0"/>
        <pt x="932" y="593" on="1"/>
      </contour>
    </TTGlyph>
    <TTGlyph name="percent" xMin="-59" yMin="-19" xMax="1178" yMax="1380">
      <contour>
        <pt x="1015" y="1210" on="1"/>
        <pt x="1178" y="1210" on="1"/>
        <pt x="104" y="151" on="1"/>
        <pt x="-59" y="151" on="1"/>
      </contour>
      <contour>
        <pt x="606" y="-19" on="0"/>
        <pt x="510" y="92" on="0"/>
        <pt x="510" y="194" on="1"/>
        <pt x="510" y="246" on="0"/>
        <pt x="521" y="298" on="1"/>
        <pt x="549" y="437" on="0"/>
        <pt x="692" y="588" on="0"/>
        <pt x="795" y="588" on="1"/>
        <pt x="884" y="588" on="0"/>
        <pt x="979" y="478" on="0"/>
        <pt x="979" y="378" on="1"/>
        <pt x="979" y="334" on="0"/>
        <pt x="968" y="274" on="1"/>
        <pt x="940" y="135" on="0"/>
        <pt x="797" y="-19" on="0"/>
        <pt x="695" y="-19" on="1"/>
      </contour>
      <contour>
        <pt x="747" y="104" on="0"/>
        <pt x="820" y="196" on="0"/>
        <pt x="841" y="298" on="1"/>
        <pt x="851" y="349" on="0"/>
        <pt x="851" y="386" on="1"/>
        <pt x="851" y="429" on="0"/>
        <pt x="820" y="467" on="0"/>
        <pt x="790" y="467" on="1"/>
        <pt x="685" y="467" on="0"/>
        <pt x="646" y="274" on="1"/>
        <pt x="635" y="217" on="0"/>
        <pt x="635" y="185" on="1"/>
        <pt x="635" y="142" on="0"/>
        <pt x="666" y="104" on="0"/>
        <pt x="696" y="104" on="1"/>
      </contour>
      <contour>
        <pt x="235" y="773" on="0"/>
        <pt x="139" y="885" on="0"/>
        <pt x="139" y="986" on="1"/>
        <pt x="139" y="1032" on="0"/>
        <pt x="150" y="1090" on="1"/>
        <pt x="178" y="1228" on="0"/>
        <pt x="322" y="1380" on="0"/>
        <pt x="425" y="1380" on="1"/>
        <pt x="513" y="1380" on="0"/>
        <pt x="609" y="1271" on="0"/>
        <pt x="609" y="1172" on="1"/>
        <pt x="609" y="1123" on="0"/>
        <pt x="597" y="1066" on="1"/>
        <pt x="569" y="927" on="0"/>
        <pt x="426" y="773" on="0"/>
        <pt x="324" y="773" on="1"/>
      </contour>
      <contour>
        <pt x="431" y="896" on="0"/>
        <pt x="470" y="1090" on="1"/>
        <pt x="481" y="1147" on="0"/>
        <pt x="481" y="1178" on="1"/>
        <pt x="481" y="1221" on="0"/>
        <pt x="450" y="1259" on="0"/>
        <pt x="419" y="1259" on="1"/>
        <pt x="314" y="1259" on="0"/>
        <pt x="275" y="1066" on="1"/>
        <pt x="265" y="1015" on="0"/>
        <pt x="265" y="978" on="1"/>
        <pt x="265" y="934" on="0"/>
        <pt x="295" y="896" on="0"/>
        <pt x="326" y="896" on="1"/>
      </contour>
    </TTGlyph>
    <TTGlyph name="period" xMin="278" yMin="-23" xMax="629" yMax="325">
      <contour>
        <pt x="361" y="-23" on="0"/>
        <pt x="278" y="60" on="0"/>
        <pt x="278" y="124" on="1"/>
        <pt x="278" y="144" on="0"/>
        <pt x="282" y="161" on="1"/>
        <pt x="291" y="206" on="0"/>
        <pt x="349" y="281" on="0"/>
        <pt x="433" y="325" on="0"/>
        <pt x="478" y="325" on="1"/>
        <pt x="546" y="325" on="0"/>
        <pt x="629" y="242" on="0"/>
        <pt x="629" y="177" on="1"/>
        <pt x="629" y="156" on="0"/>
        <pt x="625" y="137" on="1"/>
        <pt x="616" y="94" on="0"/>
        <pt x="558" y="20" on="0"/>
        <pt x="474" y="-23" on="0"/>
        <pt x="429" y="-23" on="1"/>
      </contour>
    </TTGlyph>
    <TTGlyph name="periodcentered" xMin="437" yMin="499" xMax="653" yMax="711">
      <contour>
        <pt x="489" y="499" on="0"/>
        <pt x="437" y="550" on="0"/>
        <pt x="437" y="592" on="1"/>
        <pt x="437" y="644" on="0"/>
        <pt x="505" y="711" on="0"/>
        <pt x="555" y="711" on="1"/>
        <pt x="599" y="711" on="0"/>
        <pt x="653" y="660" on="0"/>
        <pt x="653" y="619" on="1"/>
        <pt x="653" y="567" on="0"/>
        <pt x="584" y="499" on="0"/>
        <pt x="533" y="499" on="1"/>
      </contour>
    </TTGlyph>
    <TTGlyph name="pi" xMin="45" yMin="0" xMax="1014" yMax="1059">
      <contour>
        <pt x="802" y="0" on="1"/>
        <pt x="650" y="0" on="1"/>
        <pt x="835" y="923" on="1"/>
        <pt x="382" y="923" on="1"/>
        <pt x="197" y="0" on="1"/>
        <pt x="45" y="0" on="1"/>
        <pt x="257" y="1059" on="1"/>
        <pt x="1014" y="1059" on="1"/>
      </contour>
    </TTGlyph>
    <TTGlyph name="plus" xMin="55" yMin="189" xMax="1065" yMax="1172">
      <contour>
        <pt x="471" y="613" on="1"/>
        <pt x="55" y="613" on="1"/>
        <pt x="82" y="749" on="1"/>
        <pt x="498" y="749" on="1"/>
        <pt x="583" y="1172" on="1"/>
        <pt x="734" y="1172" on="1"/>
        <pt x="649" y="749" on="1"/>
        <pt x="1065" y="749" on="1"/>
        <pt x="1038" y="613" on="1"/>
        <pt x="622" y="613" on="1"/>
        <pt x="537" y="189" on="1"/>
        <pt x="386" y="189" on="1"/>
      </contour>
    </TTGlyph>
    <TTGlyph name="plusminus" xMin="-174" yMin="0" xMax="989" yMax="1323">
      <component glyphName="minus" x="-229" y="-613" flags="0x404"/>
      <component glyphName="plus" x="-76" y="151" flags="0x4"/>
    </TTGlyph>
    <TTGlyph name="q" xMin="70" yMin="-303" xMax="1002" yMax="1080">
      <contour>
        <pt x="829" y="1080" on="0"/>
        <pt x="1002" y="1023" on="1"/>
        <pt x="741" y="-303" on="1"/>
        <pt x="589" y="-303" on="1"/>
        <pt x="692" y="200" on="1"/>
        <pt x="652" y="154" on="1"/>
        <pt x="488" y="-15" on="0"/>
        <pt x="322" y="-15" on="1"/>
        <pt x="199" y="-15" on="0"/>
        <pt x="70" y="140" on="0"/>
        <pt x="70" y="287" on="1"/>
        <pt x="70" y="365" on="0"/>
        <pt x="90" y="468" on="1"/>
        <pt x="129" y="664" on="0"/>
        <pt x="306" y="940" on="0"/>
        <pt x="543" y="1080" on="0"/>
        <pt x="673" y="1080" on="1"/>
      </contour>
      <contour>
        <pt x="529" y="951" on="0"/>
        <pt x="295" y="701" on="0"/>
        <pt x="246" y="455" on="1"/>
        <pt x="226" y="352" on="0"/>
        <pt x="226" y="287" on="1"/>
        <pt x="226" y="200" on="0"/>
        <pt x="290" y="121" on="0"/>
        <pt x="352" y="121" on="1"/>
        <pt x="417" y="121" on="0"/>
        <pt x="547" y="198" on="0"/>
        <pt x="628" y="281" on="1"/>
        <pt x="721" y="367" on="1"/>
        <pt x="842" y="935" on="1"/>
        <pt x="813" y="942" on="0"/>
        <pt x="733" y="951" on="0"/>
        <pt x="696" y="951" on="1"/>
      </contour>
    </TTGlyph>
    <TTGlyph name="q.sc" xMin="91" yMin="-310" xMax="1000" yMax="1229">
      <contour>
        <pt x="473" y="-310" on="0"/>
        <pt x="349" y="-182" on="0"/>
        <pt x="349" y="-51" on="1"/>
        <pt x="349" y="-37" on="0"/>
        <pt x="351" y="-7" on="1"/>
        <pt x="91" y="25" on="0"/>
        <pt x="91" y="363" on="1"/>
        <pt x="91" y="476" on="0"/>
        <pt x="119" y="617" on="1"/>
        <pt x="180" y="919" on="0"/>
        <pt x="454" y="1229" on="0"/>
        <pt x="658" y="1229" on="1"/>
        <pt x="833" y="1229" on="0"/>
        <pt x="1000" y="1039" on="0"/>
        <pt x="1000" y="853" on="1"/>
        <pt x="1000" y="746" on="0"/>
        <pt x="970" y="593" on="1"/>
        <pt x="915" y="320" on="0"/>
        <pt x="666" y="10" on="0"/>
        <pt x="491" y="-21" on="1"/>
        <pt x="489" y="-45" on="0"/>
        <pt x="489" y="-56" on="1"/>
        <pt x="489" y="-119" on="0"/>
        <pt x="555" y="-174" on="0"/>
        <pt x="624" y="-174" on="1"/>
        <pt x="666" y="-174" on="0"/>
        <pt x="752" y="-162" on="1"/>
        <pt x="757" y="-286" on="1"/>
        <pt x="685" y="-310" on="0"/>
        <pt x="588" y="-310" on="1"/>
      </contour>
      <contour>
        <pt x="574" y="113" on="0"/>
        <pt x="762" y="349" on="0"/>
        <pt x="815" y="617" on="1"/>
        <pt x="846" y="768" on="0"/>
        <pt x="846" y="869" on="1"/>
        <pt x="846" y="990" on="0"/>
        <pt x="752" y="1097" on="0"/>
        <pt x="653" y="1097" on="1"/>
        <pt x="556" y="1097" on="0"/>
        <pt x="414" y="999" on="0"/>
        <pt x="311" y="778" on="0"/>
        <pt x="274" y="593" on="1"/>
        <pt x="246" y="453" on="0"/>
        <pt x="246" y="355" on="1"/>
        <pt x="246" y="227" on="0"/>
        <pt x="341" y="113" on="0"/>
        <pt x="435" y="113" on="1"/>
      </contour>
    </TTGlyph>
    <TTGlyph name="question" xMin="278" yMin="-23" xMax="1018" yMax="1380">
      <contour>
        <pt x="577" y="632" on="0"/>
        <pt x="729" y="764" on="0"/>
        <pt x="824" y="905" on="0"/>
        <pt x="840" y="986" on="1"/>
        <pt x="847" y="1020" on="0"/>
        <pt x="847" y="1054" on="1"/>
        <pt x="847" y="1145" on="0"/>
        <pt x="724" y="1244" on="0"/>
        <pt x="603" y="1244" on="1"/>
        <pt x="537" y="1244" on="0"/>
        <pt x="374" y="1212" on="0"/>
        <pt x="311" y="1191" on="1"/>
        <pt x="288" y="1303" on="1"/>
        <pt x="369" y="1336" on="0"/>
        <pt x="553" y="1380" on="0"/>
        <pt x="637" y="1380" on="1"/>
        <pt x="756" y="1380" on="0"/>
        <pt x="928" y="1303" on="0"/>
        <pt x="1018" y="1162" on="0"/>
        <pt x="1018" y="1066" on="1"/>
        <pt x="1018" y="1028" on="0"/>
        <pt x="1008" y="975" on="1"/>
        <pt x="979" y="828" on="0"/>
        <pt x="729" y="569" on="0"/>
        <pt x="530" y="451" on="1"/>
        <pt x="460" y="552" on="1"/>
      </contour>
      <contour>
        <pt x="361" y="-23" on="0"/>
        <pt x="278" y="60" on="0"/>
        <pt x="278" y="124" on="1"/>
        <pt x="278" y="144" on="0"/>
        <pt x="282" y="161" on="1"/>
        <pt x="291" y="206" on="0"/>
        <pt x="349" y="281" on="0"/>
        <pt x="433" y="325" on="0"/>
        <pt x="478" y="325" on="1"/>
        <pt x="546" y="325" on="0"/>
        <pt x="629" y="242" on="0"/>
        <pt x="629" y="177" on="1"/>
        <pt x="629" y="156" on="0"/>
        <pt x="625" y="137" on="1"/>
        <pt x="616" y="94" on="0"/>
        <pt x="558" y="20" on="0"/>
        <pt x="474" y="-23" on="0"/>
        <pt x="429" y="-23" on="1"/>
      </contour>
    </TTGlyph>
    <TTGlyph name="questiondown" xMin="41" yMin="-321" xMax="781" yMax="1082">
      <contour>
        <pt x="482" y="427" on="0"/>
        <pt x="330" y="295" on="0"/>
        <pt x="235" y="154" on="0"/>
        <pt x="219" y="73" on="1"/>
        <pt x="212" y="39" on="0"/>
        <pt x="212" y="5" on="1"/>
        <pt x="212" y="-86" on="0"/>
        <pt x="335" y="-185" on="0"/>
        <pt x="456" y="-185" on="1"/>
        <pt x="522" y="-185" on="0"/>
        <pt x="685" y="-153" on="0"/>
        <pt x="748" y="-132" on="1"/>
        <pt x="771" y="-244" on="1"/>
        <pt x="690" y="-277" on="0"/>
        <pt x="506" y="-321" on="0"/>
        <pt x="422" y="-321" on="1"/>
        <pt x="303" y="-321" on="0"/>
        <pt x="131" y="-244" on="0"/>
        <pt x="41" y="-103" on="0"/>
        <pt x="41" y="-7" on="1"/>
        <pt x="41" y="31" on="0"/>
        <pt x="51" y="84" on="1"/>
        <pt x="80" y="231" on="0"/>
        <pt x="330" y="490" on="0"/>
        <pt x="529" y="608" on="1"/>
        <pt x="599" y="507" on="1"/>
      </contour>
      <contour>
        <pt x="698" y="1082" on="0"/>
        <pt x="781" y="999" on="0"/>
        <pt x="781" y="935" on="1"/>
        <pt x="781" y="915" on="0"/>
        <pt x="777" y="898" on="1"/>
        <pt x="768" y="853" on="0"/>
        <pt x="710" y="778" on="0"/>
        <pt x="626" y="734" on="0"/>
        <pt x="581" y="734" on="1"/>
        <pt x="513" y="734" on="0"/>
        <pt x="430" y="817" on="0"/>
        <pt x="430" y="882" on="1"/>
        <pt x="430" y="903" on="0"/>
        <pt x="434" y="922" on="1"/>
        <pt x="443" y="965" on="0"/>
        <pt x="501" y="1039" on="0"/>
        <pt x="585" y="1082" on="0"/>
        <pt x="630" y="1082" on="1"/>
      </contour>
    </TTGlyph>
    <TTGlyph name="quotedbl" xMin="193" yMin="756" xMax="931" yMax="1362">
      <component glyphName="quotesingle" x="-322" y="0" flags="0x400"/>
      <component glyphName="quotesingle" x="110" y="0" flags="0x0"/>
    </TTGlyph>
    <TTGlyph name="quotedblbase" xMin="-249" yMin="-315" xMax="809" yMax="323">
      <component glyphName="quoteright" x="-549" y="-1059" flags="0x404"/>
      <component glyphName="quoteright" x="-46" y="-1059" flags="0x4"/>
    </TTGlyph>
    <TTGlyph name="quotedblleft" xMin="157" yMin="800" xMax="1215" yMax="1438">
      <contour>
        <pt x="744" y="800" on="0"/>
        <pt x="660" y="886" on="0"/>
        <pt x="660" y="967" on="1"/>
        <pt x="660" y="997" on="0"/>
        <pt x="668" y="1039" on="1"/>
        <pt x="700" y="1201" on="0"/>
        <pt x="971" y="1404" on="0"/>
        <pt x="1202" y="1438" on="1"/>
        <pt x="1215" y="1319" on="1"/>
        <pt x="1069" y="1291" on="0"/>
        <pt x="890" y="1194" on="0"/>
        <pt x="879" y="1141" on="1"/>
        <pt x="877" y="1128" on="0"/>
        <pt x="895" y="1103" on="0"/>
        <pt x="917" y="1087" on="1"/>
        <pt x="952" y="1073" on="0"/>
        <pt x="989" y="1017" on="0"/>
        <pt x="989" y="980" on="1"/>
        <pt x="989" y="970" on="0"/>
        <pt x="985" y="946" on="1"/>
        <pt x="973" y="882" on="0"/>
        <pt x="878" y="800" on="0"/>
        <pt x="812" y="800" on="1"/>
      </contour>
      <contour>
        <pt x="241" y="800" on="0"/>
        <pt x="157" y="886" on="0"/>
        <pt x="157" y="967" on="1"/>
        <pt x="157" y="997" on="0"/>
        <pt x="165" y="1039" on="1"/>
        <pt x="197" y="1201" on="0"/>
        <pt x="468" y="1404" on="0"/>
        <pt x="699" y="1438" on="1"/>
        <pt x="712" y="1319" on="1"/>
        <pt x="566" y="1291" on="0"/>
        <pt x="387" y="1194" on="0"/>
        <pt x="376" y="1141" on="1"/>
        <pt x="374" y="1128" on="0"/>
        <pt x="392" y="1103" on="0"/>
        <pt x="414" y="1087" on="1"/>
        <pt x="449" y="1073" on="0"/>
        <pt x="486" y="1017" on="0"/>
        <pt x="486" y="980" on="1"/>
        <pt x="486" y="970" on="0"/>
        <pt x="482" y="946" on="1"/>
        <pt x="470" y="882" on="0"/>
        <pt x="375" y="800" on="0"/>
        <pt x="309" y="800" on="1"/>
      </contour>
    </TTGlyph>
    <TTGlyph name="quotedblright" xMin="-37" yMin="744" xMax="1021" yMax="1382">
      <component glyphName="quoteright" x="-337" y="0" flags="0x400"/>
      <component glyphName="quoteright" x="166" y="0" flags="0x0"/>
    </TTGlyph>
    <TTGlyph name="quoteleft" xMin="429" yMin="800" xMax="984" yMax="1438">
      <contour>
        <pt x="513" y="800" on="0"/>
        <pt x="429" y="886" on="0"/>
        <pt x="429" y="967" on="1"/>
        <pt x="429" y="997" on="0"/>
        <pt x="437" y="1039" on="1"/>
        <pt x="469" y="1201" on="0"/>
        <pt x="740" y="1404" on="0"/>
        <pt x="971" y="1438" on="1"/>
        <pt x="984" y="1319" on="1"/>
        <pt x="838" y="1291" on="0"/>
        <pt x="659" y="1194" on="0"/>
        <pt x="648" y="1141" on="1"/>
        <pt x="646" y="1128" on="0"/>
        <pt x="664" y="1103" on="0"/>
        <pt x="686" y="1087" on="1"/>
        <pt x="721" y="1073" on="0"/>
        <pt x="758" y="1017" on="0"/>
        <pt x="758" y="980" on="1"/>
        <pt x="758" y="970" on="0"/>
        <pt x="754" y="946" on="1"/>
        <pt x="742" y="882" on="0"/>
        <pt x="647" y="800" on="0"/>
        <pt x="581" y="800" on="1"/>
      </contour>
    </TTGlyph>
    <TTGlyph name="quoteright" xMin="300" yMin="744" xMax="855" yMax="1382">
      <contour>
        <pt x="770" y="1382" on="0"/>
        <pt x="855" y="1295" on="0"/>
        <pt x="855" y="1214" on="1"/>
        <pt x="855" y="1185" on="0"/>
        <pt x="847" y="1143" on="1"/>
        <pt x="815" y="981" on="0"/>
        <pt x="543" y="778" on="0"/>
        <pt x="312" y="744" on="1"/>
        <pt x="300" y="863" on="1"/>
        <pt x="446" y="891" on="0"/>
        <pt x="624" y="988" on="0"/>
        <pt x="635" y="1041" on="1"/>
        <pt x="638" y="1054" on="0"/>
        <pt x="619" y="1080" on="0"/>
        <pt x="597" y="1095" on="1"/>
        <pt x="562" y="1109" on="0"/>
        <pt x="526" y="1166" on="0"/>
        <pt x="526" y="1204" on="1"/>
        <pt x="526" y="1220" on="0"/>
        <pt x="529" y="1236" on="1"/>
        <pt x="542" y="1300" on="0"/>
        <pt x="637" y="1382" on="0"/>
        <pt x="703" y="1382" on="1"/>
      </contour>
    </TTGlyph>
    <TTGlyph name="quotesinglbase" xMin="-18" yMin="-315" xMax="537" yMax="323">
      <component glyphName="quoteright" x="-318" y="-1059" flags="0x404"/>
    </TTGlyph>
    <TTGlyph name="quotesingle" xMin="515" yMin="756" xMax="821" yMax="1362">
      <contour>
        <pt x="572" y="1362" on="1"/>
        <pt x="821" y="1362" on="1"/>
        <pt x="636" y="756" on="1"/>
        <pt x="515" y="756" on="1"/>
      </contour>
    </TTGlyph>
    <TTGlyph name="r" xMin="45" yMin="0" xMax="879" yMax="1074">
      <contour>
        <pt x="807" y="1074" on="0"/>
        <pt x="879" y="1062" on="1"/>
        <pt x="835" y="914" on="1"/>
        <pt x="779" y="927" on="0"/>
        <pt x="735" y="927" on="1"/>
        <pt x="650" y="927" on="0"/>
        <pt x="505" y="833" on="0"/>
        <pt x="416" y="738" on="1"/>
        <pt x="330" y="656" on="1"/>
        <pt x="197" y="0" on="1"/>
        <pt x="45" y="0" on="1"/>
        <pt x="257" y="1059" on="1"/>
        <pt x="409" y="1059" on="1"/>
        <pt x="360" y="823" on="1"/>
        <pt x="398" y="871" on="1"/>
        <pt x="485" y="968" on="0"/>
        <pt x="655" y="1074" on="0"/>
        <pt x="758" y="1074" on="1"/>
      </contour>
    </TTGlyph>
    <TTGlyph name="r.sc" xMin="45" yMin="0" xMax="972" yMax="1210">
      <contour>
        <pt x="287" y="1210" on="1"/>
        <pt x="589" y="1210" on="1"/>
        <pt x="779" y="1210" on="0"/>
        <pt x="972" y="1062" on="0"/>
        <pt x="972" y="928" on="1"/>
        <pt x="972" y="888" on="0"/>
        <pt x="963" y="843" on="1"/>
        <pt x="936" y="710" on="0"/>
        <pt x="752" y="534" on="0"/>
        <pt x="597" y="508" on="1"/>
        <pt x="832" y="0" on="1"/>
        <pt x="649" y="0" on="1"/>
        <pt x="438" y="492" on="1"/>
        <pt x="295" y="492" on="1"/>
        <pt x="197" y="0" on="1"/>
        <pt x="45" y="0" on="1"/>
      </contour>
      <contour>
        <pt x="761" y="628" on="0"/>
        <pt x="807" y="859" on="1"/>
        <pt x="813" y="891" on="0"/>
        <pt x="813" y="917" on="1"/>
        <pt x="813" y="994" on="0"/>
        <pt x="700" y="1074" on="0"/>
        <pt x="575" y="1074" on="1"/>
        <pt x="412" y="1074" on="1"/>
        <pt x="323" y="628" on="1"/>
        <pt x="492" y="628" on="1"/>
      </contour>
    </TTGlyph>
    <TTGlyph name="racute" xMin="-61" yMin="0" xMax="886" yMax="1643">
      <component glyphName="r" x="-106" y="0" flags="0x400"/>
      <component glyphName="acutecomb" x="-181" y="0" flags="0x0"/>
    </TTGlyph>
    <TTGlyph name="racute.sc" xMin="-61" yMin="0" xMax="957" yMax="1794">
      <component glyphName="r.sc" x="-106" y="0" flags="0x400"/>
      <component glyphName="acutecomb" x="-110" y="151" flags="0x4"/>
    </TTGlyph>
    <TTGlyph name="rcaron" xMin="-61" yMin="0" xMax="888" yMax="1643">
      <component glyphName="r" x="-106" y="0" flags="0x400"/>
      <component glyphName="uni030C" x="-181" y="0" flags="0x0"/>
    </TTGlyph>
    <TTGlyph name="rcaron.sc" xMin="-61" yMin="0" xMax="959" yMax="1794">
      <component glyphName="r.sc" x="-106" y="0" flags="0x400"/>
      <component glyphName="uni030C" x="-110" y="151" flags="0x4"/>
    </TTGlyph>
    <TTGlyph name="ring" xMin="362" yMin="1216" xMax="852" yMax="1675">
      <component glyphName="uni030A" x="-106" y="0" flags="0x400"/>
    </TTGlyph>
    <TTGlyph name="s" xMin="22" yMin="-17" xMax="842" yMax="1085">
      <contour>
        <pt x="244" y="-17" on="0"/>
        <pt x="86" y="22" on="0"/>
        <pt x="22" y="55" on="1"/>
        <pt x="71" y="168" on="1"/>
        <pt x="203" y="119" on="0"/>
        <pt x="327" y="119" on="1"/>
        <pt x="430" y="119" on="0"/>
        <pt x="558" y="210" on="0"/>
        <pt x="574" y="292" on="1"/>
        <pt x="578" y="316" on="0"/>
        <pt x="578" y="326" on="1"/>
        <pt x="578" y="369" on="0"/>
        <pt x="530" y="429" on="0"/>
        <pt x="459" y="467" on="0"/>
        <pt x="396" y="494" on="1"/>
        <pt x="321" y="525" on="0"/>
        <pt x="227" y="579" on="0"/>
        <pt x="162" y="671" on="0"/>
        <pt x="162" y="741" on="1"/>
        <pt x="162" y="773" on="0"/>
        <pt x="169" y="808" on="1"/>
        <pt x="184" y="883" on="0"/>
        <pt x="287" y="1009" on="0"/>
        <pt x="457" y="1085" on="0"/>
        <pt x="566" y="1085" on="1"/>
        <pt x="700" y="1085" on="0"/>
        <pt x="842" y="1023" on="1"/>
        <pt x="791" y="904" on="1"/>
        <pt x="674" y="949" on="0"/>
        <pt x="567" y="949" on="1"/>
        <pt x="459" y="949" on="0"/>
        <pt x="336" y="865" on="0"/>
        <pt x="322" y="795" on="1"/>
        <pt x="319" y="780" on="0"/>
        <pt x="319" y="767" on="1"/>
        <pt x="319" y="729" on="0"/>
        <pt x="364" y="675" on="0"/>
        <pt x="431" y="640" on="0"/>
        <pt x="491" y="615" on="1"/>
        <pt x="568" y="584" on="0"/>
        <pt x="666" y="528" on="0"/>
        <pt x="735" y="429" on="0"/>
        <pt x="735" y="353" on="1"/>
        <pt x="735" y="314" on="0"/>
        <pt x="727" y="277" on="1"/>
        <pt x="711" y="197" on="0"/>
        <pt x="606" y="63" on="0"/>
        <pt x="438" y="-17" on="0"/>
        <pt x="330" y="-17" on="1"/>
      </contour>
    </TTGlyph>
    <TTGlyph name="s.sc" xMin="-1" yMin="-17" xMax="908" yMax="1229">
      <contour>
        <pt x="222" y="-17" on="0"/>
        <pt x="73" y="35" on="0"/>
        <pt x="-1" y="84" on="1"/>
        <pt x="64" y="194" on="1"/>
        <pt x="117" y="162" on="0"/>
        <pt x="251" y="119" on="0"/>
        <pt x="312" y="119" on="1"/>
        <pt x="422" y="119" on="0"/>
        <pt x="571" y="221" on="0"/>
        <pt x="589" y="309" on="1"/>
        <pt x="592" y="326" on="0"/>
        <pt x="592" y="342" on="1"/>
        <pt x="592" y="385" on="0"/>
        <pt x="546" y="458" on="0"/>
        <pt x="478" y="517" on="0"/>
        <pt x="418" y="561" on="1"/>
        <pt x="345" y="614" on="0"/>
        <pt x="258" y="693" on="0"/>
        <pt x="196" y="803" on="0"/>
        <pt x="196" y="873" on="1"/>
        <pt x="196" y="907" on="0"/>
        <pt x="203" y="939" on="1"/>
        <pt x="218" y="1014" on="0"/>
        <pt x="321" y="1147" on="0"/>
        <pt x="486" y="1229" on="0"/>
        <pt x="589" y="1229" on="1"/>
        <pt x="756" y="1229" on="0"/>
        <pt x="908" y="1137" on="1"/>
        <pt x="839" y="1030" on="1"/>
        <pt x="714" y="1093" on="0"/>
        <pt x="598" y="1093" on="1"/>
        <pt x="531" y="1093" on="0"/>
        <pt x="427" y="1044" on="0"/>
        <pt x="363" y="965" on="0"/>
        <pt x="354" y="920" on="1"/>
        <pt x="351" y="904" on="0"/>
        <pt x="351" y="887" on="1"/>
        <pt x="351" y="843" on="0"/>
        <pt x="397" y="769" on="0"/>
        <pt x="465" y="710" on="0"/>
        <pt x="525" y="665" on="1"/>
        <pt x="596" y="613" on="0"/>
        <pt x="685" y="533" on="0"/>
        <pt x="747" y="421" on="0"/>
        <pt x="747" y="351" on="1"/>
        <pt x="747" y="317" on="0"/>
        <pt x="740" y="285" on="1"/>
        <pt x="724" y="204" on="0"/>
        <pt x="613" y="66" on="0"/>
        <pt x="431" y="-17" on="0"/>
        <pt x="315" y="-17" on="1"/>
      </contour>
    </TTGlyph>
    <TTGlyph name="sacute" xMin="-84" yMin="-17" xMax="886" yMax="1643">
      <component glyphName="s" x="-106" y="0" flags="0x400"/>
      <component glyphName="acutecomb" x="-181" y="0" flags="0x0"/>
    </TTGlyph>
    <TTGlyph name="sacute.sc" xMin="-107" yMin="-17" xMax="925" yMax="1794">
      <component glyphName="s.sc" x="-106" y="0" flags="0x400"/>
      <component glyphName="acutecomb" x="-142" y="151" flags="0x4"/>
    </TTGlyph>
    <TTGlyph name="scaron" xMin="-84" yMin="-17" xMax="888" yMax="1643">
      <component glyphName="s" x="-106" y="0" flags="0x400"/>
      <component glyphName="uni030C" x="-181" y="0" flags="0x0"/>
    </TTGlyph>
    <TTGlyph name="scaron.sc" xMin="-107" yMin="-17" xMax="927" yMax="1794">
      <component glyphName="s.sc" x="-106" y="0" flags="0x400"/>
      <component glyphName="uni030C" x="-142" y="151" flags="0x4"/>
    </TTGlyph>
</ttFont>
